<svg width="13" height="6" viewBox="0 0 13 6" fill="none" xmlns="http://www.w3.org/2000/svg">
<path d="M2.27715 0.232971L6.43619 3.33944L10.5952 0.232971C10.7924 0.0839016 11.0612 -4.37151e-08 11.3417 -3.45564e-08C11.6222 -2.53976e-08 11.8911 0.0839016 12.0882 0.232971C12.5041 0.543618 12.5041 1.03747 12.0882 1.34812L7.19335 5.0042C6.77744 5.31484 6.1056 5.31484 5.6897 5.0042L0.784161 1.34812C0.368258 1.03747 0.368258 0.543618 0.784162 0.232971C0.981294 0.0839013 1.25013 -3.64036e-07 1.53066 -3.54878e-07C1.81118 -3.45719e-07 2.08002 0.0839013 2.27715 0.232971Z" fill="#DADADA"/>
</svg>
