<svg width="26" height="26" viewBox="0 0 26 26" fill="none" xmlns="http://www.w3.org/2000/svg">
<path d="M13 4.33325C14.1493 4.33325 15.2515 4.7898 16.0642 5.60246C16.8768 6.41511 17.3334 7.51731 17.3334 8.66659C17.3334 9.81586 16.8768 10.9181 16.0642 11.7307C15.2515 12.5434 14.1493 12.9999 13 12.9999C11.8508 12.9999 10.7486 12.5434 9.93591 11.7307C9.12325 10.9181 8.66671 9.81586 8.66671 8.66659C8.66671 7.51731 9.12325 6.41511 9.93591 5.60246C10.7486 4.7898 11.8508 4.33325 13 4.33325ZM13 15.1666C17.7862 15.1666 21.6667 17.1058 21.6667 19.4999V21.6666H4.33337V19.4999C4.33337 17.1058 8.21387 15.1666 13 15.1666Z" fill="#535353"/>
</svg>
