<svg width="32" height="33" viewBox="0 0 32 33" fill="none" xmlns="http://www.w3.org/2000/svg">
<path fill-rule="evenodd" clip-rule="evenodd" d="M16.7674 0.0748603C20.1547 0.446945 22.8708 2.76252 25.4377 5.00478C27.788 7.05786 29.7876 9.43083 30.8414 12.369C31.9212 15.3792 32.5031 18.6978 31.4298 21.7104C30.3713 24.6811 27.63 26.5375 25.1156 28.4398C22.5486 30.3818 19.9577 32.3793 16.7674 32.803C13.2757 33.2666 9.44663 33.019 6.63739 30.8933C3.84774 28.7823 3.20902 25.0308 2.10721 21.7096C0.997355 18.3642 -0.593439 14.9951 0.225825 11.5668C1.07785 8.00145 3.58416 5.02577 6.59385 2.93484C9.55976 0.874321 13.1781 -0.319415 16.7674 0.0748603Z" fill="#CAE1E4"/>
</svg>
