<svg width="20" height="22" viewBox="0 0 20 22" fill="none" xmlns="http://www.w3.org/2000/svg">
<path d="M6.75 9.83334V12H4.58333V9.83334H6.75ZM11.0833 9.83334V12H8.91667V9.83334H11.0833ZM15.4167 9.83334V12H13.25V9.83334H15.4167ZM17.5833 2.25001C18.775 2.25001 19.75 3.22501 19.75 4.41668V19.5833C19.75 20.775 18.775 21.75 17.5833 21.75H2.41667C1.84203 21.75 1.29093 21.5217 0.884602 21.1154C0.478273 20.7091 0.25 20.158 0.25 19.5833L0.260833 4.41668C0.260833 3.22501 1.21417 2.25001 2.41667 2.25001H3.5V0.0833435H5.66667V2.25001H14.3333V0.0833435H16.5V2.25001H17.5833ZM17.5833 19.5833V7.66668H2.41667V19.5833H17.5833ZM6.75 14.1667V16.3333H4.58333V14.1667H6.75ZM11.0833 14.1667V16.3333H8.91667V14.1667H11.0833ZM15.4167 14.1667V16.3333H13.25V14.1667H15.4167Z" fill="#535353"/>
</svg>
