<svg width="18" height="18" viewBox="0 0 18 18" fill="none" xmlns="http://www.w3.org/2000/svg">
<path fill-rule="evenodd" clip-rule="evenodd" d="M4.32684 4.59076C6.67434 4.12576 8.77434 5.48326 9.48684 7.50076H15.7493C16.5743 7.50076 17.2493 8.17576 17.2493 9.00076C17.2493 9.82576 16.5743 10.5008 15.7493 10.5008V12.0008C15.7493 12.8258 15.0743 13.5008 14.2493 13.5008C13.4243 13.5008 12.7493 12.8258 12.7493 12.0008V10.5008H9.48684C8.87184 12.2483 7.20684 13.5008 5.24934 13.5008C2.44434 13.5008 0.239344 10.9283 0.854344 8.02576C1.21434 6.30826 2.60934 4.93576 4.32684 4.59076ZM3.74933 9.00076C3.74933 9.82576 4.42433 10.5008 5.24933 10.5008C6.07433 10.5008 6.74933 9.82576 6.74933 9.00076C6.74933 8.17576 6.07433 7.50076 5.24933 7.50076C4.42433 7.50076 3.74933 8.17576 3.74933 9.00076Z" fill="#77999E"/>
</svg>
