<svg width="18" height="18" viewBox="0 0 18 18" fill="none" xmlns="http://www.w3.org/2000/svg">
<path fill-rule="evenodd" clip-rule="evenodd" d="M12 0.75H6C4.965 0.75 4.125 1.59 4.125 2.625V15.375C4.125 16.41 4.965 17.25 6 17.25H12C13.035 17.25 13.875 16.41 13.875 15.375V2.625C13.875 1.59 13.035 0.75 12 0.75ZM9 16.5C8.3775 16.5 7.875 15.9975 7.875 15.375C7.875 14.7525 8.3775 14.25 9 14.25C9.6225 14.25 10.125 14.7525 10.125 15.375C10.125 15.9975 9.6225 16.5 9 16.5ZM5.625 13.5H12.375V3H5.625V13.5Z" fill="#77999E"/>
</svg>
