<svg width="16" height="16" viewBox="0 0 16 16" fill="none" xmlns="http://www.w3.org/2000/svg">
<path d="M14.825 1.18582C14.6226 0.982959 14.3478 0.868957 14.0613 0.868957C13.7747 0.868957 13.4999 0.982959 13.2975 1.18582L8.00003 6.47248L2.70253 1.17498C2.50013 0.972126 2.22534 0.858124 1.93878 0.858124C1.65222 0.858124 1.37743 0.972126 1.17503 1.17498C0.752529 1.59748 0.752529 2.27998 1.17503 2.70248L6.47253 7.99998L1.17503 13.2975C0.752529 13.72 0.752529 14.4025 1.17503 14.825C1.59753 15.2475 2.28003 15.2475 2.70253 14.825L8.00003 9.52748L13.2975 14.825C13.72 15.2475 14.4025 15.2475 14.825 14.825C15.2475 14.4025 15.2475 13.72 14.825 13.2975L9.52753 7.99998L14.825 2.70248C15.2367 2.29082 15.2367 1.59748 14.825 1.18582Z" fill="#FDFDFD"/>
</svg>
