<svg width="281" height="275" viewBox="0 0 281 275" fill="none" xmlns="http://www.w3.org/2000/svg">
<g filter="url(#filter0_d)">
<path fill-rule="evenodd" clip-rule="evenodd" d="M61.5248 178.354C44.5476 156.661 19.106 134.418 27.2034 106.756C35.3416 78.954 70.6279 68.6457 97.6741 54.861C122.395 42.2615 148.243 25.6884 173.968 31.9531C199.363 38.1374 216.123 61.1018 222.69 85.3052C228.156 105.45 209.318 124.378 204.777 145.501C199.193 171.48 215.312 203.34 193.54 220.906C171.666 238.555 139.931 226.515 114.521 218.324C92.0304 211.075 75.5384 196.26 61.5248 178.354Z" fill="#A0C4CA"/>
</g>
<g filter="url(#filter1_d)">
<path fill-rule="evenodd" clip-rule="evenodd" d="M68.7313 99.5554C87.4333 87.7512 109.55 86.7513 131.245 91.1205C154.759 95.8559 180.844 102.525 191.131 124.205C201.537 146.135 191.002 171.127 179.28 192.355C168.18 212.455 152.64 232.667 129.82 235.234C108.402 237.645 94.1236 216.879 76.9139 203.874C57.7024 189.357 28.4331 181.2 26.5506 157.2C24.5903 132.208 47.5497 112.925 68.7313 99.5554Z" fill="#77999E"/>
</g>
<path fill-rule="evenodd" clip-rule="evenodd" d="M126.691 83.3432C124.721 80.6735 123.484 77.4841 123.969 74.0411C125.365 64.1208 139.089 67.2843 141.437 72.5047C143.785 77.725 142.571 90.4656 139.02 91.121C137.603 91.3823 134.701 90.2965 131.811 88.2674L132.768 101.795L121.588 101.014L126.691 83.3432Z" fill="#915B3C"/>
<path fill-rule="evenodd" clip-rule="evenodd" d="M112.411 141.703L147.11 199.714L173.125 248.757H178.728L135.141 141.703L112.411 141.703Z" fill="#784931"/>
<path fill-rule="evenodd" clip-rule="evenodd" d="M169.699 246.493C169.176 247.888 168.915 248.931 168.915 249.624C168.915 250.466 169.056 251.695 169.336 253.31C170.313 253.31 179.092 253.31 195.675 253.31C196.359 251.048 195.964 249.826 194.489 249.646C193.015 249.465 191.79 249.302 190.814 249.157L178.572 243.699C178.337 243.594 178.061 243.7 177.956 243.936C177.954 243.94 177.952 243.944 177.951 243.948L177.164 245.857C175.798 246.494 174.689 246.812 173.836 246.812C173.142 246.812 172.185 246.532 170.963 245.972L170.963 245.972C170.494 245.757 169.939 245.963 169.725 246.432C169.715 246.452 169.707 246.472 169.699 246.493Z" fill="#DEDEDE"/>
<path fill-rule="evenodd" clip-rule="evenodd" d="M165.9 240.904L176.706 237.635C171.972 223.482 166.169 207.907 159.298 190.91C152.427 173.913 145.048 157.511 137.161 141.703H106.641C115.41 161.699 124.706 179.868 134.53 196.211C144.353 212.553 154.81 227.451 165.9 240.904Z" fill="#D0C9C0"/>
<path fill-rule="evenodd" clip-rule="evenodd" d="M110.131 141.703C106.856 162.088 100.539 188.133 99.9429 188.937C99.5455 189.473 85.2388 194.267 57.0227 203.319L58.2331 208.26C91.8807 203.405 109.61 199.639 111.421 196.96C114.138 192.943 127.704 161.205 132.958 141.703H110.131Z" fill="#915B3C"/>
<path fill-rule="evenodd" clip-rule="evenodd" d="M66.9412 199.048L69.0731 207.006C94.2396 209.213 109.66 207.618 115.333 202.221C121.007 196.824 127.473 176.651 134.732 141.703H105.63C101.031 170.321 98.4594 185.231 97.9161 186.432C97.3728 187.633 87.0478 191.839 66.9412 199.048Z" fill="#E4DBD0"/>
<path fill-rule="evenodd" clip-rule="evenodd" d="M58.4046 201.26C56.9404 200.988 55.8674 200.912 55.1855 201.032C54.3562 201.179 53.1704 201.53 51.6281 202.087C51.7978 203.049 53.3223 211.695 56.2018 228.025C58.549 228.306 59.6834 227.705 59.605 226.221C59.5266 224.738 59.4743 223.503 59.4481 222.517L62.6969 209.514C62.7594 209.264 62.6073 209.01 62.357 208.948C62.3528 208.947 62.3485 208.946 62.3442 208.945L60.3277 208.501C59.4634 207.267 58.9571 206.23 58.8089 205.39C58.6885 204.707 58.798 203.715 59.1375 202.414L59.1375 202.414C59.2677 201.915 58.9687 201.405 58.4696 201.275C58.4481 201.269 58.4264 201.264 58.4046 201.26Z" fill="#E4E4E4"/>
<path fill-rule="evenodd" clip-rule="evenodd" d="M154.088 137.101L166.858 150.459C170.648 152.235 173.736 154.156 176.124 156.225C176.653 156.911 177.21 158.209 174.63 157.546C172.051 156.884 169.308 156.304 168.79 157.132C168.271 157.96 169.666 159.306 168.724 160.381C168.097 161.098 166.154 158.681 162.897 153.13L149.432 144.545L154.088 137.101ZM88.4952 120.908L96.3357 123.803C83.6466 140.799 76.8729 149.774 76.0145 150.728C74.0833 152.875 74.8371 157.489 75.0063 159.883C71.5262 160.133 73.6502 155.29 69.2356 155.672C65.2062 156.021 61.5277 157.972 58.4406 154.066C58.0611 153.586 57.9386 152.254 59.5579 151.837C63.5924 150.798 69.6554 148.617 70.7483 147.57C72.2386 146.143 78.1542 137.256 88.4952 120.908Z" fill="#915B3C"/>
<path fill-rule="evenodd" clip-rule="evenodd" d="M157.299 138.874C159.211 139.072 161.208 139.746 163.279 140.876C164.298 141.432 164.673 142.708 164.117 143.727C163.794 144.319 163.228 144.694 162.611 144.795C162.978 145.176 163.349 145.557 163.724 145.936L158.691 152.839C144.487 142.328 130.882 133.893 126.473 119.898C124.993 115.201 128.327 100.72 129.051 95.366L134.325 94.2161C138.682 109.597 145.564 124.83 157.299 138.874Z" fill="#A4C6CA"/>
<path fill-rule="evenodd" clip-rule="evenodd" d="M103.058 141.749C117.236 145.886 128.616 147.893 137.198 147.768C138.261 147.753 138.998 143.311 138.734 142.016C134.631 121.849 132.179 107.182 134.489 94.0843C133 94.5559 130.596 94.242 127.277 93.1426C115.738 105.026 108.798 119.771 103.058 141.749Z" fill="#191847"/>
<path fill-rule="evenodd" clip-rule="evenodd" d="M99.9784 143.505C99.5689 142.956 99.435 142.218 99.6866 141.527L100.166 140.211C100.49 139.318 101.357 138.78 102.258 138.831C102.534 138.168 102.788 137.506 103.018 136.845C104.959 131.262 104.367 125.347 105.417 119.827C96.9095 124.833 88.3546 134.557 79.7524 149.001L71.5173 144.914C72.0658 143.741 72.6236 142.586 73.1905 141.447C72.2884 140.701 71.5772 137.884 72.4973 137.596C73.4476 137.298 74.426 137.144 75.4303 137.128C87.6239 114.545 103.741 99.2986 123.781 91.3888L125.381 91.6709L129.011 92.311C123.88 112.403 137.31 160.613 123.23 197.28C109.042 197.921 91.2264 185 70.9205 189.233C74.3225 174.067 91.6292 158.597 99.9784 143.505L99.9784 143.505Z" fill="#B2D7DB"/>
<path fill-rule="evenodd" clip-rule="evenodd" d="M125.599 92.1836L121.94 99.0615L125.753 105.374L120.677 108.911L127.97 128.639L118.343 108.536L123.348 104.95L119.959 99.3681L125.599 92.1836Z" fill="black" fill-opacity="0.1"/>
<path fill-rule="evenodd" clip-rule="evenodd" d="M123.69 134.998C122.674 134.818 121.995 133.85 122.175 132.834C122.354 131.818 123.323 131.139 124.338 131.318C125.354 131.498 126.033 132.466 125.854 133.482C125.675 134.498 124.706 135.177 123.69 134.998ZM124.124 145.98C123.108 145.801 122.43 144.832 122.609 143.816C122.788 142.8 123.757 142.122 124.773 142.301C125.789 142.48 126.467 143.449 126.288 144.465C126.109 145.481 125.14 146.159 124.124 145.98ZM122.719 156.639C121.703 156.46 121.025 155.491 121.204 154.475C121.383 153.459 122.352 152.78 123.368 152.96C124.384 153.139 125.062 154.108 124.883 155.123C124.704 156.139 123.735 156.818 122.719 156.639Z" fill="black" fill-opacity="0.4"/>
<path fill-rule="evenodd" clip-rule="evenodd" d="M134.604 66.6196C133.111 66.386 129.091 66.2254 128.349 66.2255C127.876 66.2255 127.362 66.3287 127.082 65.9137C126.852 65.5738 126.936 64.999 126.867 64.6046C126.788 64.1465 126.675 63.6942 126.56 63.2431C126.235 61.9595 125.742 60.7382 125.054 59.5916C123.761 57.4405 121.868 55.7555 119.477 54.775C116.838 53.6923 113.851 53.4444 111.011 53.664C107.973 53.899 105.222 54.8559 102.354 55.7565C99.6197 56.6147 96.7563 56.9524 93.897 56.5334C91.0162 56.1112 88.8395 54.6215 86.4095 53.2076C83.922 51.7601 81.0792 50.8134 78.1384 51.0311C75.3934 51.2343 72.8633 52.3157 70.5934 53.7602C68.4697 55.1118 66.7173 56.7379 65.7279 59.0266C64.6636 61.4884 64.6646 64.1908 66.4148 66.3665C68.9517 69.5202 73.6612 70.3358 77.5794 70.2547C79.8457 70.2079 82.0716 69.8132 84.2112 69.0952C87.0648 68.1376 89.5307 66.5146 92.2002 65.1978C93.4531 64.5799 94.748 64.0723 96.1054 63.7068C97.4226 63.3519 98.7199 63.1891 99.9125 63.9482C101.174 64.7513 102.305 65.5402 103.748 66.043C105.132 66.5253 106.599 66.7951 108.074 66.7842C110.944 66.763 113.774 65.9099 116.561 65.3384C118.834 64.8724 121.266 64.4081 123.584 64.856C124.551 65.0429 125.964 65.4288 126.313 66.3876C120.434 67.4041 118.125 74.3403 119.783 79.4321C120.677 82.1804 126.054 85.393 128.144 83.9482C129.469 83.0329 128.665 81.8313 128.144 81.038C127.148 79.5189 126.807 77.5675 128.651 76.5099C130.241 75.5977 131.914 77.7639 131.945 77.7615C132.382 77.7286 136.16 75.6905 138.762 72.7164C141.33 72.8616 141.719 71.2465 141.106 69.9257C140.493 68.6048 136.667 66.9425 134.604 66.6196Z" fill="#191847"/>
<defs>
<filter id="filter0_d" x="6" y="0" width="275" height="275" filterUnits="userSpaceOnUse" color-interpolation-filters="sRGB">
<feFlood flood-opacity="0" result="BackgroundImageFix"/>
<feColorMatrix in="SourceAlpha" type="matrix" values="0 0 0 0 0 0 0 0 0 0 0 0 0 0 0 0 0 0 127 0"/>
<feOffset/>
<feGaussianBlur stdDeviation="2"/>
<feColorMatrix type="matrix" values="0 0 0 0 0 0 0 0 0 0 0 0 0 0 0 0 0 0 0.21 0"/>
<feBlend mode="normal" in2="BackgroundImageFix" result="effect1_dropShadow"/>
<feBlend mode="normal" in="SourceGraphic" in2="effect1_dropShadow" result="shape"/>
</filter>
<filter id="filter1_d" x="0.154541" y="38.4582" width="236.514" height="235.693" filterUnits="userSpaceOnUse" color-interpolation-filters="sRGB">
<feFlood flood-opacity="0" result="BackgroundImageFix"/>
<feColorMatrix in="SourceAlpha" type="matrix" values="0 0 0 0 0 0 0 0 0 0 0 0 0 0 0 0 0 0 127 0"/>
<feOffset/>
<feGaussianBlur stdDeviation="5"/>
<feColorMatrix type="matrix" values="0 0 0 0 0 0 0 0 0 0 0 0 0 0 0 0 0 0 0.1 0"/>
<feBlend mode="normal" in2="BackgroundImageFix" result="effect1_dropShadow"/>
<feBlend mode="normal" in="SourceGraphic" in2="effect1_dropShadow" result="shape"/>
</filter>
</defs>
</svg>
