<svg width="265" height="247" viewBox="0 0 265 247" fill="none" xmlns="http://www.w3.org/2000/svg">
<path fill-rule="evenodd" clip-rule="evenodd" d="M148.727 83.3042C159.683 101.176 160.893 121.679 157.23 141.532C153.261 163.048 147.574 186.848 128.064 195.305C108.33 203.86 85.5333 192.899 66.1315 181.023C47.7607 169.778 29.228 154.42 26.5873 133.19C24.1089 113.264 42.735 101.071 54.2858 85.788C67.1802 68.7276 74.1726 42.0552 95.8994 41.4838C118.526 40.8887 136.319 63.0627 148.727 83.3042Z" fill="#9DC0C6"/>
<path fill-rule="evenodd" clip-rule="evenodd" d="M83.8614 58.3239C105.209 44.8503 130.453 43.7089 155.217 48.6961C182.056 54.1013 211.83 61.7133 223.573 86.4603C235.45 111.492 223.426 140.018 210.045 164.249C197.376 187.191 179.637 210.261 153.59 213.192C129.143 215.943 112.845 192.24 93.2013 177.397C71.2727 160.827 37.8637 151.515 35.715 124.122C33.4774 95.5943 59.684 73.584 83.8614 58.3239Z" fill="#D1EDF3"/>
<path fill-rule="evenodd" clip-rule="evenodd" d="M118.319 77.7825C115.747 76.0266 113.671 73.5864 113.053 70.3942C111.273 61.1967 124.483 59.7855 128.169 63.6805C131.856 67.5754 134.659 79.2099 131.691 80.8781C130.507 81.5434 127.586 81.4735 124.389 80.5656L129.369 92.2308L119.155 94.9674L118.319 77.7825Z" fill="#956349"/>
<path fill-rule="evenodd" clip-rule="evenodd" d="M122.806 59.7996C121.297 59.7517 119.233 60.1515 118.407 60.4766C118.583 59.1955 118.432 57.8614 117.94 56.6546C117.463 55.4819 116.639 54.5953 115.843 53.6481C115.476 53.2116 115.078 52.786 114.582 52.5099C114.076 52.2286 113.499 52.108 112.934 52.1283C112.355 52.1491 111.788 52.3123 111.272 52.5724C111.044 52.6874 110.856 52.855 110.636 52.9793C110.41 53.1067 110.252 52.9877 110.035 52.8837C109.513 52.6329 108.843 52.6197 108.288 52.6992C107.667 52.7884 107.066 53.0459 106.544 53.3961C106.036 53.7371 105.582 54.1913 105.298 54.7517C105.172 55.0011 105.07 55.2739 105.032 55.5553C105.016 55.6707 105.025 55.7341 104.931 55.8001C104.844 55.8612 104.731 55.8925 104.64 55.9527C103.763 56.5348 103.136 57.4941 102.942 58.5625C102.828 59.1857 102.965 60.1928 103.291 61.2753C103.618 62.3577 105.375 64.9393 106.584 65.729C107.662 66.4338 109.046 66.7187 110.296 66.671C109.752 67.766 109.528 69.012 109.444 70.2405C109.354 71.575 109.436 72.9145 109.687 74.2344C109.926 75.4883 110.266 76.791 110.879 77.9165C111.453 78.9689 112.282 79.7362 113.41 80.0617C113.927 80.2107 114.46 80.284 114.991 80.3392C115.514 80.3936 116.037 80.4426 116.561 80.4112C117.554 80.3519 118.629 80.0284 119.155 79.092C119.344 78.7545 119.541 78.3413 119.644 77.9634C119.681 77.8275 119.702 77.7396 119.588 77.647C119.451 77.5361 119.262 77.4739 119.105 77.4006C118.21 76.9826 117.538 76.2844 117.163 75.3412C116.783 74.3843 116.709 73.0373 117.563 72.3465C118.616 71.4937 120.097 71.7516 121.313 72.0362C121.342 70.3344 121.888 68.6625 123.148 67.5476C124.543 66.3142 126.364 65.7255 127.834 64.5941C128.217 64.2993 128.601 63.978 128.821 63.5276C128.912 63.3393 129.015 63.0995 129.014 62.8833C129.012 62.5994 128.78 62.4232 128.591 62.252C127.59 61.3447 124.314 59.8474 122.806 59.7996Z" fill="#191847"/>
<path fill-rule="evenodd" clip-rule="evenodd" d="M121.485 130.531L137.457 186.366L149.111 227.519H157.611L145.227 130.531H121.485Z" fill="#CAE1E4"/>
<path fill-rule="evenodd" clip-rule="evenodd" d="M117.213 130.531C116.844 159.309 115.584 175.005 115.196 177.62C114.808 180.234 108.943 196.867 97.6002 227.519H106.405C120.845 198.114 128.906 181.481 130.588 177.62C132.269 173.758 137.459 158.062 145.275 130.531H117.213Z" fill="#DCF2F5"/>
<path fill-rule="evenodd" clip-rule="evenodd" d="M96.8132 235.486L97.2537 226.235H106.505C110.892 229.319 116.62 231.815 123.687 233.724V235.486H106.946L101.219 234.605V235.486H96.8132Z" fill="#191847"/>
<path fill-rule="evenodd" clip-rule="evenodd" d="M147.918 235.486L148.359 226.235H157.611C161.997 229.319 167.725 231.815 174.792 233.724V235.486H158.051L152.324 234.605V235.486H147.918Z" fill="#191847"/>
<path fill-rule="evenodd" clip-rule="evenodd" d="M157.395 118.9L172.44 127.639C176.337 128.257 179.637 129.19 182.339 130.437C182.996 130.918 183.838 131.945 181.327 132.017C178.815 132.089 176.177 132.277 175.922 133.159C175.667 134.041 177.28 134.893 176.705 136.107C176.321 136.917 173.933 135.24 169.54 131.078L155.102 126.826L157.395 118.9ZM97.2462 124.576L105.127 124.332C100.018 143.595 97.2565 153.793 96.842 154.926C95.9093 157.475 98.196 161.225 99.1883 163.248C96.2316 164.692 96.382 159.729 92.6545 161.618C89.2522 163.341 86.7218 166.336 82.6436 164.025C82.1423 163.741 81.5653 162.624 82.835 161.691C85.9985 159.365 90.5339 155.33 91.121 154.034C91.9216 152.266 93.9633 142.447 97.2462 124.576Z" fill="#B28B67"/>
<path fill-rule="evenodd" clip-rule="evenodd" d="M123.868 87.7401L128.353 85.3336C137.644 100.251 150.016 114.087 168.425 124.371L165.65 131.906C150.042 126.109 135.516 122.029 127.889 110.545C125.329 106.691 124.599 92.7593 123.868 87.7401Z" fill="#C5CFD6"/>
<path fill-rule="evenodd" clip-rule="evenodd" d="M115.481 135.812C129.375 134.846 140.111 132.953 147.69 130.133C148.629 129.784 148.497 128.14 147.853 127.122C137.833 111.271 130.398 97.2098 128.306 85.342C127.134 86.2138 124.9 86.7073 121.606 86.8224C115.122 100.576 113.625 115.309 115.481 135.812Z" fill="#A2C4F1"/>
<path fill-rule="evenodd" clip-rule="evenodd" d="M119.277 86.176L122.878 85.5412C124.581 90.2999 138.941 156.276 150.937 176.571L106.767 184.36C104.214 164.28 107.55 139.03 111.673 117.666C105.993 125.021 101.937 136.5 99.5033 152.105L90.8572 151.451C92.3578 123.989 101.587 102.372 118.545 86.5985C118.57 86.4959 118.594 86.3938 118.619 86.2922L118.937 86.236C119.041 86.1404 119.146 86.045 119.25 85.9499L119.277 86.176Z" fill="#F0F2F5"/>
</svg>
