<?xml version="1.0" encoding="UTF-8" standalone="no"?>
<svg
   xmlns:dc="http://purl.org/dc/elements/1.1/"
   xmlns:cc="http://creativecommons.org/ns#"
   xmlns:rdf="http://www.w3.org/1999/02/22-rdf-syntax-ns#"
   xmlns:svg="http://www.w3.org/2000/svg"
   xmlns="http://www.w3.org/2000/svg"
   xmlns:sodipodi="http://sodipodi.sourceforge.net/DTD/sodipodi-0.dtd"
   xmlns:inkscape="http://www.inkscape.org/namespaces/inkscape"
   width="260"
   height="220"
   viewBox="0 0 260 220"
   version="1.1"
   id="svg99"
   sodipodi:docname="DoctorLogo2.svg"
   style="fill:none"
   inkscape:version="0.92.3 (2405546, 2018-03-11)">
  <metadata
     id="metadata103">
    <rdf:RDF>
      <cc:Work
         rdf:about="">
        <dc:format>image/svg+xml</dc:format>
        <dc:type
           rdf:resource="http://purl.org/dc/dcmitype/StillImage" />
      </cc:Work>
    </rdf:RDF>
  </metadata>
  <sodipodi:namedview
     pagecolor="#ffffff"
     bordercolor="#666666"
     borderopacity="1"
     objecttolerance="10"
     gridtolerance="10"
     guidetolerance="10"
     inkscape:pageopacity="0"
     inkscape:pageshadow="2"
     inkscape:window-width="1853"
     inkscape:window-height="1016"
     id="namedview101"
     showgrid="false"
     inkscape:zoom="1.0172414"
     inkscape:cx="135.01695"
     inkscape:cy="106.44915"
     inkscape:window-x="67"
     inkscape:window-y="27"
     inkscape:window-maximized="1"
     inkscape:current-layer="svg99" />
  <g
     id="g4"
     style="filter:url(#filter0_d)"
     transform="translate(-0.98305082,-2.4491525)">
    <path
       d="m 119.958,18.0044 c 17.517,-0.2858 31.274,13.5249 45.286,24.0402 13.773,10.3359 33.754,19.0592 35.028,36.2307 1.308,17.6233 -25.33,25.4587 -29.171,42.7077 -4.616,20.728 22.809,49.039 5.885,61.868 -16.754,12.7 -37.455,-15.425 -57.028,-23.099 -10.762,-4.219 -20.4165,-9.385 -31.7415,-11.702 -24.6091,-5.034 -55.58,8.523 -72.8699,-9.696 C -0.737239,121.406 1.58739,89.6977 14.1353,69.9885 26.4384,50.6638 55.1692,53.6062 75.7323,43.5047 91.389,35.8136 102.516,18.2889 119.958,18.0044 Z"
       id="path2"
       inkscape:connector-curvature="0"
       style="clip-rule:evenodd;fill:#cae1e4;fill-rule:evenodd" />
  </g>
  <g
     id="g8"
     style="filter:url(#filter1_d)"
     transform="translate(-0.98305082,-2.4491525)">
    <path
       d="m 220.059,70.4888 c 11.288,12.4672 33.277,17.5489 35.371,34.2262 2.095,16.679 -15.22,28.795 -25.821,41.818 -8.611,10.579 -18.715,18.618 -29.821,26.539 -13.977,9.97 -26.087,24.819 -43.25,25.579 -18.682,0.828 -39.841,-5.973 -50.397,-21.428 -10.3805,-15.197 1.258,-35.558 -0.995,-53.814 -2.244,-18.18 -18.261,-35.001 -12.0954,-52.2367 6.3,-17.6114 25.6894,-26.6788 42.9234,-33.9417 16.684,-7.0311 35.771,-12.993 52.626,-6.3265 16.061,6.3529 19.863,26.7771 31.459,39.5847 z"
       id="path6"
       inkscape:connector-curvature="0"
       style="clip-rule:evenodd;fill:#a0c4ca;fill-rule:evenodd" />
  </g>
  <path
     d="m 217.55495,108.82685 c 0.987,-0.4 2.176,0.32 1.521,1.594 -0.701,1.364 -2.765,1.155 -3.926,1 0.117,0.006 0.624,-1.26 0.773,-1.443 0.437,-0.541 1.026,-0.904 1.632,-1.151 z m -13.401,24.784 c -0.362,0.27 -0.03,0.026 0,0 z m 13.821,-18.048 c 0.513,0.52 0.458,1.335 -0.055,1.834 -0.611,0.595 -1.604,0.463 -2.34,0.318 -0.333,-0.065 -2.11,-0.415 -1.653,-0.684 -0.034,0.01 -0.106,0.035 -0.183,0.07 -0.055,0.15 -0.112,0.3 -0.171,0.448 0.01,0.008 0.018,0.016 0.029,0.024 -0.012,-0.007 -0.02,-0.015 -0.03,-0.022 -0.586,1.483 -1.348,2.873 -2.29,4.149 0.313,-0.095 0.635,-0.157 0.955,-0.165 0.948,-0.025 2.837,0.97 1.655,2.193 -1.134,1.173 -2.556,-0.373 -3.676,-0.687 -1.272,1.535 -2.651,2.989 -4.083,4.384 0.075,0.034 0.138,0.097 0.169,0.186 0.54,-0.223 1.114,-0.564 1.599,-0.62 0.7,-0.081 2.112,-0.023 2.562,0.691 0.554,0.877 -0.195,1.459 -0.961,1.533 -1.112,0.106 -2.48,-0.621 -3.488,-1.121 -0.123,0.009 -0.25,-0.042 -0.317,-0.154 -0.023,-0.011 -0.045,-0.021 -0.067,-0.031 -1.447,1.385 -2.939,2.714 -4.419,4.012 0.014,0.001 0.028,0.001 0.043,0.002 0.373,-0.207 0.767,-0.367 1.182,-0.429 0.961,-0.142 2.062,-0.024 2.747,0.786 0.683,0.807 0.823,2.102 -0.042,2.829 -1.732,1.457 -3.663,-2.505 -4.438,-2.746 -1.502,1.304 -3.073,2.504 -4.664,3.674 0.171,-0.036 0.345,-0.058 0.522,-0.056 1.442,0.008 4.602,2.253 2.662,3.911 -1.69,1.445 -3.142,-1.849 -4.262,-3.068 -1.498,1.089 -3.002,2.169 -4.472,3.3 0.752,-0.128 1.462,-0.082 2.22,0.258 0.784,0.351 2.026,1.152 1.394,2.272 -0.643,1.139 -2.159,0.423 -2.939,-0.046 -0.426,-0.255 -1.25,-1.052 -2.006,-1.432 -2.359,1.936 -4.454,4.122 -6.143,6.783 -1.054,1.662 -1.909,3.466 -2.572,5.345 -0.424,1.198 -1.222,3.202 -1.267,4.818 -0.236,-3.269 1.171,-7.012 2.555,-9.76 1.273,-2.527 3.012,-4.678 4.986,-6.569 -0.297,-1.477 -3.81,-3.942 -1.45,-5.027 1.253,-0.573 2.345,0.723 2.478,1.985 0.091,0.866 -0.287,1.901 -0.657,2.693 0.619,-0.575 1.257,-1.127 1.911,-1.657 0.905,-0.731 1.826,-1.437 2.754,-2.132 -1.255,-1.563 -2.169,-5.739 -0.227,-6.195 2.867,-0.669 0.976,4.686 0.678,5.695 -0.055,-0.002 -0.096,-0.025 -0.124,-0.066 0.006,0.096 0.014,0.199 0.025,0.303 1.777,-1.322 3.574,-2.613 5.323,-3.974 -0.132,-0.13 -0.316,-0.59 -0.472,-0.841 -0.352,-0.567 -0.684,-1.155 -0.905,-1.797 -0.349,-1.015 -0.624,-2.602 0.619,-3.041 1.352,-0.479 1.788,1.331 1.692,2.371 -0.067,0.72 -0.319,1.383 -0.485,2.077 -0.052,0.217 -0.039,1.22 -0.274,0.763 -0.003,0.159 -0.013,0.273 -0.027,0.353 0.314,-0.246 0.626,-0.495 0.937,-0.746 -0.009,-0.037 -0.015,-0.077 -0.013,-0.123 0.017,-0.311 0.319,-0.399 0.513,-0.286 0.411,-0.339 0.819,-0.684 1.221,-1.037 0.851,-0.747 1.717,-1.517 2.578,-2.306 -0.152,-0.173 -0.063,-0.38 -0.203,-0.561 -0.14,-0.181 -0.44,-0.305 -0.608,-0.478 -0.425,-0.433 -0.752,-1.033 -0.974,-1.613 -0.367,-0.957 -0.766,-2.926 0.618,-3.213 1.426,-0.296 1.941,1.613 1.913,2.769 -0.005,0.224 -0.363,2.207 -0.555,2.921 1.595,-1.467 3.173,-2.997 4.621,-4.571 -0.386,-0.046 -1.395,-1.015 -1.593,-1.271 -0.483,-0.625 -1.215,-1.969 -0.201,-2.528 0.902,-0.495 1.855,0.468 2.131,1.334 0.045,0.142 0.126,1.431 0.084,2.001 0.602,-0.669 1.179,-1.344 1.722,-2.026 0.361,-0.453 0.704,-0.922 1.029,-1.403 -0.062,-0.047 -0.117,-0.123 -0.166,-0.216 -1.379,-0.41 -2.932,-2.959 -1.198,-3.598 0.825,-0.304 1.596,0.593 1.914,1.293 0.065,0.143 0.124,0.834 0.174,1.379 0.957,-1.606 1.739,-3.332 2.382,-5.119 -0.119,-0.046 -0.212,-0.157 -0.208,-0.332 -0.64,-0.492 -1.144,-0.898 -1.538,-1.753 -0.246,-0.531 -0.663,-1.729 0.235,-1.911 1.168,-0.237 1.69,1.696 1.69,2.62 0,0.107 -0.032,0.416 -0.064,0.698 0.039,-0.001 0.079,0.004 0.117,0.015 0.375,-1.109 0.7,-2.238 0.982,-3.374 -0.596,-0.281 -0.349,-3.774 0.112,-4.226 1.032,-1.01 1.517,0.665 1.382,1.507 -0.159,0.993 -0.673,1.856 -1.257,2.609 -0.063,0.079 -0.047,0.077 -0.049,-0.044 -0.014,0.058 -0.036,0.1 -0.067,0.128 -0.027,0.529 -0.031,1.073 -0.103,1.536 -0.205,1.325 -0.485,2.651 -0.829,3.944 -0.084,0.314 -0.174,0.625 -0.272,0.933 0.543,-0.4 1.253,-0.731 1.527,-0.828 0.713,-0.253 1.796,-0.492 2.415,0.136 z m -38.897,42.42 c -0.011,0.432 0.047,0.834 0.207,1.175 -0.104,-0.381 -0.171,-0.774 -0.207,-1.175 z"
     id="path10"
     inkscape:connector-curvature="0"
     style="clip-rule:evenodd;opacity:0.2;fill:#c6d6d8;fill-rule:evenodd" />
  <g
     id="g32"
     style="filter:url(#filter2_d)"
     transform="translate(-0.98305082,-2.4491525)">
    <path
       d="m 84.3513,40.6079 c -2.145,-1.4594 -3.8792,-3.4837 -4.4015,-6.1265 -1.5048,-7.6147 9.4842,-8.7487 12.5623,-5.5166 3.0781,3.2321 5.4412,12.8658 2.9748,14.2386 -0.9836,0.5474 -3.4144,0.4821 -6.0771,-0.2772 l 4.1742,9.6646 -8.4923,2.2383 z"
       id="path12"
       inkscape:connector-curvature="0"
       style="clip-rule:evenodd;fill:#956349;fill-rule:evenodd" />
    <path
       d="m 88.0636,25.7604 c -1.2575,-0.0422 -2.9774,0.2851 -3.6656,0.5527 0.1447,-1.0598 0.0163,-2.1642 -0.3955,-3.1637 -0.4001,-0.9712 -1.0885,-1.7064 -1.7537,-2.4915 -0.3066,-0.3619 -0.6385,-0.7148 -1.0527,-0.9441 -0.422,-0.2337 -0.9031,-0.3345 -1.3745,-0.3187 -0.4825,0.0162 -0.9552,0.1503 -1.3845,0.3646 -0.19,0.0949 -0.3459,0.2332 -0.5296,0.3357 -0.1881,0.105 -0.32,0.0063 -0.5008,-0.0802 -0.4356,-0.2084 -0.9944,-0.2205 -1.4562,-0.1557 -0.5181,0.0727 -1.0186,0.2848 -1.4531,0.5738 -0.4228,0.2812 -0.8005,0.6563 -1.0356,1.1196 -0.1047,0.2062 -0.1893,0.4318 -0.2208,0.6645 -0.0129,0.0955 -0.0051,0.148 -0.0836,0.2025 -0.0726,0.0504 -0.1665,0.0761 -0.242,0.1257 -0.7304,0.4802 -1.251,1.273 -1.4115,2.1568 -0.0937,0.5156 0.0222,1.3492 0.2962,2.2455 0.274,0.8963 1.7435,3.0358 2.7522,3.6913 0.9003,0.5851 2.0546,0.8233 3.0959,0.786 -0.4518,0.9052 -0.6362,1.9359 -0.7034,2.9524 -0.073,1.1042 -0.0026,2.2128 0.2092,3.3055 0.2012,1.0381 0.4869,2.1167 1.0001,3.0491 0.48,0.872 1.1726,1.5084 2.1136,1.7796 0.4311,0.1243 0.8753,0.1858 1.3178,0.2324 0.4362,0.0459 0.8725,0.0874 1.3095,0.0623 0.8271,-0.0474 1.7226,-0.3132 2.1592,-1.0872 0.1574,-0.279 0.321,-0.6205 0.4062,-0.9331 0.0306,-0.1124 0.0477,-0.1851 -0.0475,-0.2619 -0.1141,-0.092 -0.2722,-0.1438 -0.4031,-0.2048 -0.7467,-0.3475 -1.3078,-0.9264 -1.622,-1.7075 -0.3187,-0.7926 -0.3827,-1.9074 0.3276,-2.4776 0.8768,-0.7039 2.1118,-0.4879 3.1258,-0.2503 0.0206,-1.4083 0.4732,-2.7909 1.5218,-3.7113 1.1601,-1.0183 2.6774,-1.5023 3.9003,-2.436 0.3186,-0.2434 0.6385,-0.5085 0.8206,-0.8809 0.076,-0.1556 0.161,-0.3539 0.1597,-0.5328 -0.0018,-0.235 -0.1957,-0.3812 -0.3534,-0.5232 -0.836,-0.7525 -3.569,-1.9973 -4.8266,-2.0395 z"
       id="path14"
       inkscape:connector-curvature="0"
       style="clip-rule:evenodd;fill:#191847;fill-rule:evenodd" />
    <path
       d="m 86.9776,84.2305 13.3334,46.1605 9.728,34.022 h 7.095 L 106.797,84.2305 Z"
       id="path16"
       inkscape:connector-curvature="0"
       style="clip-rule:evenodd;fill:#cae1e4;fill-rule:evenodd" />
    <path
       d="m 83.4118,84.2305 c -0.3084,23.7915 -1.36,36.7675 -1.6838,38.9295 -0.3238,2.162 -5.2199,15.913 -14.6883,41.253 h 7.3502 c 12.0541,-24.31 18.7829,-38.061 20.1866,-41.253 1.4037,-3.192 5.7355,-16.169 12.2605,-38.9295 z"
       id="path18"
       inkscape:connector-curvature="0"
       style="clip-rule:evenodd;fill:#dcf2f5;fill-rule:evenodd" />
    <path
       d="m 66.3827,171 0.3678,-7.649 h 7.7231 c 3.662,2.55 8.443,4.614 14.3428,6.192 V 171 H 74.8413 l -4.7809,-0.728 V 171 Z"
       id="path20"
       inkscape:connector-curvature="0"
       style="clip-rule:evenodd;fill:#191847;fill-rule:evenodd" />
    <path
       d="m 109.043,171 0.368,-7.649 h 7.723 c 3.662,2.55 8.443,4.614 14.343,6.192 V 171 h -13.975 l -4.781,-0.728 V 171 Z"
       id="path22"
       inkscape:connector-curvature="0"
       style="clip-rule:evenodd;fill:#191847;fill-rule:evenodd" />
    <path
       d="m 116.923,74.606 12.567,7.2637 c 3.253,0.5174 6.008,1.2946 8.264,2.3315 0.55,0.3999 1.254,1.2521 -0.842,1.3086 -2.096,0.0565 -4.297,0.2091 -4.509,0.9398 -0.212,0.7307 1.136,1.4394 0.657,2.4452 -0.319,0.6706 -2.314,-0.7223 -5.986,-4.1786 l -12.054,-3.543 z m -50.1887,4.628 6.5762,-0.1925 c -4.2382,15.9613 -6.5295,24.4115 -6.8739,25.3495 -0.775,2.112 1.1382,5.224 1.9689,6.902 -2.4656,1.194 -2.3465,-2.921 -5.4548,-1.36 -2.837,1.425 -4.9449,3.903 -8.3512,1.983 -0.4188,-0.236 -0.9018,-1.162 0.1567,-1.935 2.637,-1.924 6.4166,-5.263 6.9049,-6.336 0.6658,-1.464 2.3569,-9.6012 5.0732,-24.411 z"
       id="path24"
       inkscape:connector-curvature="0"
       style="clip-rule:evenodd;fill:#b28b67;fill-rule:evenodd" />
    <path
       d="m 88.9695,48.8067 3.7352,-1.9859 c 7.7623,12.3576 18.0923,23.8248 33.4483,32.3595 l -2.303,6.2322 C 110.835,80.5946 98.7226,77.1994 92.3506,67.6857 90.212,64.4927 89.5858,52.9616 88.9695,48.8067 Z"
       id="path26"
       inkscape:connector-curvature="0"
       style="clip-rule:evenodd;fill:#c5cfd6;fill-rule:evenodd" />
    <path
       d="m 82.0162,88.5957 c 11.5785,-0.7814 20.5238,-2.3338 26.8368,-4.6572 0.782,-0.2879 0.67,-1.6479 0.132,-2.4908 -8.372,-13.1264 -14.5864,-24.7692 -16.3459,-34.5903 -0.9758,0.7197 -2.8365,1.1251 -5.5822,1.2162 -5.3857,11.3702 -6.6143,23.5572 -5.0407,40.5221 z"
       id="path28"
       inkscape:connector-curvature="0"
       style="clip-rule:evenodd;fill:#a2c4f1;fill-rule:evenodd" />
    <path
       d="m 85.0662,47.543 2.9994,-0.5206 c 1.4256,3.9386 13.4764,58.5316 23.4974,75.3356 l -36.7927,6.386 c -2.1535,-16.613 0.5936,-37.4954 4.0011,-55.1622 -4.723,6.0762 -8.0881,15.567 -10.0952,28.4722 l -7.205,-0.552 c 1.2146,-22.7148 8.8765,-40.5848 22.9856,-53.6105 0.0204,-0.0848 0.0407,-0.1693 0.0609,-0.2533 l 0.2654,-0.0461 c 0.0866,-0.0789 0.1734,-0.1577 0.2605,-0.2362 z"
       id="path30"
       inkscape:connector-curvature="0"
       style="clip-rule:evenodd;fill:#f0f2f5;fill-rule:evenodd" />
  </g>
  <path
     d="m 10.948149,115.82685 c -0.9869998,-0.4 -2.1759798,0.32 -1.5209998,1.594 0.7015998,1.364 2.7651998,1.155 3.9267998,1 -0.1173,0.006 -0.6245,-1.26 -0.773,-1.443 -0.4377,-0.541 -1.026,-0.904 -1.6328,-1.151 z m 13.4016,24.784 c 0.3617,0.27 0.0299,0.026 0,0 z m -13.8213,-18.048 c -0.5134,0.52 -0.4577,1.335 0.0555,1.834 0.6111,0.595 1.6033,0.463 2.3393,0.318 0.333,-0.065 2.1106,-0.415 1.6536,-0.684 0.034,0.01 0.1056,0.035 0.1831,0.07 0.055,0.15 0.1119,0.3 0.1705,0.448 -0.0099,0.008 -0.0182,0.016 -0.0288,0.024 0.0117,-0.007 0.0196,-0.015 0.0298,-0.022 0.5865,1.483 1.3482,2.873 2.2904,4.149 -0.3137,-0.095 -0.635,-0.157 -0.9552,-0.165 -0.9485,-0.025 -2.8374,0.97 -1.6551,2.193 1.1336,1.173 2.5561,-0.373 3.6757,-0.687 1.2726,1.535 2.6515,2.989 4.0835,4.384 -0.0755,0.034 -0.1386,0.097 -0.1693,0.186 -0.5403,-0.223 -1.1144,-0.564 -1.5992,-0.62 -0.6996,-0.081 -2.1114,-0.023 -2.5615,0.691 -0.5537,0.877 0.1943,1.459 0.9611,1.533 1.1118,0.106 2.4794,-0.621 3.4881,-1.121 0.1222,0.009 0.2492,-0.042 0.3169,-0.154 0.0223,-0.011 0.0447,-0.021 0.0664,-0.031 1.4474,1.385 2.9391,2.714 4.4194,4.012 -0.0142,0.001 -0.0285,0.001 -0.0434,0.002 -0.3728,-0.207 -0.7664,-0.367 -1.1816,-0.429 -0.9607,-0.142 -2.0618,-0.024 -2.7474,0.786 -0.683,0.807 -0.8224,2.102 0.0426,2.829 1.7316,1.457 3.663,-2.505 4.4374,-2.746 1.5027,1.304 3.0736,2.504 4.6642,3.674 -0.1708,-0.036 -0.3444,-0.058 -0.5215,-0.056 -1.4424,0.008 -4.6023,2.253 -2.6627,3.911 1.6902,1.445 3.1424,-1.849 4.2627,-3.068 1.4975,1.089 3.0016,2.169 4.4718,3.3 -0.7523,-0.128 -1.462,-0.082 -2.22,0.258 -0.7842,0.351 -2.0262,1.152 -1.3942,2.272 0.6428,1.139 2.1591,0.423 2.9391,-0.046 0.4254,-0.255 1.2495,-1.052 2.0055,-1.432 2.3593,1.936 4.4546,4.122 6.1429,6.783 1.0541,1.662 1.9091,3.466 2.5727,5.345 0.4235,1.198 1.2217,3.202 1.2666,4.818 0.2358,-3.269 -1.1703,-7.012 -2.5547,-9.76 -1.273,-2.527 -3.0126,-4.678 -4.9864,-6.569 0.2973,-1.477 3.8107,-3.942 1.4507,-5.027 -1.253,-0.573 -2.3452,0.723 -2.4784,1.985 -0.0914,0.866 0.287,1.901 0.6574,2.693 -0.6189,-0.575 -1.2576,-1.127 -1.9118,-1.657 -0.9042,-0.731 -1.8255,-1.437 -2.7539,-2.132 1.255,-1.563 2.169,-5.739 0.2274,-6.195 -2.8667,-0.669 -0.9756,4.686 -0.6779,5.695 0.0552,-0.002 0.0961,-0.025 0.1237,-0.066 -0.006,0.096 -0.0138,0.199 -0.0254,0.303 -1.776,-1.322 -3.5732,-2.613 -5.3227,-3.974 0.132,-0.13 0.3161,-0.59 0.472,-0.841 0.3518,-0.567 0.6838,-1.155 0.9049,-1.797 0.3491,-1.015 0.6241,-2.602 -0.619,-3.041 -1.3521,-0.479 -1.7879,1.331 -1.6913,2.371 0.0668,0.72 0.3184,1.383 0.4849,2.077 0.052,0.217 0.0383,1.22 0.2738,0.763 0.0028,0.159 0.0125,0.273 0.0272,0.353 -0.3142,-0.246 -0.6266,-0.495 -0.9373,-0.746 0.0094,-0.037 0.0152,-0.077 0.0128,-0.123 -0.0163,-0.311 -0.3188,-0.399 -0.5133,-0.286 -0.4108,-0.339 -0.8185,-0.684 -1.2203,-1.037 -0.8517,-0.747 -1.7169,-1.517 -2.5786,-2.306 0.152,-0.173 0.0636,-0.38 0.2038,-0.561 0.14,-0.181 0.4392,-0.305 0.6079,-0.478 0.4243,-0.433 0.7517,-1.033 0.9737,-1.613 0.3665,-0.957 0.7659,-2.926 -0.6177,-3.213 -1.4262,-0.296 -1.9411,1.613 -1.9135,2.769 0.0052,0.224 0.363,2.207 0.5552,2.921 -1.5951,-1.467 -3.1729,-2.997 -4.6213,-4.571 0.3861,-0.046 1.3955,-1.015 1.5934,-1.271 0.4831,-0.625 1.2154,-1.969 0.2006,-2.528 -0.9021,-0.495 -1.8543,0.468 -2.1307,1.334 -0.0454,0.142 -0.1257,1.431 -0.0844,2.001 -0.6013,-0.669 -1.1787,-1.344 -1.7213,-2.026 -0.3617,-0.453 -0.7042,-0.922 -1.0291,-1.403 0.0617,-0.047 0.1165,-0.123 0.166,-0.216 1.3792,-0.41 2.9318,-2.959 1.1982,-3.598 -0.8254,-0.304 -1.596,0.593 -1.9142,1.293 -0.0652,0.143 -0.1242,0.834 -0.1739,1.379 -0.9572,-1.606 -1.7392,-3.332 -2.3825,-5.119 0.1191,-0.046 0.2125,-0.157 0.2086,-0.332 0.6398,-0.492 1.1433,-0.898 1.538,-1.753 0.2453,-0.531 0.6624,-1.729 -0.235,-1.911 -1.1679,-0.237 -1.6902,1.696 -1.69,2.62 -10e-5,0.107 0.0317,0.416 0.0641,0.698 -0.0399,-0.001 -0.0795,0.004 -0.1177,0.015 -0.3753,-1.109 -0.6996,-2.238 -0.9816,-3.374 0.5958,-0.281 0.3492,-3.774 -0.1123,-4.226 -1.0317,-1.01 -1.5172,0.665 -1.3822,1.507 0.1594,0.993 0.6735,1.856 1.2576,2.609 0.0625,0.079 0.0467,0.077 0.0486,-0.044 0.0137,0.058 0.0364,0.1 0.0668,0.128 0.0275,0.529 0.0317,1.073 0.1032,1.536 0.2048,1.325 0.4855,2.651 0.8291,3.944 0.0835,0.314 0.1742,0.625 0.2718,0.933 -0.5424,-0.4 -1.2525,-0.731 -1.5272,-0.828 -0.7128,-0.253 -1.7959,-0.492 -2.4147,0.136 z m 38.8973,42.42 c 0.0105,0.432 -0.0475,0.834 -0.2069,1.175 0.1038,-0.381 0.1709,-0.774 0.2069,-1.175 z"
     id="path34"
     inkscape:connector-curvature="0"
     style="clip-rule:evenodd;opacity:0.2;fill:#828d8e;fill-rule:evenodd" />
  <path
     d="m 126.94795,36.827248 c -0.987,-0.4008 -2.176,0.3197 -1.521,1.5933 0.702,1.3639 2.765,1.1557 3.927,0.9999 -0.117,0.0061 -0.625,-1.2595 -0.773,-1.4429 -0.438,-0.541 -1.026,-0.9033 -1.633,-1.1503 z m 13.402,24.7833 c 0.361,0.2704 0.03,0.0258 0,0 z m -13.822,-18.0482 c -0.513,0.5207 -0.457,1.3353 0.056,1.8348 0.611,0.5946 1.603,0.4624 2.339,0.3177 0.333,-0.0654 2.111,-0.4151 1.654,-0.6839 0.034,0.0097 0.105,0.0345 0.183,0.0703 0.055,0.15 0.112,0.2992 0.17,0.4476 -0.009,0.0078 -0.018,0.0159 -0.028,0.0237 0.011,-0.0071 0.019,-0.0142 0.029,-0.0212 0.587,1.483 1.349,2.8729 2.291,4.1482 -0.314,-0.0943 -0.635,-0.1567 -0.955,-0.1651 -0.949,-0.0251 -2.838,0.9701 -1.655,2.1937 1.133,1.1729 2.556,-0.373 3.675,-0.6869 1.273,1.5351 2.652,2.9889 4.084,4.3832 -0.076,0.0349 -0.139,0.0971 -0.169,0.1867 -0.541,-0.2231 -1.115,-0.564 -1.6,-0.6204 -0.699,-0.0811 -2.111,-0.0227 -2.561,0.6909 -0.554,0.8774 0.194,1.4596 0.961,1.5327 1.112,0.1062 2.479,-0.6205 3.488,-1.1208 0.122,0.0097 0.249,-0.0422 0.317,-0.1537 0.022,-0.0106 0.045,-0.0212 0.066,-0.0314 1.448,1.3851 2.939,2.7145 4.42,4.0124 -0.015,8e-4 -0.029,0.0014 -0.044,0.0022 -0.373,-0.2072 -0.766,-0.3675 -1.181,-0.4288 -0.961,-0.1429 -2.062,-0.0241 -2.748,0.7857 -0.683,0.8064 -0.822,2.1017 0.043,2.8294 1.732,1.4565 3.663,-2.5052 4.437,-2.7462 1.503,1.3036 3.074,2.5033 4.664,3.6733 -0.17,-0.036 -0.344,-0.0573 -0.521,-0.056 -1.442,0.0088 -4.602,2.2532 -2.663,3.9112 1.69,1.4449 3.143,-1.8489 4.263,-3.0675 1.497,1.0888 3.002,2.1683 4.472,3.3 -0.752,-0.1288 -1.462,-0.0825 -2.22,0.2573 -0.784,0.3519 -2.026,1.1521 -1.394,2.272 0.642,1.1389 2.159,0.4236 2.939,-0.0453 0.425,-0.2557 1.249,-1.052 2.005,-1.432 2.359,1.9355 4.455,4.1222 6.143,6.7831 1.054,1.6614 1.909,3.466 2.573,5.3442 0.423,1.1988 1.222,3.2028 1.266,4.8183 0.236,-3.2692 -1.17,-7.0114 -2.554,-9.7597 -1.273,-2.5271 -3.013,-4.6778 -4.987,-6.5693 0.298,-1.4765 3.811,-3.9424 1.451,-5.0269 -1.253,-0.5729 -2.345,0.7233 -2.478,1.9846 -0.092,0.8666 0.287,1.9018 0.657,2.693 -0.619,-0.5747 -1.258,-1.1266 -1.912,-1.6562 -0.904,-0.7319 -1.825,-1.4378 -2.754,-2.1329 1.255,-1.5627 2.169,-5.739 0.228,-6.1941 -2.867,-0.6693 -0.976,4.6853 -0.678,5.695 0.055,-0.0025 0.096,-0.0249 0.123,-0.0665 -0.005,0.0961 -0.013,0.199 -0.025,0.3032 -1.776,-1.3224 -3.573,-2.6127 -5.323,-3.9742 0.132,-0.1296 0.317,-0.5899 0.472,-0.8412 0.352,-0.5666 0.684,-1.1546 0.905,-1.7967 0.349,-1.0146 0.624,-2.6023 -0.619,-3.0412 -1.352,-0.4785 -1.788,1.3308 -1.691,2.3712 0.067,0.7196 0.318,1.3827 0.485,2.077 0.052,0.2166 0.038,1.2197 0.274,0.7632 0.003,0.1585 0.012,0.2725 0.027,0.3525 -0.314,-0.2458 -0.627,-0.4949 -0.937,-0.7461 0.009,-0.0371 0.015,-0.077 0.012,-0.1222 -0.016,-0.3116 -0.318,-0.3993 -0.513,-0.2863 -0.411,-0.3393 -0.818,-0.6838 -1.22,-1.0366 -0.852,-0.7475 -1.717,-1.5175 -2.579,-2.3062 0.152,-0.173 0.064,-0.38 0.204,-0.5614 0.14,-0.1809 0.439,-0.3052 0.608,-0.4775 0.424,-0.4336 0.752,-1.0336 0.974,-1.6132 0.366,-0.9576 0.766,-2.9262 -0.618,-3.2128 -1.426,-0.2961 -1.941,1.6131 -1.914,2.7687 0.006,0.2238 0.363,2.2072 0.556,2.9207 -1.595,-1.4666 -3.173,-2.9966 -4.622,-4.5704 0.386,-0.0459 1.396,-1.0156 1.594,-1.2717 0.483,-0.6248 1.215,-1.9689 0.2,-2.5274 -0.902,-0.4951 -1.854,0.4682 -2.13,1.3336 -0.046,0.1425 -0.126,1.4314 -0.085,2.0013 -0.601,-0.6687 -1.178,-1.3444 -1.721,-2.0263 -0.362,-0.4532 -0.704,-0.9216 -1.029,-1.4026 0.062,-0.0471 0.116,-0.1236 0.166,-0.2167 1.379,-0.4093 2.932,-2.9587 1.198,-3.598 -0.825,-0.3038 -1.596,0.593 -1.914,1.2932 -0.065,0.1433 -0.124,0.8343 -0.174,1.3796 -0.957,-1.6064 -1.739,-3.3324 -2.383,-5.1193 0.119,-0.0459 0.213,-0.1576 0.209,-0.3316 0.64,-0.492 1.143,-0.8985 1.538,-1.7535 0.245,-0.5311 0.662,-1.7288 -0.235,-1.911 -1.168,-0.2369 -1.69,1.696 -1.69,2.6201 0,0.1072 0.032,0.4157 0.064,0.6981 -0.04,-0.0015 -0.079,0.0035 -0.118,0.0151 -0.375,-1.109 -0.699,-2.2383 -0.981,-3.3742 0.596,-0.2807 0.349,-3.7746 -0.113,-4.2256 -1.031,-1.0101 -1.517,0.6643 -1.382,1.5066 0.16,0.9931 0.674,1.8563 1.258,2.6084 0.062,0.0796 0.047,0.0771 0.049,-0.0434 0.013,0.058 0.036,0.0994 0.066,0.1279 0.028,0.5289 0.032,1.073 0.103,1.5359 0.205,1.3256 0.486,2.6508 0.83,3.9439 0.083,0.3145 0.174,0.6255 0.271,0.9331 -0.542,-0.3999 -1.252,-0.7304 -1.527,-0.828 -0.713,-0.2531 -1.796,-0.4921 -2.415,0.1356 z m 38.898,42.4206 c 0.01,0.432 -0.048,0.8337 -0.207,1.175 0.104,-0.3816 0.171,-0.7745 0.207,-1.175 z"
     id="path36"
     inkscape:connector-curvature="0"
     style="clip-rule:evenodd;opacity:0.2;fill:#c6d6d8;fill-rule:evenodd" />
  <g
     id="g50"
     style="opacity:0.5"
     transform="translate(-0.98305082,-2.4491525)">
    <path
       d="m 181.232,98.9912 c 0.783,-1.2362 2.237,-4.3756 3.34,-4.8173 0.71,-0.2845 0.503,2.6585 0.512,3.2196 0.034,2.1711 -0.157,4.3285 -0.393,6.4815 -0.425,3.882 -1.814,7.34 -3.721,10.645 -0.981,1.7 -2.131,3.421 -3.724,4.482 -0.734,0.489 -1.617,0.571 -2.341,0.992 -0.844,0.49 -0.384,0.093 -0.764,1.066 -0.528,1.35 -0.697,3.093 -0.941,4.533 -1.122,6.615 -3.838,41.581 -3.367,48.31 0.042,0.596 -0.71,0.739 -0.747,0.011 -0.199,-3.861 1.526,-30.593 2.397,-39.335 0.87,-8.742 1.751,-16.466 2.635,-19.49 1.071,-3.669 3.007,-8.082 4.618,-11.504 0.749,-1.59 1.564,-3.125 2.496,-4.5938 z"
       id="path38"
       inkscape:connector-curvature="0"
       style="clip-rule:evenodd;opacity:0.5;fill:#cae1e4;fill-rule:evenodd" />
    <path
       d="m 187.047,141.868 c 2.039,-1.656 4.246,1.469 2.401,3.126 -1.02,0.915 -2.086,0.59 -2.686,-0.173 -0.39,0.525 -0.755,1.075 -1.105,1.539 -1.068,1.414 -2.077,2.863 -3.042,4.345 -2.003,3.078 -3.721,6.331 -5.516,9.524 -1.772,3.151 -3.529,6.319 -5.135,9.55 -1.361,2.738 -3.174,5.958 -3.64,8.96 0.707,-6.365 3.389,-12.484 6.582,-18.095 3.167,-5.565 6.802,-11.643 11.706,-16.035 -0.499,-0.812 -0.513,-1.972 0.435,-2.741 z"
       id="path40"
       inkscape:connector-curvature="0"
       style="clip-rule:evenodd;opacity:0.5;fill:#c1dee2;fill-rule:evenodd" />
    <path
       d="m 148.357,126.344 c 1.141,0.247 3.005,3.103 3.946,4.191 1.117,1.293 2.131,2.671 3.087,4.115 2.058,3.108 3.899,6.413 5.463,9.859 2.552,5.618 4.596,11.385 6.079,17.502 0.908,3.745 1.496,7.626 1.844,11.48 0.066,0.727 0.755,6.331 -0.238,6.482 -0.892,0.136 -0.617,-4.255 -0.66,-4.852 -0.486,-6.739 -1.945,-13.296 -3.973,-19.648 -0.442,-1.384 -0.852,-3.078 -1.559,-4.323 -0.509,-0.897 -0.004,-0.585 -0.898,-0.924 -0.768,-0.292 -1.643,-0.22 -2.429,-0.577 -1.708,-0.775 -3.076,-2.28 -4.275,-3.793 -2.329,-2.941 -4.176,-6.123 -5.138,-9.892 -0.534,-2.09 -1.025,-4.191 -1.297,-6.346 -0.07,-0.556 -0.687,-3.433 0.048,-3.274 z"
       id="path42"
       inkscape:connector-curvature="0"
       style="clip-rule:evenodd;opacity:0.5;fill:#69a1ac;fill-rule:evenodd" />
    <path
       d="m 152.859,78.8297 c 4.298,8.2468 7.83,17.3057 10.111,26.4813 1.381,5.559 2.348,11.263 3.308,16.927 1.486,8.769 2.892,17.537 3.292,26.462 0.403,8.977 1.198,19.33 -1.458,27.976 1.327,-8.778 0.063,-18.121 -0.16,-26.954 -0.107,-4.216 -0.417,-8.391 -0.823,-12.583 -0.395,-4.066 -1.039,-8.113 -1.639,-12.148 -0.292,-1.964 -0.599,-3.926 -0.912,-5.887 -0.093,-0.585 -0.132,-2.321 -0.468,-2.72 -0.337,-0.403 -2.059,-0.567 -2.6,-0.862 -1.089,-0.594 -2.113,-1.439 -3.02,-2.331 -1.737,-1.71 -3.249,-3.945 -4.442,-6.148 -2.761,-5.098 -3.864,-11.3184 -3.809,-17.2219 0.011,-1.1462 1.677,-13.489 1.008,-13.6589 0.04,-0.0522 0.079,-0.1061 0.114,-0.1622 0.507,0.9384 1.004,1.8832 1.498,2.8297 z"
       id="path44"
       inkscape:connector-curvature="0"
       style="clip-rule:evenodd;opacity:0.5;fill:#89c5cc;fill-rule:evenodd" />
    <path
       d="m 199.248,108.573 c 0.066,-0.106 0.498,-0.842 0.28,-0.795 0.443,-0.096 -0.608,0.812 0.494,0.255 -0.523,0.547 -0.221,1.257 -0.214,1.994 0.011,1.195 -0.169,2.381 -0.373,3.55 -0.321,1.849 -0.8,3.647 -1.496,5.367 -1.515,3.748 -4.088,7.356 -7.143,9.699 -1.508,1.157 -2.986,1.55 -4.706,2.083 -1.086,0.336 -1.173,0.958 -1.749,2.125 -1.201,2.429 -2.38,4.85 -3.439,7.361 -1.264,2.999 -2.491,6.001 -3.649,9.053 -3.9,10.279 -7.074,20.928 -8.742,31.949 -0.04,-6.494 1.318,-13.183 3.03,-19.374 1.248,-4.51 2.873,-8.858 4.605,-13.162 0.42,-1.042 1.056,-2.383 1.234,-3.535 0.125,-0.806 -0.256,-1.582 -0.431,-2.431 -0.681,-3.309 -0.633,-7.016 -0.034,-10.342 0.659,-3.668 2.567,-5.37 5.794,-5.89 1.18,-0.19 2.68,-0.12 3.762,-0.677 1.179,-0.606 1.665,-2.599 2.336,-3.878 1.8,-3.436 3.94,-6.732 6.396,-9.627 0.681,-0.802 1.412,-1.541 2.188,-2.227 0.49,-0.433 1.523,-0.965 1.857,-1.498 z"
       id="path46"
       inkscape:connector-curvature="0"
       style="clip-rule:evenodd;opacity:0.5;fill:#89c5cc;fill-rule:evenodd" />
    <path
       d="m 163.064,174.2 h 11.452 c 0.515,0 0.933,0.462 0.933,1.032 0,0.05 -0.004,0.1 -0.01,0.15 l -0.886,6.641 c -0.269,2.024 -1.839,3.524 -3.689,3.524 h -4.148 c -1.849,0 -3.419,-1.5 -3.689,-3.524 l -0.885,-6.641 c -0.075,-0.564 0.277,-1.088 0.786,-1.171 0.045,-0.007 0.091,-0.011 0.136,-0.011 z"
       id="path48"
       inkscape:connector-curvature="0"
       style="clip-rule:evenodd;opacity:0.5;fill:#c1dee2;fill-rule:evenodd" />
  </g>
  <defs
     id="defs97">
    <filter
       id="filter0_d"
       x="0"
       y="18"
       width="204.319"
       height="176.09801"
       filterUnits="userSpaceOnUse"
       style="color-interpolation-filters:sRGB">
      <feFlood
         flood-opacity="0"
         result="BackgroundImageFix"
         id="feFlood52" />
      <feColorMatrix
         in="SourceAlpha"
         type="matrix"
         values="0 0 0 0 0 0 0 0 0 0 0 0 0 0 0 0 0 0 127 0"
         id="feColorMatrix54" />
      <feOffset
         dy="4"
         id="feOffset56" />
      <feGaussianBlur
         stdDeviation="2"
         id="feGaussianBlur58" />
      <feColorMatrix
         type="matrix"
         values="0 0 0 0 0 0 0 0 0 0 0 0 0 0 0 0 0 0 0.25 0"
         id="feColorMatrix60" />
      <feBlend
         mode="normal"
         in2="BackgroundImageFix"
         result="effect1_dropShadow"
         id="feBlend62" />
      <feBlend
         mode="normal"
         in="SourceGraphic"
         in2="effect1_dropShadow"
         result="shape"
         id="feBlend64" />
    </filter>
    <filter
       id="filter1_d"
       x="40"
       y="0"
       width="231.952"
       height="231.5"
       filterUnits="userSpaceOnUse"
       style="color-interpolation-filters:sRGB">
      <feFlood
         flood-opacity="0"
         result="BackgroundImageFix"
         id="feFlood67" />
      <feColorMatrix
         in="SourceAlpha"
         type="matrix"
         values="0 0 0 0 0 0 0 0 0 0 0 0 0 0 0 0 0 0 127 0"
         id="feColorMatrix69" />
      <feOffset
         dy="4"
         id="feOffset71" />
      <feGaussianBlur
         stdDeviation="2"
         id="feGaussianBlur73" />
      <feColorMatrix
         type="matrix"
         values="0 0 0 0 0 0 0 0 0 0 0 0 0 0 0 0 0 0 0.25 0"
         id="feColorMatrix75" />
      <feBlend
         mode="normal"
         in2="BackgroundImageFix"
         result="effect1_dropShadow"
         id="feBlend77" />
      <feBlend
         mode="normal"
         in="SourceGraphic"
         in2="effect1_dropShadow"
         result="shape"
         id="feBlend79" />
    </filter>
    <filter
       id="filter2_d"
       x="40"
       y="14"
       width="108"
       height="163"
       filterUnits="userSpaceOnUse"
       style="color-interpolation-filters:sRGB">
      <feFlood
         flood-opacity="0"
         result="BackgroundImageFix"
         id="feFlood82" />
      <feColorMatrix
         in="SourceAlpha"
         type="matrix"
         values="0 0 0 0 0 0 0 0 0 0 0 0 0 0 0 0 0 0 127 0"
         id="feColorMatrix84" />
      <feOffset
         dy="2"
         id="feOffset86" />
      <feGaussianBlur
         stdDeviation="2"
         id="feGaussianBlur88" />
      <feColorMatrix
         type="matrix"
         values="0 0 0 0 0 0 0 0 0 0 0 0 0 0 0 0 0 0 0.25 0"
         id="feColorMatrix90" />
      <feBlend
         mode="normal"
         in2="BackgroundImageFix"
         result="effect1_dropShadow"
         id="feBlend92" />
      <feBlend
         mode="normal"
         in="SourceGraphic"
         in2="effect1_dropShadow"
         result="shape"
         id="feBlend94" />
    </filter>
  </defs>
  <rect
     id="rect3808"
     width="260"
     height="220"
     x="0"
     y="0" />
  <rect
     id="rect3810"
     width="260"
     height="220"
     x="0"
     y="0" />
</svg>
