<svg width="290" height="300" viewBox="0 0 290 300" fill="none" xmlns="http://www.w3.org/2000/svg">
<rect x="32" y="32" width="228" height="268" rx="5" fill="#F4F4F7"/>
<path d="M114.995 272.867L113.624 274.344V278H110.987V265.203H113.624V271.004L114.784 269.413L118.045 265.203H121.288L116.744 270.89L121.42 278H118.282L114.995 272.867ZM132.099 265.203V273.632C132.099 275.032 131.659 276.14 130.78 276.954C129.907 277.769 128.712 278.176 127.194 278.176C125.7 278.176 124.514 277.78 123.635 276.989C122.756 276.198 122.308 275.111 122.29 273.729V265.203H124.927V273.649C124.927 274.487 125.126 275.1 125.524 275.486C125.929 275.867 126.485 276.058 127.194 276.058C128.677 276.058 129.43 275.278 129.453 273.72V265.203H132.099ZM144.667 278H142.03L136.897 269.58V278H134.261V265.203H136.897L142.039 273.641V265.203H144.667V278ZM146.97 278V265.203H150.907C152.032 265.203 153.037 265.458 153.922 265.968C154.812 266.472 155.507 267.192 156.005 268.13C156.503 269.062 156.752 270.122 156.752 271.312V271.9C156.752 273.09 156.506 274.147 156.014 275.073C155.527 275.999 154.839 276.717 153.948 277.227C153.058 277.736 152.053 277.994 150.934 278H146.97ZM149.606 267.339V275.882H150.881C151.912 275.882 152.7 275.545 153.245 274.871C153.79 274.197 154.068 273.233 154.08 271.979V271.303C154.08 270.002 153.811 269.018 153.271 268.35C152.732 267.676 151.944 267.339 150.907 267.339H149.606ZM166.376 272.454H161.313V275.882H167.255V278H158.677V265.203H167.237V267.339H161.313V270.389H166.376V272.454ZM173.539 273.315H171.438V278H168.802V265.203H173.557C175.068 265.203 176.234 265.54 177.055 266.214C177.875 266.888 178.285 267.84 178.285 269.07C178.285 269.943 178.095 270.673 177.714 271.259C177.339 271.839 176.768 272.302 176 272.647L178.769 277.877V278H175.938L173.539 273.315ZM171.438 271.18H173.565C174.228 271.18 174.74 271.013 175.104 270.679C175.467 270.339 175.648 269.873 175.648 269.281C175.648 268.678 175.476 268.203 175.13 267.857C174.79 267.512 174.266 267.339 173.557 267.339H171.438V271.18Z" fill="#333333"/>
<g filter="url(#filter0_d)">
<path fill-rule="evenodd" clip-rule="evenodd" d="M193.549 36.756C196.117 35.0046 198.191 32.5718 198.809 29.3909C200.593 20.2261 187.414 18.8308 183.732 22.7142C180.05 26.5977 177.244 38.1913 180.205 39.8509C181.386 40.5128 184.3 40.4408 187.49 39.5337L182.512 51.1596L192.701 53.8778L193.549 36.756Z" fill="#B28B67"/>
<path fill-rule="evenodd" clip-rule="evenodd" d="M190.015 28.1125C188.178 33.3869 186.422 35.8007 184.748 35.3538C182.237 34.6834 180.531 32.5371 179.429 32.2429C178.626 32.0285 178.537 33.0711 178.871 33.9507C179.147 34.6764 181.129 35.834 180.875 36.7773C180.621 37.7206 179.127 36.5397 178.977 37.0991C178.728 38.0246 177.963 39.6852 179.586 40.1185C181.229 40.557 186.098 41.2218 187.554 39.0247C188.493 37.6068 189.698 34.4704 191.167 29.6154C191.27 29.6303 191.373 29.6513 191.476 29.6788C192.883 30.0545 193.721 31.488 193.346 32.8808C193.156 33.5878 192.69 34.1484 192.093 34.4798C192.461 35.4609 192.891 36.4976 193.409 37.5876C196.708 36.658 200.149 32.2773 198.645 26.7852C198.502 24.2533 197.096 22.5459 195.196 21.4201C193.716 20.2865 192.009 19.7474 190.439 19.7711C187.514 19.2504 184.728 19.4317 183.866 19.751C183.145 22.4305 183.456 23.3655 187.956 24.4917C188.903 25.3611 189.483 26.578 190.015 28.1125Z" fill="#191847"/>
<path fill-rule="evenodd" clip-rule="evenodd" d="M187.755 89.3018L166.162 143.606L151.679 189.515H145.961L168.101 89.3018L187.755 89.3018Z" fill="#997659"/>
<path fill-rule="evenodd" clip-rule="evenodd" d="M192.103 89.3018C192.333 108.385 195.686 134.076 196.222 135.266C196.579 136.059 208.909 146.144 233.211 165.52L229.272 169.708C200.598 153.095 185.597 143.681 184.27 141.465C182.28 138.142 175.8 107.558 170.597 89.3018H192.103Z" fill="#B28B67"/>
<path fill-rule="evenodd" clip-rule="evenodd" d="M233.764 164.113C235.086 164.579 235.998 165.021 236.497 165.439C237.105 165.948 237.906 166.791 238.902 167.968C238.31 168.671 232.993 174.992 222.95 186.93C220.903 186.057 220.261 185.035 221.024 183.864C221.787 182.693 222.411 181.713 222.897 180.923L226.374 168.814C226.441 168.581 226.684 168.446 226.918 168.513C226.922 168.514 226.926 168.515 226.93 168.517L228.784 169.103C230.07 168.504 230.972 167.898 231.488 167.284C231.908 166.784 232.286 165.926 232.622 164.708L232.622 164.708C232.751 164.241 233.235 163.966 233.704 164.094C233.724 164.1 233.744 164.106 233.764 164.113Z" fill="#E4E4E4"/>
<path fill-rule="evenodd" clip-rule="evenodd" d="M154.021 187.439C154.513 188.75 154.759 189.73 154.759 190.381C154.759 191.172 154.627 192.327 154.363 193.845C153.442 193.845 145.171 193.845 129.549 193.845C128.905 191.719 129.277 190.571 130.666 190.401C132.055 190.232 133.209 190.079 134.128 189.942L145.661 184.814C145.883 184.715 146.143 184.814 146.242 185.036C146.244 185.039 146.246 185.043 146.247 185.047L146.989 186.841C148.275 187.439 149.32 187.739 150.124 187.739C150.777 187.739 151.679 187.475 152.83 186.949L152.83 186.949C153.272 186.747 153.794 186.941 153.997 187.381C154.006 187.4 154.014 187.419 154.021 187.439Z" fill="#E4E4E4"/>
<path fill-rule="evenodd" clip-rule="evenodd" d="M173.237 184.787L146.047 181.854L166.198 89.3018H190.551L173.237 184.787Z" fill="#6B898D"/>
<path fill-rule="evenodd" clip-rule="evenodd" d="M227.587 158.763L209.752 179.739C190.966 159.353 180.014 146.051 176.896 139.833C173.777 133.615 170.974 116.771 168.486 89.3018H195.903C197.262 113.468 198.178 126.114 198.652 127.238C199.125 128.363 208.77 138.871 227.587 158.763Z" fill="#77999E"/>
<path fill-rule="evenodd" clip-rule="evenodd" d="M154.087 79.2259L138.485 86.8792C134.559 87.2257 131.207 87.9257 128.428 88.9793C127.739 89.4127 126.828 90.3755 129.325 90.6199C131.821 90.8643 134.436 91.233 134.629 92.1273C134.821 93.0217 133.153 93.7581 133.641 95.0049C133.966 95.8361 136.463 94.3336 141.133 90.4973L155.814 87.2635L154.087 79.2259ZM207.079 88.8909L198.02 87.3365C200.437 106.243 201.77 116.284 202.021 117.459C202.587 120.103 199.8 123.489 198.536 125.349C201.258 127.181 201.804 122.262 205.226 124.639C208.349 126.809 210.432 130.112 214.789 128.393C215.325 128.182 216.052 127.16 214.927 126.064C212.124 123.333 208.203 118.726 207.804 117.367C207.26 115.512 207.018 106.02 207.079 88.8909Z" fill="#B28B67"/>
<path fill-rule="evenodd" clip-rule="evenodd" d="M188.013 46.6625L184.381 45.3668C168.376 54.8499 158.614 76.7534 139.435 85.8967L142.64 91.664C172.829 93.2185 185.098 66.5651 188.013 46.6625Z" fill="#D3BEA3"/>
<path fill-rule="evenodd" clip-rule="evenodd" d="M196.067 96.2825C181.053 93.646 170.009 91.7067 162.934 90.4645C161.42 90.1986 162.09 88.0772 162.503 87.0199C167.268 74.8169 179.542 62.916 182.729 44.9141L192.55 45.1036C198.219 59.1201 198.2 75.1483 196.067 96.2825Z" fill="#DDE3E9"/>
<path fill-rule="evenodd" clip-rule="evenodd" d="M202.294 59.6155C203.752 59.4629 205.015 58.7316 206.082 57.4215C210.684 51.7743 210.032 48.1059 206.5 46.3174C202.968 44.5289 199.226 46.2782 193.279 45.2338C192.955 45.177 192.655 45.1451 192.379 45.1382L189.357 44.7824C175.658 72.1713 169.877 91.0347 172.015 101.373L198.092 105.952C199.003 109.802 199.948 113.072 200.928 115.763L208.033 117.011C212.504 95.6508 210.591 76.519 202.294 59.6155Z" fill="#DBC6AB"/>
<path fill-rule="evenodd" clip-rule="evenodd" d="M195.049 90.1113C193.022 96.7834 190.813 101.496 188.422 104.25L198.099 105.949C197.036 101.458 196.019 96.179 195.049 90.1113V90.1113Z" fill="black" fill-opacity="0.1"/>
</g>
<g filter="url(#filter1_d)">
<path fill-rule="evenodd" clip-rule="evenodd" d="M87.7123 56.5279C93.1019 56.5279 95.062 50.0813 98.124 46.5436C100.315 44.0125 104.054 44.7672 105.16 41.2236C107.943 32.313 100.495 26.0415 90.7775 26.0415C81.0603 26.0415 74.5083 31.5418 73.0936 39.8102C71.6789 48.0786 77.9951 56.5279 87.7123 56.5279Z" fill="#191847"/>
<path fill-rule="evenodd" clip-rule="evenodd" d="M88.3076 50.7721C86.1347 48.2238 84.664 45.1008 84.9097 41.6014C85.6178 31.5186 99.666 33.7367 102.399 38.8256C105.131 43.9146 104.807 56.823 101.275 57.7325C99.8665 58.0953 96.866 57.2067 93.8123 55.3678L95.7291 68.9159H84.4114L88.3076 50.7721Z" fill="#B28B67"/>
<path fill-rule="evenodd" clip-rule="evenodd" d="M93.0788 44.2858C92.6676 44.0684 92.1964 43.945 91.6956 43.945C90.0922 43.945 88.7923 45.2106 88.7923 46.7719C88.7923 47.4091 89.0089 47.9971 89.3742 48.4698C88.6863 49.6027 88.2168 50.793 88.0629 52.0166C85.6785 52.0166 76.9764 43.0027 85.6454 34.522C94.3144 26.0414 106.842 38.148 103.078 38.854C100.913 39.26 96.5543 41.3244 93.0788 44.2858V44.2858Z" fill="#191847"/>
<path fill-rule="evenodd" clip-rule="evenodd" d="M80.6387 108.021L98.3843 165.983L106.981 215.277H113.721L104.637 108.021H80.6387Z" fill="#997659"/>
<path fill-rule="evenodd" clip-rule="evenodd" d="M74.2901 108.021C75.4955 139.846 74.077 156.261 73.8072 159.153C73.5374 162.044 69.8434 180.792 61.0984 216.247L68.2806 213.783C82.1013 181.265 86.8109 164.365 88.3961 160.095C89.9812 155.825 94.1912 138.467 101.026 108.021H74.2901Z" fill="#B28B67"/>
<path fill-rule="evenodd" clip-rule="evenodd" d="M61.1524 213.747C60.6249 215.154 60.3611 216.207 60.3611 216.906C60.3611 217.755 60.5028 218.995 60.7861 220.625C61.7726 220.625 70.6384 220.625 87.3835 220.625C88.0747 218.342 87.6757 217.11 86.1866 216.928C84.6974 216.746 83.4604 216.581 82.4754 216.435L70.1132 210.928C69.8753 210.822 69.5965 210.929 69.4904 211.167C69.4886 211.171 69.4869 211.175 69.4852 211.179L68.6905 213.105C67.312 213.748 66.1918 214.069 65.3299 214.069C64.6296 214.069 63.6625 213.786 62.4287 213.221L62.4287 213.221C61.9552 213.004 61.3954 213.212 61.1783 213.685C61.1689 213.706 61.1603 213.726 61.1524 213.747Z" fill="#E4E4E4"/>
<path fill-rule="evenodd" clip-rule="evenodd" d="M105.48 213.747C104.953 215.154 104.689 216.207 104.689 216.906C104.689 217.755 104.83 218.995 105.114 220.625C106.1 220.625 114.966 220.625 131.711 220.625C132.402 218.342 132.003 217.11 130.514 216.928C129.025 216.746 127.788 216.581 126.803 216.435L114.441 210.928C114.203 210.822 113.924 210.929 113.818 211.167C113.816 211.171 113.815 211.175 113.813 211.179L113.018 213.105C111.64 213.748 110.519 214.069 109.658 214.069C108.957 214.069 107.99 213.786 106.756 213.221L106.756 213.221C106.283 213.004 105.723 213.212 105.506 213.685C105.497 213.706 105.488 213.726 105.48 213.747Z" fill="#E4E4E4"/>
<path fill-rule="evenodd" clip-rule="evenodd" d="M78.2808 108.021L85.8259 137.552H108.872L105.436 108.021H78.2808Z" fill="#69A1AC"/>
<path fill-rule="evenodd" clip-rule="evenodd" d="M74.0366 108.021C71.554 115.456 71.0824 125.3 72.6219 137.552H96.1393L102.606 108.021H74.0366Z" fill="#89C5CC"/>
<path fill-rule="evenodd" clip-rule="evenodd" d="M122.158 100.54L135.517 113.56C139.403 115.217 142.588 117.046 145.071 119.048C145.629 119.72 146.237 121.01 143.61 120.433C140.983 119.856 138.194 119.367 137.701 120.221C137.207 121.074 138.662 122.382 137.749 123.499C137.141 124.244 135.095 121.875 131.612 116.393L117.721 108.211L122.158 100.54ZM62.8642 102.377L72.7188 102.415C66.634 122.04 63.3492 132.453 62.8642 133.654C61.773 136.356 64.0821 140.471 65.0696 142.682C61.8534 144.12 62.1961 138.795 58.1391 140.681C54.436 142.402 51.619 145.521 47.3406 142.883C46.8146 142.559 46.2382 141.338 47.6309 140.384C51.1006 138.007 56.1006 133.847 56.7762 132.477C57.6975 130.61 59.7268 120.576 62.8642 102.377Z" fill="#B28B67"/>
<path fill-rule="evenodd" clip-rule="evenodd" d="M90.8694 61.0626L94.9471 60.3638C101.968 77.8859 114.225 93.8069 131.718 108.127L118.499 124.172C101.008 103.783 90.2258 82.7461 90.8694 61.0626Z" fill="#191847"/>
<path fill-rule="evenodd" clip-rule="evenodd" d="M73.0935 112.261H109.404C100.992 91.8254 96.7859 74.4653 96.7859 60.181L85.8326 58.5505C77.2244 72.3827 74.7934 89.4128 73.0935 112.261Z" fill="#DDE3E9"/>
<path fill-rule="evenodd" clip-rule="evenodd" d="M85.6008 58.5583C85.6023 58.5557 85.6037 58.5531 85.6051 58.5505H86.3201C87.1757 58.58 88.4788 58.633 90.2294 58.7096L92.8761 66.2665C93.1561 75.48 94.791 94.0478 97.7809 121.97H73.9783C74.0407 123.898 74.1436 125.845 74.287 127.809H56.5886C59.236 97.9686 68.9038 74.8824 85.5921 58.5505L85.6008 58.5583V58.5583Z" fill="#2F3676"/>
<path fill-rule="evenodd" clip-rule="evenodd" d="M75.5505 97.2944C76.228 109.316 77.924 117.603 80.6387 122.155H73.9844C73.6931 113.506 74.2151 105.22 75.5505 97.2944V97.2944Z" fill="black" fill-opacity="0.1"/>
<path fill-rule="evenodd" clip-rule="evenodd" d="M79.2764 107.55L91.0134 102.098V107.55H79.2764Z" fill="white" fill-opacity="0.2"/>
</g>
<g filter="url(#filter2_d)">
<path fill-rule="evenodd" clip-rule="evenodd" d="M212.89 71.9321C214.973 69.4854 216.383 66.4869 216.148 63.127C215.469 53.4463 201.999 55.5759 199.379 60.4619C196.758 65.3479 197.07 77.7417 200.456 78.615C201.806 78.9633 204.683 78.1102 207.611 76.3445L205.774 89.3525H216.625L212.89 71.9321Z" fill="#B28B67"/>
<path fill-rule="evenodd" clip-rule="evenodd" d="M194.571 53.6884C194.796 52.8981 195.4 52.2215 196.215 52.0208C196.412 51.9721 196.616 51.9524 196.82 51.9606C196.892 51.9635 196.913 51.9845 196.947 51.9335C196.972 51.8957 196.973 51.8033 196.983 51.7589C197.016 51.6207 197.056 51.4842 197.106 51.3513C197.276 50.8978 197.563 50.4966 197.908 50.1585C198.554 49.5261 199.427 49.0896 200.333 49.0107C200.829 48.9675 201.322 49.0481 201.791 49.2096C202.034 49.2932 202.27 49.3973 202.499 49.5124C202.568 49.547 202.792 49.7167 202.861 49.7057C202.938 49.6936 203.092 49.5033 203.154 49.4555C203.923 48.865 204.873 48.6329 205.831 48.6398C206.913 48.6479 207.955 48.702 208.857 49.3616C209.048 49.5013 209.229 49.6542 209.403 49.8152C209.494 49.8999 209.582 49.9879 209.666 50.0795C209.717 50.1347 209.767 50.1912 209.814 50.2492C209.895 50.3477 209.882 50.3801 209.995 50.3114C210.429 50.0475 210.932 49.9241 211.439 49.9864C211.74 50.0234 212.033 50.1138 212.311 50.2327C212.405 50.2732 212.624 50.4347 212.725 50.4363C212.825 50.4379 213.041 50.2881 213.144 50.2501C213.701 50.0445 214.301 49.9938 214.886 50.0888C215.49 50.1868 216.083 50.4278 216.594 50.7607C216.84 50.9208 217.055 51.0983 217.227 51.3364C217.302 51.4392 217.369 51.548 217.453 51.6433C217.503 51.6991 217.6 51.7564 217.627 51.8271C217.611 51.7848 218.287 51.5241 218.351 51.5074C218.691 51.4186 219.037 51.4366 219.369 51.5462C219.995 51.7522 220.533 52.2142 220.976 52.6879C221.203 52.9312 221.402 53.2001 221.57 53.4866C221.651 53.6239 221.725 53.7651 221.793 53.9092C221.826 53.9791 221.847 54.0664 221.89 54.1294C221.946 54.2104 221.984 54.212 222.084 54.2473C222.597 54.4268 223.063 54.7307 223.419 55.1412C223.779 55.5565 224.012 56.068 224.11 56.6066C224.115 56.6383 224.119 56.7698 224.137 56.787C224.163 56.8107 224.266 56.8002 224.305 56.8048C224.44 56.8206 224.574 56.8442 224.706 56.8755C224.949 56.9332 225.187 57.0181 225.411 57.1291C226.285 57.562 226.911 58.3735 227.217 59.2867C227.538 60.245 227.532 61.3429 227.149 62.2833C227.087 62.4352 227.013 62.5826 226.926 62.7221C226.873 62.8077 226.856 62.8079 226.89 62.8978C226.929 62.9977 226.999 63.0948 227.045 63.1925C227.194 63.5111 227.298 63.8491 227.364 64.1943C227.472 64.7606 227.526 65.3556 227.419 65.9262C227.37 66.1911 227.283 66.4501 227.152 66.6861C227.085 66.8064 227.006 66.9205 226.918 67.0261C226.872 67.0809 226.823 67.1332 226.772 67.1834C226.742 67.212 226.704 67.2371 226.679 67.2691C226.618 67.3471 226.606 67.2829 226.637 67.3975C226.681 67.5576 226.78 67.7157 226.841 67.8715C226.903 68.0321 226.96 68.1949 227.012 68.3593C227.116 68.6922 227.205 69.0311 227.26 69.3759C227.367 70.0378 227.348 70.7431 227.035 71.3506C226.901 71.6104 226.709 71.8384 226.477 72.0157C226.363 72.1024 226.239 72.1772 226.11 72.2386C226.043 72.2702 225.958 72.2838 225.928 72.3482C225.895 72.4174 225.944 72.5548 225.955 72.6322C226.051 73.3055 226.099 74.0123 225.899 74.6721C225.715 75.2797 225.309 75.8162 224.783 76.1715C223.761 76.8605 222.384 76.8217 221.31 76.27C221.03 76.1262 220.769 75.9477 220.535 75.7371C219.94 76.538 218.717 76.5126 217.847 76.2844C216.765 76.0001 215.896 75.2468 215.395 74.2571C214.711 75.0908 213.274 74.8203 212.799 73.9159C212.683 73.6945 212.614 73.4506 212.58 73.2037C212.562 73.0739 212.574 72.9429 212.56 72.8141C212.543 72.65 212.434 72.4906 212.371 72.3318C212.248 72.0229 212.172 71.7037 212.169 71.3705C212.167 71.1965 212.189 71.0269 212.205 70.8543C212.22 70.6989 212.177 70.5541 212.153 70.4008C212.431 70.4465 212.769 70.3716 213.031 70.2911C213.287 70.212 213.528 70.0038 213.709 69.8136C214.13 69.3721 214.387 68.7932 214.563 68.2171C214.949 66.9526 214.79 65.4355 213.519 64.7416C212.927 64.4183 211.153 64.4194 210.447 64.5791C209.706 64.7471 208.865 66.3843 208.824 66.5382C208.798 66.6335 208.811 66.7513 208.723 66.8148C208.531 66.9543 208.214 66.7122 208.072 66.5927C207.828 66.3864 207.653 66.112 207.502 65.8338C207.173 65.2278 206.907 64.5779 206.72 63.9144C206.575 63.4029 206.483 62.8754 206.294 62.377C206.106 61.881 205.81 61.4377 205.349 61.1567C204.847 60.851 204.273 60.69 203.722 60.4979C203.177 60.3076 202.641 60.0749 202.218 59.671C202.125 59.5822 202.035 59.4878 201.96 59.3832C201.901 59.3006 201.842 59.1426 201.752 59.0903C201.612 59.0088 201.408 59.2206 201.287 59.2975C200.69 59.6768 200.192 60.2059 199.79 60.7839C199.391 61.3588 199.063 61.9119 198.796 62.5538C198.599 63.0298 198.475 63.6395 198.128 64.0297C197.973 64.2039 196.82 64.3093 196.446 64.1572C196.072 64.0051 195.654 63.6102 195.528 63.3627C195.4 63.1094 195.369 62.8311 195.424 62.5538C195.456 62.3906 195.522 62.2382 195.558 62.078C195.589 61.9434 195.616 61.8161 195.682 61.6928C195.806 61.4591 196.018 61.2912 196.274 61.2209C196.008 60.9755 195.787 60.6818 195.634 60.3535C195.476 60.0125 195.342 59.5978 195.303 59.2234C195.272 58.9194 195.32 58.6044 195.487 58.3431C195.661 58.0691 195.97 57.8903 196.238 57.7193C195.829 57.3995 195.479 57.0105 195.192 56.5799C194.633 55.7424 194.287 54.6868 194.571 53.6884Z" fill="#191847"/>
<path fill-rule="evenodd" clip-rule="evenodd" d="M220.238 126.909L198.497 184.462L183.259 226.881H174.57L195.517 126.909L220.238 126.909Z" fill="#C5B7B7"/>
<path fill-rule="evenodd" clip-rule="evenodd" d="M225.611 126.909C225.847 146.656 225.676 173.243 226.227 174.474C226.594 175.295 238.012 184.645 260.48 202.525L256.001 210.144C229.326 192.934 215.307 183.183 213.943 180.89C211.898 177.45 201.62 145.801 196.273 126.909H225.611Z" fill="#CFC0C0"/>
<path fill-rule="evenodd" clip-rule="evenodd" d="M268.36 207.652L260.796 201.892L254.692 209.169C254.223 214.655 252.407 220.808 249.246 227.627L250.632 228.79L261.676 215.622L264.761 210.536L265.454 211.117L268.36 207.652Z" fill="#191847"/>
<path fill-rule="evenodd" clip-rule="evenodd" d="M184.065 235.024L183.613 225.524H174.118C169.615 228.69 163.737 231.254 156.483 233.214V235.024H173.666L179.544 234.119V235.024H184.065Z" fill="#191847"/>
<path fill-rule="evenodd" clip-rule="evenodd" d="M181.354 108.949L163.501 106.513C159.93 104.526 156.644 103.18 153.645 102.477C152.801 102.452 151.458 102.759 153.458 104.428C155.459 106.096 157.488 107.942 157.132 108.832C156.776 109.722 154.915 109.391 154.607 110.761C154.402 111.674 157.421 111.822 163.665 111.206L178.151 116.951L181.354 108.949ZM237.435 113.083L227.534 113.121C238.391 137.563 244.052 150.361 244.517 151.514C245.563 154.108 243.349 158.059 242.402 160.182C245.486 161.563 245.157 156.45 249.047 158.261C252.598 159.913 255.299 162.908 259.401 160.375C259.905 160.064 260.458 158.892 259.123 157.976C255.796 155.694 251.002 151.699 250.354 150.385C249.471 148.592 245.164 136.158 237.435 113.083Z" fill="#997659"/>
<path fill-rule="evenodd" clip-rule="evenodd" d="M210.315 81.6667L202.562 82.1834C200.653 99.4642 190.254 110.379 166.97 106.684L163.877 128.938C185.639 131.752 204.724 123.035 208.636 99.4348C209.648 93.3255 210.448 86.9674 210.315 81.6667Z" fill="#AFB9C5"/>
<path fill-rule="evenodd" clip-rule="evenodd" d="M214.139 79.4122L202.394 82.1035C202.394 102.315 195.958 115.21 192.657 130.07H224.379C224.826 135.204 225.101 140.482 225.244 145.902H248.996C243.613 117.251 232.253 95.0857 214.915 79.405H214.145L214.139 79.4122Z" fill="#C5CFD6"/>
<path fill-rule="evenodd" clip-rule="evenodd" d="M219.374 101.236C220.192 113.83 219.711 123.441 217.932 130.07H224.379C223.494 119.898 221.932 110.286 219.374 101.236L219.374 101.236Z" fill="black" fill-opacity="0.1"/>
</g>
<line x1="47" y1="247.75" x2="243" y2="247.75" stroke="#333333" stroke-width="0.5"/>
<defs>
<filter id="filter0_d" x="100.603" y="0" width="162.332" height="202.455" filterUnits="userSpaceOnUse" color-interpolation-filters="sRGB">
<feFlood flood-opacity="0" result="BackgroundImageFix"/>
<feColorMatrix in="SourceAlpha" type="matrix" values="0 0 0 0 0 0 0 0 0 0 0 0 0 0 0 0 0 0 127 0"/>
<feOffset dy="4"/>
<feGaussianBlur stdDeviation="2"/>
<feColorMatrix type="matrix" values="0 0 0 0 0 0 0 0 0 0 0 0 0 0 0 0 0 0 0.25 0"/>
<feBlend mode="normal" in2="BackgroundImageFix" result="effect1_dropShadow"/>
<feBlend mode="normal" in="SourceGraphic" in2="effect1_dropShadow" result="shape"/>
</filter>
<filter id="filter1_d" x="-4" y="3.42651" width="187.197" height="234.151" filterUnits="userSpaceOnUse" color-interpolation-filters="sRGB">
<feFlood flood-opacity="0" result="BackgroundImageFix"/>
<feColorMatrix in="SourceAlpha" type="matrix" values="0 0 0 0 0 0 0 0 0 0 0 0 0 0 0 0 0 0 127 0"/>
<feOffset dy="4"/>
<feGaussianBlur stdDeviation="2"/>
<feColorMatrix type="matrix" values="0 0 0 0 0 0 0 0 0 0 0 0 0 0 0 0 0 0 0.25 0"/>
<feBlend mode="normal" in2="BackgroundImageFix" result="effect1_dropShadow"/>
<feBlend mode="normal" in="SourceGraphic" in2="effect1_dropShadow" result="shape"/>
</filter>
<filter id="filter2_d" x="127.183" y="38.5483" width="166.619" height="208.452" filterUnits="userSpaceOnUse" color-interpolation-filters="sRGB">
<feFlood flood-opacity="0" result="BackgroundImageFix"/>
<feColorMatrix in="SourceAlpha" type="matrix" values="0 0 0 0 0 0 0 0 0 0 0 0 0 0 0 0 0 0 127 0"/>
<feOffset dy="4"/>
<feGaussianBlur stdDeviation="2"/>
<feColorMatrix type="matrix" values="0 0 0 0 0 0 0 0 0 0 0 0 0 0 0 0 0 0 0.25 0"/>
<feBlend mode="normal" in2="BackgroundImageFix" result="effect1_dropShadow"/>
<feBlend mode="normal" in="SourceGraphic" in2="effect1_dropShadow" result="shape"/>
</filter>
</defs>
</svg>
