<svg width="657" height="605" viewBox="0 0 657 605" fill="none" xmlns="http://www.w3.org/2000/svg">
<path fill-rule="evenodd" clip-rule="evenodd" d="M118.865 402.138C139.259 409.036 138.824 441.008 157.23 452.188C178.836 465.313 215.902 447.652 229.212 469.168C241.487 489.009 221.14 514.861 207.873 534.052C197.17 549.536 179.616 557.333 162.651 565.451C148.718 572.119 133.572 571.935 118.865 576.649C94.5421 584.446 70.8787 614.443 48.5505 602.027C27.269 590.192 45.8552 554.472 37.6837 531.505C29.0953 507.365 -3.64537 491.819 0.333806 466.504C4.24424 441.626 33.4543 429.8 55.5569 417.798C75.1456 407.161 97.7543 394.997 118.865 402.138Z" fill="#E8EFF7"/>
<path fill-rule="evenodd" clip-rule="evenodd" d="M102.813 283.875C124.759 275.939 152.704 280.313 170.057 295.893C187.152 311.242 179.571 339.298 188.222 360.561C197.959 384.49 227.924 401.95 223.571 427.409C219.254 452.655 190.945 466.236 168.142 477.986C147.993 488.367 125.464 488.579 102.813 489.628C78.8878 490.735 51.6341 499.17 32.9266 484.245C14.2719 469.362 17.5341 440.84 12.4656 417.549C8.00403 397.047 -5.84899 374.468 5.14567 356.586C16.3214 338.41 46.4678 347.14 63.596 334.389C81.1333 321.333 82.2419 291.313 102.813 283.875Z" fill="#CAE1E4"/>
<path fill-rule="evenodd" clip-rule="evenodd" d="M508.19 143.485C539.609 140.132 574.507 124.611 600.656 142.352C626.84 160.118 624.526 198.567 633.916 228.787C643.148 258.502 663.356 287.386 655.033 317.368C646.61 347.707 618.653 368.624 590.946 383.572C565.752 397.164 536.79 397.783 508.19 396.591C480.76 395.448 453.785 391.095 430.299 376.875C405.185 361.67 380.855 341.9 371.755 313.985C362.651 286.057 371.692 256.144 381.971 228.627C391.855 202.167 405.612 176.46 429.026 160.666C451.974 145.186 480.667 146.422 508.19 143.485Z" fill="#CAE1E4"/>
<path fill-rule="evenodd" clip-rule="evenodd" d="M446.831 0.75641C483.594 -4.90597 516.274 22.4012 547.018 43.3469C578.736 64.956 619.319 85.2232 626.236 122.985C633.108 160.497 591.648 188.279 580.232 224.666C568.624 261.668 586.284 308.342 559.339 336.223C531.888 364.627 485.897 368.491 446.831 362.699C410.719 357.345 384.959 328.597 356.197 306.105C328.644 284.559 296.397 266.872 282.978 234.565C268.981 200.863 265.473 160.233 282.124 127.763C298.013 96.7782 339.233 92.3639 366.803 71.1046C395.634 48.8727 410.854 6.29788 446.831 0.75641Z" fill="#E8EFF7"/>
</svg>
