<svg width="349" height="298" viewBox="0 0 349 298" fill="none" xmlns="http://www.w3.org/2000/svg">
<path fill-rule="evenodd" clip-rule="evenodd" d="M186.388 81.9694C186.407 90.6952 194.035 100.256 188.362 107.438C182.688 114.619 170.313 113.332 160.521 114.714C152.566 115.837 144.962 115.461 136.965 114.694C126.9 113.727 115.725 115.296 107.904 109.663C99.39 103.533 92.8055 93.5925 94.2875 83.962C95.7447 74.4927 108.891 70.6274 115.118 62.7802C121.32 54.9651 120.949 42.9205 130.462 38.3753C140.182 33.7311 152.262 36.9156 162.685 40.0543C172.774 43.0928 183.494 47.3754 188.246 55.7773C192.773 63.7837 186.368 73.0054 186.388 81.9694Z" fill="#A0C4CA"/>
<g filter="url(#filter0_d)">
<path fill-rule="evenodd" clip-rule="evenodd" d="M230.049 252.226C212.761 255.067 197.135 243.414 181.737 235.057C166.602 226.844 145.561 221.132 141.793 204.331C137.925 187.087 163.134 175.446 164.415 157.821C165.954 136.641 134.688 112.639 149.557 97.4757C164.276 82.4648 188.863 107.266 209.347 111.998C220.61 114.6 230.915 118.301 242.457 118.939C267.538 120.325 296.197 102.391 315.962 117.89C334.348 132.307 336.679 164.015 327.144 185.345C317.795 206.259 288.943 207.544 270.076 220.541C255.71 230.436 247.262 249.398 230.049 252.226Z" fill="#CAE1E4"/>
</g>
<g filter="url(#filter1_d)">
<path fill-rule="evenodd" clip-rule="evenodd" d="M284.326 109.048C294.592 128.638 322.19 140.972 318.411 163.925C314.632 186.879 286.522 198.842 267.095 213.704C251.314 225.777 234.527 234.061 216.439 241.936C193.673 251.847 171.492 268.787 148.08 265.517C122.597 261.957 96.7968 247.518 88.6978 224.091C80.7343 201.057 104.463 176.587 108.652 151.472C112.825 126.461 97.9135 99.833 113.036 78.1961C128.487 56.0875 158.184 48.7436 184.264 43.287C209.511 38.0046 237.571 34.7615 257.629 47.9431C276.742 60.5043 273.779 88.9227 284.326 109.048Z" fill="#E8EFF7"/>
</g>
<path d="M184.852 73.7041C184.852 73.1416 184.652 72.708 184.254 72.4033C183.861 72.0986 183.149 71.791 182.118 71.4805C181.087 71.1699 180.267 70.8242 179.657 70.4434C178.491 69.7109 177.908 68.7559 177.908 67.5781C177.908 66.5469 178.327 65.6973 179.165 65.0293C180.009 64.3613 181.102 64.0273 182.443 64.0273C183.334 64.0273 184.128 64.1914 184.825 64.5195C185.522 64.8477 186.07 65.3164 186.469 65.9258C186.867 66.5293 187.066 67.2002 187.066 67.9385H184.852C184.852 67.2705 184.641 66.749 184.219 66.374C183.803 65.9932 183.205 65.8027 182.426 65.8027C181.699 65.8027 181.134 65.958 180.729 66.2686C180.331 66.5791 180.132 67.0127 180.132 67.5693C180.132 68.0381 180.349 68.4307 180.782 68.7471C181.216 69.0576 181.931 69.3623 182.927 69.6611C183.923 69.9541 184.723 70.291 185.326 70.6719C185.93 71.0469 186.372 71.4805 186.653 71.9727C186.935 72.459 187.075 73.0303 187.075 73.6865C187.075 74.7529 186.665 75.6025 185.845 76.2354C185.03 76.8623 183.923 77.1758 182.522 77.1758C181.597 77.1758 180.744 77.0059 179.965 76.666C179.191 76.3203 178.588 75.8457 178.154 75.2422C177.727 74.6387 177.513 73.9355 177.513 73.1328H179.736C179.736 73.8594 179.977 74.4219 180.457 74.8203C180.938 75.2188 181.626 75.418 182.522 75.418C183.296 75.418 183.876 75.2627 184.263 74.9521C184.655 74.6357 184.852 74.2197 184.852 73.7041ZM191.496 65.1787V67.4902H193.175V69.0723H191.496V74.3809C191.496 74.7441 191.566 75.0078 191.707 75.1719C191.854 75.3301 192.111 75.4092 192.48 75.4092C192.727 75.4092 192.976 75.3799 193.228 75.3213V76.9736C192.741 77.1084 192.272 77.1758 191.821 77.1758C190.181 77.1758 189.36 76.2705 189.36 74.46V69.0723H187.796V67.4902H189.36V65.1787H191.496ZM199.793 69.4414C199.512 69.3945 199.222 69.3711 198.923 69.3711C197.944 69.3711 197.285 69.7461 196.945 70.4961V77H194.81V67.4902H196.849L196.901 68.5537C197.417 67.7275 198.132 67.3145 199.046 67.3145C199.351 67.3145 199.603 67.3555 199.802 67.4375L199.793 69.4414ZM205.154 77.1758C203.801 77.1758 202.702 76.751 201.858 75.9014C201.021 75.0459 200.602 73.9092 200.602 72.4912V72.2275C200.602 71.2783 200.783 70.4316 201.146 69.6875C201.516 68.9375 202.031 68.3545 202.693 67.9385C203.355 67.5225 204.094 67.3145 204.908 67.3145C206.203 67.3145 207.202 67.7275 207.905 68.5537C208.614 69.3799 208.969 70.5488 208.969 72.0605V72.9219H202.755C202.819 73.707 203.08 74.3281 203.537 74.7852C204 75.2422 204.58 75.4707 205.277 75.4707C206.256 75.4707 207.053 75.0752 207.668 74.2842L208.819 75.3828C208.438 75.9512 207.929 76.3936 207.29 76.71C206.657 77.0205 205.945 77.1758 205.154 77.1758ZM204.899 69.0283C204.313 69.0283 203.839 69.2334 203.476 69.6436C203.118 70.0537 202.89 70.625 202.79 71.3574H206.859V71.1992C206.812 70.4844 206.622 69.9453 206.288 69.582C205.954 69.2129 205.491 69.0283 204.899 69.0283ZM215.965 74.416C215.965 74.0352 215.807 73.7451 215.49 73.5459C215.18 73.3467 214.661 73.1709 213.935 73.0186C213.208 72.8662 212.602 72.6729 212.115 72.4385C211.049 71.9229 210.516 71.1758 210.516 70.1973C210.516 69.377 210.861 68.6914 211.553 68.1406C212.244 67.5898 213.123 67.3145 214.189 67.3145C215.326 67.3145 216.243 67.5957 216.94 68.1582C217.644 68.7207 217.995 69.4502 217.995 70.3467H215.859C215.859 69.9365 215.707 69.5967 215.402 69.3271C215.098 69.0518 214.693 68.9141 214.189 68.9141C213.721 68.9141 213.337 69.0225 213.038 69.2393C212.745 69.4561 212.599 69.7461 212.599 70.1094C212.599 70.4375 212.736 70.6924 213.012 70.874C213.287 71.0557 213.844 71.2402 214.682 71.4277C215.52 71.6094 216.176 71.8291 216.65 72.0869C217.131 72.3389 217.485 72.6436 217.714 73.001C217.948 73.3584 218.065 73.792 218.065 74.3018C218.065 75.1572 217.711 75.8516 217.002 76.3848C216.293 76.9121 215.364 77.1758 214.216 77.1758C213.437 77.1758 212.742 77.0352 212.133 76.7539C211.523 76.4727 211.049 76.0859 210.709 75.5938C210.369 75.1016 210.199 74.5713 210.199 74.0029H212.273C212.303 74.5068 212.493 74.8965 212.845 75.1719C213.196 75.4414 213.662 75.5762 214.242 75.5762C214.805 75.5762 215.232 75.4707 215.525 75.2598C215.818 75.043 215.965 74.7617 215.965 74.416ZM225.264 74.416C225.264 74.0352 225.105 73.7451 224.789 73.5459C224.479 73.3467 223.96 73.1709 223.233 73.0186C222.507 72.8662 221.9 72.6729 221.414 72.4385C220.348 71.9229 219.814 71.1758 219.814 70.1973C219.814 69.377 220.16 68.6914 220.852 68.1406C221.543 67.5898 222.422 67.3145 223.488 67.3145C224.625 67.3145 225.542 67.5957 226.239 68.1582C226.942 68.7207 227.294 69.4502 227.294 70.3467H225.158C225.158 69.9365 225.006 69.5967 224.701 69.3271C224.396 69.0518 223.992 68.9141 223.488 68.9141C223.02 68.9141 222.636 69.0225 222.337 69.2393C222.044 69.4561 221.897 69.7461 221.897 70.1094C221.897 70.4375 222.035 70.6924 222.311 70.874C222.586 71.0557 223.143 71.2402 223.98 71.4277C224.818 71.6094 225.475 71.8291 225.949 72.0869C226.43 72.3389 226.784 72.6436 227.013 73.001C227.247 73.3584 227.364 73.792 227.364 74.3018C227.364 75.1572 227.01 75.8516 226.301 76.3848C225.592 76.9121 224.663 77.1758 223.515 77.1758C222.735 77.1758 222.041 77.0352 221.432 76.7539C220.822 76.4727 220.348 76.0859 220.008 75.5938C219.668 75.1016 219.498 74.5713 219.498 74.0029H221.572C221.602 74.5068 221.792 74.8965 222.144 75.1719C222.495 75.4414 222.961 75.5762 223.541 75.5762C224.104 75.5762 224.531 75.4707 224.824 75.2598C225.117 75.043 225.264 74.7617 225.264 74.416ZM146.232 92.4717L144.782 94.0098V98H142.559V85.2031H144.782V91.2061L146.013 89.6855L149.757 85.2031H152.446L147.691 90.8721L152.719 98H150.082L146.232 92.4717ZM158.687 90.4414C158.405 90.3945 158.115 90.3711 157.816 90.3711C156.838 90.3711 156.179 90.7461 155.839 91.4961V98H153.703V88.4902H155.742L155.795 89.5537C156.311 88.7275 157.025 88.3145 157.939 88.3145C158.244 88.3145 158.496 88.3555 158.695 88.4375L158.687 90.4414ZM159.319 93.1572C159.319 92.2256 159.504 91.3877 159.873 90.6436C160.242 89.8936 160.761 89.3193 161.429 88.9209C162.097 88.5166 162.864 88.3145 163.731 88.3145C165.015 88.3145 166.055 88.7275 166.852 89.5537C167.654 90.3799 168.088 91.4756 168.152 92.8408L168.161 93.3418C168.161 94.2793 167.979 95.1172 167.616 95.8555C167.259 96.5938 166.743 97.165 166.069 97.5693C165.401 97.9736 164.628 98.1758 163.749 98.1758C162.407 98.1758 161.332 97.7305 160.523 96.8398C159.721 95.9434 159.319 94.751 159.319 93.2627V93.1572ZM161.455 93.3418C161.455 94.3203 161.657 95.0879 162.062 95.6445C162.466 96.1953 163.028 96.4707 163.749 96.4707C164.47 96.4707 165.029 96.1895 165.428 95.627C165.832 95.0645 166.034 94.2412 166.034 93.1572C166.034 92.1963 165.826 91.4346 165.41 90.8721C165 90.3096 164.44 90.0283 163.731 90.0283C163.034 90.0283 162.48 90.3066 162.07 90.8633C161.66 91.4141 161.455 92.2402 161.455 93.3418ZM171.949 88.4902L172.011 89.5889C172.714 88.7393 173.637 88.3145 174.779 88.3145C176.76 88.3145 177.768 89.4482 177.803 91.7158V98H175.667V91.8389C175.667 91.2354 175.535 90.79 175.271 90.5029C175.014 90.21 174.589 90.0635 173.997 90.0635C173.136 90.0635 172.494 90.4531 172.072 91.2324V98H169.937V88.4902H171.949ZM182.259 98H180.123V88.4902H182.259V98ZM179.991 86.0205C179.991 85.6924 180.094 85.4199 180.299 85.2031C180.51 84.9863 180.809 84.8779 181.195 84.8779C181.582 84.8779 181.881 84.9863 182.092 85.2031C182.303 85.4199 182.408 85.6924 182.408 86.0205C182.408 86.3428 182.303 86.6123 182.092 86.8291C181.881 87.04 181.582 87.1455 181.195 87.1455C180.809 87.1455 180.51 87.04 180.299 86.8291C180.094 86.6123 179.991 86.3428 179.991 86.0205ZM189.923 95.416C189.923 95.0352 189.765 94.7451 189.448 94.5459C189.138 94.3467 188.619 94.1709 187.893 94.0186C187.166 93.8662 186.56 93.6729 186.073 93.4385C185.007 92.9229 184.474 92.1758 184.474 91.1973C184.474 90.377 184.819 89.6914 185.511 89.1406C186.202 88.5898 187.081 88.3145 188.147 88.3145C189.284 88.3145 190.201 88.5957 190.898 89.1582C191.602 89.7207 191.953 90.4502 191.953 91.3467H189.817C189.817 90.9365 189.665 90.5967 189.36 90.3271C189.056 90.0518 188.651 89.9141 188.147 89.9141C187.679 89.9141 187.295 90.0225 186.996 90.2393C186.703 90.4561 186.557 90.7461 186.557 91.1094C186.557 91.4375 186.694 91.6924 186.97 91.874C187.245 92.0557 187.802 92.2402 188.64 92.4277C189.478 92.6094 190.134 92.8291 190.608 93.0869C191.089 93.3389 191.443 93.6436 191.672 94.001C191.906 94.3584 192.023 94.792 192.023 95.3018C192.023 96.1572 191.669 96.8516 190.96 97.3848C190.251 97.9121 189.322 98.1758 188.174 98.1758C187.395 98.1758 186.7 98.0352 186.091 97.7539C185.481 97.4727 185.007 97.0859 184.667 96.5938C184.327 96.1016 184.157 95.5713 184.157 95.0029H186.231C186.261 95.5068 186.451 95.8965 186.803 96.1719C187.154 96.4414 187.62 96.5762 188.2 96.5762C188.763 96.5762 189.19 96.4707 189.483 96.2598C189.776 96.043 189.923 95.7617 189.923 95.416ZM196.98 93.9219L196.031 94.8975V98H193.896V84.5H196.031V92.2871L196.699 91.4521L199.327 88.4902H201.894L198.36 92.4541L202.271 98H199.802L196.98 93.9219ZM213.108 95.416C213.108 95.0352 212.95 94.7451 212.634 94.5459C212.323 94.3467 211.805 94.1709 211.078 94.0186C210.352 93.8662 209.745 93.6729 209.259 93.4385C208.192 92.9229 207.659 92.1758 207.659 91.1973C207.659 90.377 208.005 89.6914 208.696 89.1406C209.388 88.5898 210.267 88.3145 211.333 88.3145C212.47 88.3145 213.387 88.5957 214.084 89.1582C214.787 89.7207 215.139 90.4502 215.139 91.3467H213.003C213.003 90.9365 212.851 90.5967 212.546 90.3271C212.241 90.0518 211.837 89.9141 211.333 89.9141C210.864 89.9141 210.48 90.0225 210.182 90.2393C209.889 90.4561 209.742 90.7461 209.742 91.1094C209.742 91.4375 209.88 91.6924 210.155 91.874C210.431 92.0557 210.987 92.2402 211.825 92.4277C212.663 92.6094 213.319 92.8291 213.794 93.0869C214.274 93.3389 214.629 93.6436 214.857 94.001C215.092 94.3584 215.209 94.792 215.209 95.3018C215.209 96.1572 214.854 96.8516 214.146 97.3848C213.437 97.9121 212.508 98.1758 211.359 98.1758C210.58 98.1758 209.886 98.0352 209.276 97.7539C208.667 97.4727 208.192 97.0859 207.853 96.5938C207.513 96.1016 207.343 95.5713 207.343 95.0029H209.417C209.446 95.5068 209.637 95.8965 209.988 96.1719C210.34 96.4414 210.806 96.5762 211.386 96.5762C211.948 96.5762 212.376 96.4707 212.669 96.2598C212.962 96.043 213.108 95.7617 213.108 95.416ZM219.085 88.4902L219.146 89.4834C219.814 88.7041 220.729 88.3145 221.889 88.3145C223.16 88.3145 224.03 88.8008 224.499 89.7734C225.19 88.8008 226.163 88.3145 227.417 88.3145C228.466 88.3145 229.245 88.6045 229.755 89.1846C230.271 89.7646 230.534 90.6201 230.546 91.751V98H228.41V91.8125C228.41 91.209 228.278 90.7666 228.015 90.4854C227.751 90.2041 227.314 90.0635 226.705 90.0635C226.219 90.0635 225.82 90.1953 225.51 90.459C225.205 90.7168 224.991 91.0566 224.868 91.4785L224.877 98H222.741V91.7422C222.712 90.623 222.141 90.0635 221.027 90.0635C220.172 90.0635 219.565 90.4121 219.208 91.1094V98H217.072V88.4902H219.085ZM236.927 98.1758C235.573 98.1758 234.475 97.751 233.631 96.9014C232.793 96.0459 232.374 94.9092 232.374 93.4912V93.2275C232.374 92.2783 232.556 91.4316 232.919 90.6875C233.288 89.9375 233.804 89.3545 234.466 88.9385C235.128 88.5225 235.866 88.3145 236.681 88.3145C237.976 88.3145 238.975 88.7275 239.678 89.5537C240.387 90.3799 240.741 91.5488 240.741 93.0605V93.9219H234.527C234.592 94.707 234.853 95.3281 235.31 95.7852C235.772 96.2422 236.353 96.4707 237.05 96.4707C238.028 96.4707 238.825 96.0752 239.44 95.2842L240.592 96.3828C240.211 96.9512 239.701 97.3936 239.062 97.71C238.43 98.0205 237.718 98.1758 236.927 98.1758ZM236.672 90.0283C236.086 90.0283 235.611 90.2334 235.248 90.6436C234.891 91.0537 234.662 91.625 234.562 92.3574H238.632V92.1992C238.585 91.4844 238.395 90.9453 238.061 90.582C237.727 90.2129 237.264 90.0283 236.672 90.0283ZM247.386 90.4414C247.104 90.3945 246.814 90.3711 246.516 90.3711C245.537 90.3711 244.878 90.7461 244.538 91.4961V98H242.402V88.4902H244.441L244.494 89.5537C245.01 88.7275 245.725 88.3145 246.639 88.3145C246.943 88.3145 247.195 88.3555 247.395 88.4375L247.386 90.4414ZM251.851 86.1787V88.4902H253.529V90.0723H251.851V95.3809C251.851 95.7441 251.921 96.0078 252.062 96.1719C252.208 96.3301 252.466 96.4092 252.835 96.4092C253.081 96.4092 253.33 96.3799 253.582 96.3213V97.9736C253.096 98.1084 252.627 98.1758 252.176 98.1758C250.535 98.1758 249.715 97.2705 249.715 95.46V90.0723H248.15V88.4902H249.715V86.1787H251.851ZM259.356 98.1758C258.003 98.1758 256.904 97.751 256.061 96.9014C255.223 96.0459 254.804 94.9092 254.804 93.4912V93.2275C254.804 92.2783 254.985 91.4316 255.349 90.6875C255.718 89.9375 256.233 89.3545 256.896 88.9385C257.558 88.5225 258.296 88.3145 259.11 88.3145C260.405 88.3145 261.404 88.7275 262.107 89.5537C262.816 90.3799 263.171 91.5488 263.171 93.0605V93.9219H256.957C257.021 94.707 257.282 95.3281 257.739 95.7852C258.202 96.2422 258.782 96.4707 259.479 96.4707C260.458 96.4707 261.255 96.0752 261.87 95.2842L263.021 96.3828C262.641 96.9512 262.131 97.3936 261.492 97.71C260.859 98.0205 260.147 98.1758 259.356 98.1758ZM259.102 90.0283C258.516 90.0283 258.041 90.2334 257.678 90.6436C257.32 91.0537 257.092 91.625 256.992 92.3574H261.062V92.1992C261.015 91.4844 260.824 90.9453 260.49 90.582C260.156 90.2129 259.693 90.0283 259.102 90.0283ZM121.667 106.203L125.358 116.012L129.041 106.203H131.915V119H129.7V114.781L129.92 109.139L126.141 119H124.55L120.779 109.147L120.999 114.781V119H118.784V106.203H121.667ZM136.617 119H134.481V109.49H136.617V119ZM134.35 107.021C134.35 106.692 134.452 106.42 134.657 106.203C134.868 105.986 135.167 105.878 135.554 105.878C135.94 105.878 136.239 105.986 136.45 106.203C136.661 106.42 136.767 106.692 136.767 107.021C136.767 107.343 136.661 107.612 136.45 107.829C136.239 108.04 135.94 108.146 135.554 108.146C135.167 108.146 134.868 108.04 134.657 107.829C134.452 107.612 134.35 107.343 134.35 107.021ZM138.577 114.175C138.577 112.698 138.923 111.521 139.614 110.642C140.312 109.757 141.234 109.314 142.383 109.314C143.467 109.314 144.319 109.692 144.94 110.448L145.037 109.49H146.962V118.71C146.962 119.958 146.572 120.942 145.793 121.663C145.02 122.384 143.974 122.744 142.655 122.744C141.958 122.744 141.275 122.598 140.607 122.305C139.945 122.018 139.441 121.64 139.096 121.171L140.106 119.888C140.763 120.667 141.571 121.057 142.532 121.057C143.241 121.057 143.801 120.863 144.211 120.477C144.621 120.096 144.826 119.533 144.826 118.789V118.147C144.211 118.833 143.391 119.176 142.365 119.176C141.252 119.176 140.341 118.733 139.632 117.849C138.929 116.964 138.577 115.739 138.577 114.175ZM140.704 114.359C140.704 115.314 140.897 116.067 141.284 116.618C141.677 117.163 142.219 117.436 142.91 117.436C143.771 117.436 144.41 117.066 144.826 116.328V112.145C144.422 111.424 143.789 111.063 142.928 111.063C142.225 111.063 141.677 111.342 141.284 111.898C140.897 112.455 140.704 113.275 140.704 114.359ZM154.143 111.441C153.861 111.395 153.571 111.371 153.272 111.371C152.294 111.371 151.635 111.746 151.295 112.496V119H149.159V109.49H151.198L151.251 110.554C151.767 109.728 152.481 109.314 153.396 109.314C153.7 109.314 153.952 109.355 154.151 109.438L154.143 111.441ZM159.504 119.176C158.15 119.176 157.052 118.751 156.208 117.901C155.37 117.046 154.951 115.909 154.951 114.491V114.228C154.951 113.278 155.133 112.432 155.496 111.688C155.865 110.938 156.381 110.354 157.043 109.938C157.705 109.522 158.443 109.314 159.258 109.314C160.553 109.314 161.552 109.728 162.255 110.554C162.964 111.38 163.318 112.549 163.318 114.061V114.922H157.104C157.169 115.707 157.43 116.328 157.887 116.785C158.35 117.242 158.93 117.471 159.627 117.471C160.605 117.471 161.402 117.075 162.018 116.284L163.169 117.383C162.788 117.951 162.278 118.394 161.64 118.71C161.007 119.021 160.295 119.176 159.504 119.176ZM159.249 111.028C158.663 111.028 158.188 111.233 157.825 111.644C157.468 112.054 157.239 112.625 157.14 113.357H161.209V113.199C161.162 112.484 160.972 111.945 160.638 111.582C160.304 111.213 159.841 111.028 159.249 111.028ZM166.966 109.49L167.027 110.589C167.73 109.739 168.653 109.314 169.796 109.314C171.776 109.314 172.784 110.448 172.819 112.716V119H170.684V112.839C170.684 112.235 170.552 111.79 170.288 111.503C170.03 111.21 169.605 111.063 169.014 111.063C168.152 111.063 167.511 111.453 167.089 112.232V119H164.953V109.49H166.966ZM179.191 119.176C177.838 119.176 176.739 118.751 175.896 117.901C175.058 117.046 174.639 115.909 174.639 114.491V114.228C174.639 113.278 174.82 112.432 175.184 111.688C175.553 110.938 176.068 110.354 176.73 109.938C177.393 109.522 178.131 109.314 178.945 109.314C180.24 109.314 181.239 109.728 181.942 110.554C182.651 111.38 183.006 112.549 183.006 114.061V114.922H176.792C176.856 115.707 177.117 116.328 177.574 116.785C178.037 117.242 178.617 117.471 179.314 117.471C180.293 117.471 181.09 117.075 181.705 116.284L182.856 117.383C182.476 117.951 181.966 118.394 181.327 118.71C180.694 119.021 179.982 119.176 179.191 119.176ZM178.937 111.028C178.351 111.028 177.876 111.233 177.513 111.644C177.155 112.054 176.927 112.625 176.827 113.357H180.896V113.199C180.85 112.484 180.659 111.945 180.325 111.582C179.991 111.213 179.528 111.028 178.937 111.028ZM188.754 114.157C188.754 113.226 188.938 112.388 189.308 111.644C189.677 110.894 190.195 110.319 190.863 109.921C191.531 109.517 192.299 109.314 193.166 109.314C194.449 109.314 195.489 109.728 196.286 110.554C197.089 111.38 197.522 112.476 197.587 113.841L197.596 114.342C197.596 115.279 197.414 116.117 197.051 116.855C196.693 117.594 196.178 118.165 195.504 118.569C194.836 118.974 194.062 119.176 193.184 119.176C191.842 119.176 190.767 118.73 189.958 117.84C189.155 116.943 188.754 115.751 188.754 114.263V114.157ZM190.89 114.342C190.89 115.32 191.092 116.088 191.496 116.645C191.9 117.195 192.463 117.471 193.184 117.471C193.904 117.471 194.464 117.189 194.862 116.627C195.267 116.064 195.469 115.241 195.469 114.157C195.469 113.196 195.261 112.435 194.845 111.872C194.435 111.31 193.875 111.028 193.166 111.028C192.469 111.028 191.915 111.307 191.505 111.863C191.095 112.414 190.89 113.24 190.89 114.342ZM199.028 114.175C199.028 112.698 199.374 111.521 200.065 110.642C200.763 109.757 201.686 109.314 202.834 109.314C203.918 109.314 204.771 109.692 205.392 110.448L205.488 109.49H207.413V118.71C207.413 119.958 207.023 120.942 206.244 121.663C205.471 122.384 204.425 122.744 203.106 122.744C202.409 122.744 201.727 122.598 201.059 122.305C200.396 122.018 199.893 121.64 199.547 121.171L200.558 119.888C201.214 120.667 202.022 121.057 202.983 121.057C203.692 121.057 204.252 120.863 204.662 120.477C205.072 120.096 205.277 119.533 205.277 118.789V118.147C204.662 118.833 203.842 119.176 202.816 119.176C201.703 119.176 200.792 118.733 200.083 117.849C199.38 116.964 199.028 115.739 199.028 114.175ZM201.155 114.359C201.155 115.314 201.349 116.067 201.735 116.618C202.128 117.163 202.67 117.436 203.361 117.436C204.223 117.436 204.861 117.066 205.277 116.328V112.145C204.873 111.424 204.24 111.063 203.379 111.063C202.676 111.063 202.128 111.342 201.735 111.898C201.349 112.455 201.155 113.275 201.155 114.359ZM216.202 110.527C216.899 109.719 217.781 109.314 218.848 109.314C220.875 109.314 221.903 110.472 221.933 112.786V119H219.797V112.865C219.797 112.209 219.653 111.746 219.366 111.477C219.085 111.201 218.669 111.063 218.118 111.063C217.263 111.063 216.624 111.444 216.202 112.206V119H214.066V105.5H216.202V110.527ZM223.699 114.157C223.699 113.226 223.884 112.388 224.253 111.644C224.622 110.894 225.141 110.319 225.809 109.921C226.477 109.517 227.244 109.314 228.111 109.314C229.395 109.314 230.435 109.728 231.231 110.554C232.034 111.38 232.468 112.476 232.532 113.841L232.541 114.342C232.541 115.279 232.359 116.117 231.996 116.855C231.639 117.594 231.123 118.165 230.449 118.569C229.781 118.974 229.008 119.176 228.129 119.176C226.787 119.176 225.712 118.73 224.903 117.84C224.101 116.943 223.699 115.751 223.699 114.263V114.157ZM225.835 114.342C225.835 115.32 226.037 116.088 226.441 116.645C226.846 117.195 227.408 117.471 228.129 117.471C228.85 117.471 229.409 117.189 229.808 116.627C230.212 116.064 230.414 115.241 230.414 114.157C230.414 113.196 230.206 112.435 229.79 111.872C229.38 111.31 228.82 111.028 228.111 111.028C227.414 111.028 226.86 111.307 226.45 111.863C226.04 112.414 225.835 113.24 225.835 114.342ZM233.947 114.175C233.947 112.71 234.287 111.535 234.967 110.65C235.646 109.76 236.558 109.314 237.7 109.314C238.708 109.314 239.522 109.666 240.144 110.369V105.5H242.279V119H240.346L240.24 118.016C239.602 118.789 238.749 119.176 237.683 119.176C236.569 119.176 235.667 118.728 234.976 117.831C234.29 116.935 233.947 115.716 233.947 114.175ZM236.083 114.359C236.083 115.326 236.268 116.082 236.637 116.627C237.012 117.166 237.542 117.436 238.228 117.436C239.101 117.436 239.739 117.046 240.144 116.267V112.206C239.751 111.444 239.118 111.063 238.245 111.063C237.554 111.063 237.021 111.339 236.646 111.89C236.271 112.435 236.083 113.258 236.083 114.359ZM248.695 119.176C247.342 119.176 246.243 118.751 245.399 117.901C244.562 117.046 244.143 115.909 244.143 114.491V114.228C244.143 113.278 244.324 112.432 244.688 111.688C245.057 110.938 245.572 110.354 246.234 109.938C246.896 109.522 247.635 109.314 248.449 109.314C249.744 109.314 250.743 109.728 251.446 110.554C252.155 111.38 252.51 112.549 252.51 114.061V114.922H246.296C246.36 115.707 246.621 116.328 247.078 116.785C247.541 117.242 248.121 117.471 248.818 117.471C249.797 117.471 250.594 117.075 251.209 116.284L252.36 117.383C251.979 117.951 251.47 118.394 250.831 118.71C250.198 119.021 249.486 119.176 248.695 119.176ZM248.44 111.028C247.854 111.028 247.38 111.233 247.017 111.644C246.659 112.054 246.431 112.625 246.331 113.357H250.4V113.199C250.354 112.484 250.163 111.945 249.829 111.582C249.495 111.213 249.032 111.028 248.44 111.028ZM262.503 114.342C262.503 115.812 262.169 116.987 261.501 117.866C260.833 118.739 259.937 119.176 258.812 119.176C257.769 119.176 256.934 118.833 256.307 118.147V122.656H254.171V109.49H256.14L256.228 110.457C256.854 109.695 257.707 109.314 258.785 109.314C259.945 109.314 260.854 109.748 261.51 110.615C262.172 111.477 262.503 112.675 262.503 114.21V114.342ZM260.376 114.157C260.376 113.208 260.186 112.455 259.805 111.898C259.43 111.342 258.891 111.063 258.188 111.063C257.314 111.063 256.688 111.424 256.307 112.145V116.363C256.693 117.102 257.326 117.471 258.205 117.471C258.885 117.471 259.415 117.198 259.796 116.653C260.183 116.103 260.376 115.271 260.376 114.157ZM266.59 119H264.454V109.49H266.59V119ZM264.322 107.021C264.322 106.692 264.425 106.42 264.63 106.203C264.841 105.986 265.14 105.878 265.526 105.878C265.913 105.878 266.212 105.986 266.423 106.203C266.634 106.42 266.739 106.692 266.739 107.021C266.739 107.343 266.634 107.612 266.423 107.829C266.212 108.04 265.913 108.146 265.526 108.146C265.14 108.146 264.841 108.04 264.63 107.829C264.425 107.612 264.322 107.343 264.322 107.021ZM270.905 109.49L270.967 110.589C271.67 109.739 272.593 109.314 273.735 109.314C275.716 109.314 276.724 110.448 276.759 112.716V119H274.623V112.839C274.623 112.235 274.491 111.79 274.228 111.503C273.97 111.21 273.545 111.063 272.953 111.063C272.092 111.063 271.45 111.453 271.028 112.232V119H268.893V109.49H270.905ZM283.131 119.176C281.777 119.176 280.679 118.751 279.835 117.901C278.997 117.046 278.578 115.909 278.578 114.491V114.228C278.578 113.278 278.76 112.432 279.123 111.688C279.492 110.938 280.008 110.354 280.67 109.938C281.332 109.522 282.07 109.314 282.885 109.314C284.18 109.314 285.179 109.728 285.882 110.554C286.591 111.38 286.945 112.549 286.945 114.061V114.922H280.731C280.796 115.707 281.057 116.328 281.514 116.785C281.977 117.242 282.557 117.471 283.254 117.471C284.232 117.471 285.029 117.075 285.645 116.284L286.796 117.383C286.415 117.951 285.905 118.394 285.267 118.71C284.634 119.021 283.922 119.176 283.131 119.176ZM282.876 111.028C282.29 111.028 281.815 111.233 281.452 111.644C281.095 112.054 280.866 112.625 280.767 113.357H284.836V113.199C284.789 112.484 284.599 111.945 284.265 111.582C283.931 111.213 283.468 111.028 282.876 111.028ZM98.0596 138.225H103.869V140H95.8359V127.203H98.0596V138.225ZM109.556 140.176C108.202 140.176 107.104 139.751 106.26 138.901C105.422 138.046 105.003 136.909 105.003 135.491V135.228C105.003 134.278 105.185 133.432 105.548 132.688C105.917 131.938 106.433 131.354 107.095 130.938C107.757 130.522 108.495 130.314 109.31 130.314C110.604 130.314 111.604 130.728 112.307 131.554C113.016 132.38 113.37 133.549 113.37 135.061V135.922H107.156C107.221 136.707 107.481 137.328 107.938 137.785C108.401 138.242 108.981 138.471 109.679 138.471C110.657 138.471 111.454 138.075 112.069 137.284L113.221 138.383C112.84 138.951 112.33 139.394 111.691 139.71C111.059 140.021 110.347 140.176 109.556 140.176ZM109.301 132.028C108.715 132.028 108.24 132.233 107.877 132.644C107.52 133.054 107.291 133.625 107.191 134.357H111.261V134.199C111.214 133.484 111.023 132.945 110.689 132.582C110.355 132.213 109.893 132.028 109.301 132.028ZM117.712 128.179V130.49H119.391V132.072H117.712V137.381C117.712 137.744 117.782 138.008 117.923 138.172C118.069 138.33 118.327 138.409 118.696 138.409C118.942 138.409 119.191 138.38 119.443 138.321V139.974C118.957 140.108 118.488 140.176 118.037 140.176C116.396 140.176 115.576 139.271 115.576 137.46V132.072H114.012V130.49H115.576V128.179H117.712ZM123.706 128.179V130.49H125.385V132.072H123.706V137.381C123.706 137.744 123.776 138.008 123.917 138.172C124.063 138.33 124.321 138.409 124.69 138.409C124.937 138.409 125.186 138.38 125.438 138.321V139.974C124.951 140.108 124.482 140.176 124.031 140.176C122.391 140.176 121.57 139.271 121.57 137.46V132.072H120.006V130.49H121.57V128.179H123.706ZM131.212 140.176C129.858 140.176 128.76 139.751 127.916 138.901C127.078 138.046 126.659 136.909 126.659 135.491V135.228C126.659 134.278 126.841 133.432 127.204 132.688C127.573 131.938 128.089 131.354 128.751 130.938C129.413 130.522 130.151 130.314 130.966 130.314C132.261 130.314 133.26 130.728 133.963 131.554C134.672 132.38 135.026 133.549 135.026 135.061V135.922H128.812C128.877 136.707 129.138 137.328 129.595 137.785C130.058 138.242 130.638 138.471 131.335 138.471C132.313 138.471 133.11 138.075 133.726 137.284L134.877 138.383C134.496 138.951 133.986 139.394 133.348 139.71C132.715 140.021 132.003 140.176 131.212 140.176ZM130.957 132.028C130.371 132.028 129.896 132.233 129.533 132.644C129.176 133.054 128.947 133.625 128.848 134.357H132.917V134.199C132.87 133.484 132.68 132.945 132.346 132.582C132.012 132.213 131.549 132.028 130.957 132.028ZM141.671 132.441C141.39 132.395 141.1 132.371 140.801 132.371C139.822 132.371 139.163 132.746 138.823 133.496V140H136.688V130.49H138.727L138.779 131.554C139.295 130.728 140.01 130.314 140.924 130.314C141.229 130.314 141.48 130.355 141.68 130.438L141.671 132.441ZM147.032 140.176C145.679 140.176 144.58 139.751 143.736 138.901C142.898 138.046 142.479 136.909 142.479 135.491V135.228C142.479 134.278 142.661 133.432 143.024 132.688C143.394 131.938 143.909 131.354 144.571 130.938C145.233 130.522 145.972 130.314 146.786 130.314C148.081 130.314 149.08 130.728 149.783 131.554C150.492 132.38 150.847 133.549 150.847 135.061V135.922H144.633C144.697 136.707 144.958 137.328 145.415 137.785C145.878 138.242 146.458 138.471 147.155 138.471C148.134 138.471 148.931 138.075 149.546 137.284L150.697 138.383C150.316 138.951 149.807 139.394 149.168 139.71C148.535 140.021 147.823 140.176 147.032 140.176ZM146.777 132.028C146.191 132.028 145.717 132.233 145.354 132.644C144.996 133.054 144.768 133.625 144.668 134.357H148.737V134.199C148.69 133.484 148.5 132.945 148.166 132.582C147.832 132.213 147.369 132.028 146.777 132.028ZM162.677 140C162.583 139.818 162.501 139.522 162.431 139.112C161.751 139.821 160.919 140.176 159.935 140.176C158.979 140.176 158.2 139.903 157.597 139.358C156.993 138.813 156.691 138.14 156.691 137.337C156.691 136.323 157.066 135.547 157.816 135.008C158.572 134.463 159.65 134.19 161.051 134.19H162.36V133.566C162.36 133.074 162.223 132.682 161.947 132.389C161.672 132.09 161.253 131.94 160.69 131.94C160.204 131.94 159.806 132.063 159.495 132.31C159.185 132.55 159.029 132.857 159.029 133.232H156.894C156.894 132.711 157.066 132.225 157.412 131.773C157.758 131.316 158.227 130.959 158.818 130.701C159.416 130.443 160.081 130.314 160.813 130.314C161.927 130.314 162.814 130.596 163.477 131.158C164.139 131.715 164.479 132.5 164.496 133.514V137.803C164.496 138.658 164.616 139.341 164.856 139.851V140H162.677ZM160.33 138.462C160.752 138.462 161.147 138.359 161.517 138.154C161.892 137.949 162.173 137.674 162.36 137.328V135.535H161.209C160.418 135.535 159.823 135.673 159.425 135.948C159.026 136.224 158.827 136.613 158.827 137.117C158.827 137.527 158.962 137.855 159.231 138.102C159.507 138.342 159.873 138.462 160.33 138.462ZM168.715 130.49L168.776 131.589C169.479 130.739 170.402 130.314 171.545 130.314C173.525 130.314 174.533 131.448 174.568 133.716V140H172.433V133.839C172.433 133.235 172.301 132.79 172.037 132.503C171.779 132.21 171.354 132.063 170.763 132.063C169.901 132.063 169.26 132.453 168.838 133.232V140H166.702V130.49H168.715ZM176.379 135.175C176.379 133.698 176.725 132.521 177.416 131.642C178.113 130.757 179.036 130.314 180.185 130.314C181.269 130.314 182.121 130.692 182.742 131.448L182.839 130.49H184.764V139.71C184.764 140.958 184.374 141.942 183.595 142.663C182.821 143.384 181.775 143.744 180.457 143.744C179.76 143.744 179.077 143.598 178.409 143.305C177.747 143.018 177.243 142.64 176.897 142.171L177.908 140.888C178.564 141.667 179.373 142.057 180.334 142.057C181.043 142.057 181.603 141.863 182.013 141.477C182.423 141.096 182.628 140.533 182.628 139.789V139.147C182.013 139.833 181.192 140.176 180.167 140.176C179.054 140.176 178.143 139.733 177.434 138.849C176.73 137.964 176.379 136.739 176.379 135.175ZM178.506 135.359C178.506 136.314 178.699 137.067 179.086 137.618C179.479 138.163 180.021 138.436 180.712 138.436C181.573 138.436 182.212 138.066 182.628 137.328V133.145C182.224 132.424 181.591 132.063 180.729 132.063C180.026 132.063 179.479 132.342 179.086 132.898C178.699 133.455 178.506 134.275 178.506 135.359ZM192.296 137.416C192.296 137.035 192.138 136.745 191.821 136.546C191.511 136.347 190.992 136.171 190.266 136.019C189.539 135.866 188.933 135.673 188.446 135.438C187.38 134.923 186.847 134.176 186.847 133.197C186.847 132.377 187.192 131.691 187.884 131.141C188.575 130.59 189.454 130.314 190.521 130.314C191.657 130.314 192.574 130.596 193.271 131.158C193.975 131.721 194.326 132.45 194.326 133.347H192.19C192.19 132.937 192.038 132.597 191.733 132.327C191.429 132.052 191.024 131.914 190.521 131.914C190.052 131.914 189.668 132.022 189.369 132.239C189.076 132.456 188.93 132.746 188.93 133.109C188.93 133.438 189.067 133.692 189.343 133.874C189.618 134.056 190.175 134.24 191.013 134.428C191.851 134.609 192.507 134.829 192.981 135.087C193.462 135.339 193.816 135.644 194.045 136.001C194.279 136.358 194.396 136.792 194.396 137.302C194.396 138.157 194.042 138.852 193.333 139.385C192.624 139.912 191.695 140.176 190.547 140.176C189.768 140.176 189.073 140.035 188.464 139.754C187.854 139.473 187.38 139.086 187.04 138.594C186.7 138.102 186.53 137.571 186.53 137.003H188.604C188.634 137.507 188.824 137.896 189.176 138.172C189.527 138.441 189.993 138.576 190.573 138.576C191.136 138.576 191.563 138.471 191.856 138.26C192.149 138.043 192.296 137.762 192.296 137.416ZM198.94 128.179V130.49H200.619V132.072H198.94V137.381C198.94 137.744 199.011 138.008 199.151 138.172C199.298 138.33 199.556 138.409 199.925 138.409C200.171 138.409 200.42 138.38 200.672 138.321V139.974C200.186 140.108 199.717 140.176 199.266 140.176C197.625 140.176 196.805 139.271 196.805 137.46V132.072H195.24V130.49H196.805V128.179H198.94ZM206.341 135.157C206.341 134.226 206.525 133.388 206.895 132.644C207.264 131.894 207.782 131.319 208.45 130.921C209.118 130.517 209.886 130.314 210.753 130.314C212.036 130.314 213.076 130.728 213.873 131.554C214.676 132.38 215.109 133.476 215.174 134.841L215.183 135.342C215.183 136.279 215.001 137.117 214.638 137.855C214.28 138.594 213.765 139.165 213.091 139.569C212.423 139.974 211.649 140.176 210.771 140.176C209.429 140.176 208.354 139.73 207.545 138.84C206.742 137.943 206.341 136.751 206.341 135.263V135.157ZM208.477 135.342C208.477 136.32 208.679 137.088 209.083 137.645C209.487 138.195 210.05 138.471 210.771 138.471C211.491 138.471 212.051 138.189 212.449 137.627C212.854 137.064 213.056 136.241 213.056 135.157C213.056 134.196 212.848 133.435 212.432 132.872C212.021 132.31 211.462 132.028 210.753 132.028C210.056 132.028 209.502 132.307 209.092 132.863C208.682 133.414 208.477 134.24 208.477 135.342ZM216.615 135.175C216.615 133.698 216.961 132.521 217.652 131.642C218.35 130.757 219.272 130.314 220.421 130.314C221.505 130.314 222.357 130.692 222.979 131.448L223.075 130.49H225V139.71C225 140.958 224.61 141.942 223.831 142.663C223.058 143.384 222.012 143.744 220.693 143.744C219.996 143.744 219.313 143.598 218.646 143.305C217.983 143.018 217.479 142.64 217.134 142.171L218.145 140.888C218.801 141.667 219.609 142.057 220.57 142.057C221.279 142.057 221.839 141.863 222.249 141.477C222.659 141.096 222.864 140.533 222.864 139.789V139.147C222.249 139.833 221.429 140.176 220.403 140.176C219.29 140.176 218.379 139.733 217.67 138.849C216.967 137.964 216.615 136.739 216.615 135.175ZM218.742 135.359C218.742 136.314 218.936 137.067 219.322 137.618C219.715 138.163 220.257 138.436 220.948 138.436C221.81 138.436 222.448 138.066 222.864 137.328V133.145C222.46 132.424 221.827 132.063 220.966 132.063C220.263 132.063 219.715 132.342 219.322 132.898C218.936 133.455 218.742 134.275 218.742 135.359ZM231.284 135.175C231.284 133.71 231.624 132.535 232.304 131.65C232.983 130.76 233.895 130.314 235.037 130.314C236.045 130.314 236.859 130.666 237.48 131.369V126.5H239.616V140H237.683L237.577 139.016C236.938 139.789 236.086 140.176 235.02 140.176C233.906 140.176 233.004 139.728 232.312 138.831C231.627 137.935 231.284 136.716 231.284 135.175ZM233.42 135.359C233.42 136.326 233.604 137.082 233.974 137.627C234.349 138.166 234.879 138.436 235.564 138.436C236.438 138.436 237.076 138.046 237.48 137.267V133.206C237.088 132.444 236.455 132.063 235.582 132.063C234.891 132.063 234.357 132.339 233.982 132.89C233.607 133.435 233.42 134.258 233.42 135.359ZM246.032 140.176C244.679 140.176 243.58 139.751 242.736 138.901C241.898 138.046 241.479 136.909 241.479 135.491V135.228C241.479 134.278 241.661 133.432 242.024 132.688C242.394 131.938 242.909 131.354 243.571 130.938C244.233 130.522 244.972 130.314 245.786 130.314C247.081 130.314 248.08 130.728 248.783 131.554C249.492 132.38 249.847 133.549 249.847 135.061V135.922H243.633C243.697 136.707 243.958 137.328 244.415 137.785C244.878 138.242 245.458 138.471 246.155 138.471C247.134 138.471 247.931 138.075 248.546 137.284L249.697 138.383C249.316 138.951 248.807 139.394 248.168 139.71C247.535 140.021 246.823 140.176 246.032 140.176ZM245.777 132.028C245.191 132.028 244.717 132.233 244.354 132.644C243.996 133.054 243.768 133.625 243.668 134.357H247.737V134.199C247.69 133.484 247.5 132.945 247.166 132.582C246.832 132.213 246.369 132.028 245.777 132.028ZM259.84 135.342C259.84 136.812 259.506 137.987 258.838 138.866C258.17 139.739 257.273 140.176 256.148 140.176C255.105 140.176 254.271 139.833 253.644 139.147V143.656H251.508V130.49H253.477L253.564 131.457C254.191 130.695 255.044 130.314 256.122 130.314C257.282 130.314 258.19 130.748 258.847 131.615C259.509 132.477 259.84 133.675 259.84 135.21V135.342ZM257.713 135.157C257.713 134.208 257.522 133.455 257.142 132.898C256.767 132.342 256.228 132.063 255.524 132.063C254.651 132.063 254.024 132.424 253.644 133.145V137.363C254.03 138.102 254.663 138.471 255.542 138.471C256.222 138.471 256.752 138.198 257.133 137.653C257.52 137.103 257.713 136.271 257.713 135.157ZM266.634 132.441C266.353 132.395 266.062 132.371 265.764 132.371C264.785 132.371 264.126 132.746 263.786 133.496V140H261.65V130.49H263.689L263.742 131.554C264.258 130.728 264.973 130.314 265.887 130.314C266.191 130.314 266.443 130.355 266.643 130.438L266.634 132.441ZM271.995 140.176C270.642 140.176 269.543 139.751 268.699 138.901C267.861 138.046 267.442 136.909 267.442 135.491V135.228C267.442 134.278 267.624 133.432 267.987 132.688C268.356 131.938 268.872 131.354 269.534 130.938C270.196 130.522 270.935 130.314 271.749 130.314C273.044 130.314 274.043 130.728 274.746 131.554C275.455 132.38 275.81 133.549 275.81 135.061V135.922H269.596C269.66 136.707 269.921 137.328 270.378 137.785C270.841 138.242 271.421 138.471 272.118 138.471C273.097 138.471 273.894 138.075 274.509 137.284L275.66 138.383C275.279 138.951 274.77 139.394 274.131 139.71C273.498 140.021 272.786 140.176 271.995 140.176ZM271.74 132.028C271.154 132.028 270.68 132.233 270.316 132.644C269.959 133.054 269.73 133.625 269.631 134.357H273.7V134.199C273.653 133.484 273.463 132.945 273.129 132.582C272.795 132.213 272.332 132.028 271.74 132.028ZM282.806 137.416C282.806 137.035 282.647 136.745 282.331 136.546C282.021 136.347 281.502 136.171 280.775 136.019C280.049 135.866 279.442 135.673 278.956 135.438C277.89 134.923 277.356 134.176 277.356 133.197C277.356 132.377 277.702 131.691 278.394 131.141C279.085 130.59 279.964 130.314 281.03 130.314C282.167 130.314 283.084 130.596 283.781 131.158C284.484 131.721 284.836 132.45 284.836 133.347H282.7C282.7 132.937 282.548 132.597 282.243 132.327C281.938 132.052 281.534 131.914 281.03 131.914C280.562 131.914 280.178 132.022 279.879 132.239C279.586 132.456 279.439 132.746 279.439 133.109C279.439 133.438 279.577 133.692 279.853 133.874C280.128 134.056 280.685 134.24 281.522 134.428C282.36 134.609 283.017 134.829 283.491 135.087C283.972 135.339 284.326 135.644 284.555 136.001C284.789 136.358 284.906 136.792 284.906 137.302C284.906 138.157 284.552 138.852 283.843 139.385C283.134 139.912 282.205 140.176 281.057 140.176C280.277 140.176 279.583 140.035 278.974 139.754C278.364 139.473 277.89 139.086 277.55 138.594C277.21 138.102 277.04 137.571 277.04 137.003H279.114C279.144 137.507 279.334 137.896 279.686 138.172C280.037 138.441 280.503 138.576 281.083 138.576C281.646 138.576 282.073 138.471 282.366 138.26C282.659 138.043 282.806 137.762 282.806 137.416ZM289.002 130.49V140.844C289.002 141.816 288.759 142.558 288.272 143.067C287.792 143.583 287.086 143.841 286.154 143.841C285.762 143.841 285.384 143.791 285.021 143.691V142.004C285.243 142.057 285.495 142.083 285.776 142.083C286.485 142.083 286.849 141.696 286.866 140.923V130.49H289.002ZM286.682 128.021C286.682 127.692 286.784 127.42 286.989 127.203C287.2 126.986 287.499 126.878 287.886 126.878C288.272 126.878 288.571 126.986 288.782 127.203C288.993 127.42 289.099 127.692 289.099 128.021C289.099 128.343 288.993 128.612 288.782 128.829C288.571 129.04 288.272 129.146 287.886 129.146C287.499 129.146 287.2 129.04 286.989 128.829C286.784 128.612 286.682 128.343 286.682 128.021ZM290.892 135.157C290.892 134.226 291.076 133.388 291.445 132.644C291.814 131.894 292.333 131.319 293.001 130.921C293.669 130.517 294.437 130.314 295.304 130.314C296.587 130.314 297.627 130.728 298.424 131.554C299.227 132.38 299.66 133.476 299.725 134.841L299.733 135.342C299.733 136.279 299.552 137.117 299.188 137.855C298.831 138.594 298.315 139.165 297.642 139.569C296.974 139.974 296.2 140.176 295.321 140.176C293.979 140.176 292.904 139.73 292.096 138.84C291.293 137.943 290.892 136.751 290.892 135.263V135.157ZM293.027 135.342C293.027 136.32 293.229 137.088 293.634 137.645C294.038 138.195 294.601 138.471 295.321 138.471C296.042 138.471 296.602 138.189 297 137.627C297.404 137.064 297.606 136.241 297.606 135.157C297.606 134.196 297.398 133.435 296.982 132.872C296.572 132.31 296.013 132.028 295.304 132.028C294.606 132.028 294.053 132.307 293.643 132.863C293.232 133.414 293.027 134.24 293.027 135.342ZM303.521 130.49L303.583 131.589C304.286 130.739 305.209 130.314 306.352 130.314C308.332 130.314 309.34 131.448 309.375 133.716V140H307.239V133.839C307.239 133.235 307.107 132.79 306.844 132.503C306.586 132.21 306.161 132.063 305.569 132.063C304.708 132.063 304.066 132.453 303.645 133.232V140H301.509V130.49H303.521ZM109.538 155.577H104.388V161H102.164V148.203H110.294V149.996H104.388V153.802H109.538V155.577ZM111.261 156.157C111.261 155.226 111.445 154.388 111.814 153.644C112.184 152.894 112.702 152.319 113.37 151.921C114.038 151.517 114.806 151.314 115.673 151.314C116.956 151.314 117.996 151.728 118.793 152.554C119.596 153.38 120.029 154.476 120.094 155.841L120.103 156.342C120.103 157.279 119.921 158.117 119.558 158.855C119.2 159.594 118.685 160.165 118.011 160.569C117.343 160.974 116.569 161.176 115.69 161.176C114.349 161.176 113.273 160.73 112.465 159.84C111.662 158.943 111.261 157.751 111.261 156.263V156.157ZM113.396 156.342C113.396 157.32 113.599 158.088 114.003 158.645C114.407 159.195 114.97 159.471 115.69 159.471C116.411 159.471 116.971 159.189 117.369 158.627C117.773 158.064 117.976 157.241 117.976 156.157C117.976 155.196 117.768 154.435 117.352 153.872C116.941 153.31 116.382 153.028 115.673 153.028C114.976 153.028 114.422 153.307 114.012 153.863C113.602 154.414 113.396 155.24 113.396 156.342ZM126.888 153.441C126.606 153.395 126.316 153.371 126.018 153.371C125.039 153.371 124.38 153.746 124.04 154.496V161H121.904V151.49H123.943L123.996 152.554C124.512 151.728 125.227 151.314 126.141 151.314C126.445 151.314 126.697 151.355 126.896 151.438L126.888 153.441ZM127.661 156.175C127.661 154.71 128.001 153.535 128.681 152.65C129.36 151.76 130.271 151.314 131.414 151.314C132.422 151.314 133.236 151.666 133.857 152.369V147.5H135.993V161H134.06L133.954 160.016C133.315 160.789 132.463 161.176 131.396 161.176C130.283 161.176 129.381 160.728 128.689 159.831C128.004 158.935 127.661 157.716 127.661 156.175ZM129.797 156.359C129.797 157.326 129.981 158.082 130.351 158.627C130.726 159.166 131.256 159.436 131.941 159.436C132.814 159.436 133.453 159.046 133.857 158.267V154.206C133.465 153.444 132.832 153.063 131.959 153.063C131.268 153.063 130.734 153.339 130.359 153.89C129.984 154.435 129.797 155.258 129.797 156.359ZM137.821 156.157C137.821 155.226 138.006 154.388 138.375 153.644C138.744 152.894 139.263 152.319 139.931 151.921C140.599 151.517 141.366 151.314 142.233 151.314C142.854 151.314 143.423 151.414 143.938 151.613L144.562 150.356H145.837L144.94 152.185C146.089 153.081 146.663 154.467 146.663 156.342C146.663 157.279 146.481 158.117 146.118 158.855C145.761 159.594 145.245 160.165 144.571 160.569C143.903 160.974 143.13 161.176 142.251 161.176C141.706 161.176 141.17 161.088 140.643 160.912L140.01 162.204H138.735L139.632 160.385C138.425 159.506 137.821 158.097 137.821 156.157ZM139.957 156.342C139.957 157.256 140.145 158 140.52 158.574L143.147 153.222C142.872 153.093 142.567 153.028 142.233 153.028C141.536 153.028 140.982 153.307 140.572 153.863C140.162 154.414 139.957 155.24 139.957 156.342ZM144.536 156.157C144.536 155.29 144.366 154.584 144.026 154.039L141.425 159.321C141.677 159.421 141.952 159.471 142.251 159.471C142.972 159.471 143.531 159.189 143.93 158.627C144.334 158.064 144.536 157.241 144.536 156.157ZM151.743 157.941L153.677 151.49H155.953L152.174 162.441C151.594 164.041 150.609 164.841 149.221 164.841C148.91 164.841 148.567 164.788 148.192 164.683V163.03L148.597 163.057C149.136 163.057 149.54 162.957 149.81 162.758C150.085 162.564 150.302 162.236 150.46 161.773L150.768 160.956L147.428 151.49H149.73L151.743 157.941ZM161.253 161.176C159.899 161.176 158.801 160.751 157.957 159.901C157.119 159.046 156.7 157.909 156.7 156.491V156.228C156.7 155.278 156.882 154.432 157.245 153.688C157.614 152.938 158.13 152.354 158.792 151.938C159.454 151.522 160.192 151.314 161.007 151.314C162.302 151.314 163.301 151.728 164.004 152.554C164.713 153.38 165.067 154.549 165.067 156.061V156.922H158.854C158.918 157.707 159.179 158.328 159.636 158.785C160.099 159.242 160.679 159.471 161.376 159.471C162.354 159.471 163.151 159.075 163.767 158.284L164.918 159.383C164.537 159.951 164.027 160.394 163.389 160.71C162.756 161.021 162.044 161.176 161.253 161.176ZM160.998 153.028C160.412 153.028 159.938 153.233 159.574 153.644C159.217 154.054 158.988 154.625 158.889 155.357H162.958V155.199C162.911 154.484 162.721 153.945 162.387 153.582C162.053 153.213 161.59 153.028 160.998 153.028ZM169.005 161H166.869V147.5H169.005V161ZM176.669 158.416C176.669 158.035 176.511 157.745 176.194 157.546C175.884 157.347 175.365 157.171 174.639 157.019C173.912 156.866 173.306 156.673 172.819 156.438C171.753 155.923 171.22 155.176 171.22 154.197C171.22 153.377 171.565 152.691 172.257 152.141C172.948 151.59 173.827 151.314 174.894 151.314C176.03 151.314 176.947 151.596 177.645 152.158C178.348 152.721 178.699 153.45 178.699 154.347H176.563C176.563 153.937 176.411 153.597 176.106 153.327C175.802 153.052 175.397 152.914 174.894 152.914C174.425 152.914 174.041 153.022 173.742 153.239C173.449 153.456 173.303 153.746 173.303 154.109C173.303 154.438 173.44 154.692 173.716 154.874C173.991 155.056 174.548 155.24 175.386 155.428C176.224 155.609 176.88 155.829 177.354 156.087C177.835 156.339 178.189 156.644 178.418 157.001C178.652 157.358 178.77 157.792 178.77 158.302C178.77 159.157 178.415 159.852 177.706 160.385C176.997 160.912 176.068 161.176 174.92 161.176C174.141 161.176 173.446 161.035 172.837 160.754C172.228 160.473 171.753 160.086 171.413 159.594C171.073 159.102 170.903 158.571 170.903 158.003H172.978C173.007 158.507 173.197 158.896 173.549 159.172C173.9 159.441 174.366 159.576 174.946 159.576C175.509 159.576 175.937 159.471 176.229 159.26C176.522 159.043 176.669 158.762 176.669 158.416ZM184.825 161.176C183.472 161.176 182.373 160.751 181.529 159.901C180.691 159.046 180.272 157.909 180.272 156.491V156.228C180.272 155.278 180.454 154.432 180.817 153.688C181.187 152.938 181.702 152.354 182.364 151.938C183.026 151.522 183.765 151.314 184.579 151.314C185.874 151.314 186.873 151.728 187.576 152.554C188.285 153.38 188.64 154.549 188.64 156.061V156.922H182.426C182.49 157.707 182.751 158.328 183.208 158.785C183.671 159.242 184.251 159.471 184.948 159.471C185.927 159.471 186.724 159.075 187.339 158.284L188.49 159.383C188.109 159.951 187.6 160.394 186.961 160.71C186.328 161.021 185.616 161.176 184.825 161.176ZM184.57 153.028C183.984 153.028 183.51 153.233 183.146 153.644C182.789 154.054 182.561 154.625 182.461 155.357H186.53V155.199C186.483 154.484 186.293 153.945 185.959 153.582C185.625 153.213 185.162 153.028 184.57 153.028ZM195.636 158.416C195.636 158.035 195.478 157.745 195.161 157.546C194.851 157.347 194.332 157.171 193.605 157.019C192.879 156.866 192.272 156.673 191.786 156.438C190.72 155.923 190.187 155.176 190.187 154.197C190.187 153.377 190.532 152.691 191.224 152.141C191.915 151.59 192.794 151.314 193.86 151.314C194.997 151.314 195.914 151.596 196.611 152.158C197.314 152.721 197.666 153.45 197.666 154.347H195.53C195.53 153.937 195.378 153.597 195.073 153.327C194.769 153.052 194.364 152.914 193.86 152.914C193.392 152.914 193.008 153.022 192.709 153.239C192.416 153.456 192.27 153.746 192.27 154.109C192.27 154.438 192.407 154.692 192.683 154.874C192.958 155.056 193.515 155.24 194.353 155.428C195.19 155.609 195.847 155.829 196.321 156.087C196.802 156.339 197.156 156.644 197.385 157.001C197.619 157.358 197.736 157.792 197.736 158.302C197.736 159.157 197.382 159.852 196.673 160.385C195.964 160.912 195.035 161.176 193.887 161.176C193.107 161.176 192.413 161.035 191.804 160.754C191.194 160.473 190.72 160.086 190.38 159.594C190.04 159.102 189.87 158.571 189.87 158.003H191.944C191.974 158.507 192.164 158.896 192.516 159.172C192.867 159.441 193.333 159.576 193.913 159.576C194.476 159.576 194.903 159.471 195.196 159.26C195.489 159.043 195.636 158.762 195.636 158.416ZM207.932 156.342C207.932 157.812 207.598 158.987 206.93 159.866C206.262 160.739 205.365 161.176 204.24 161.176C203.197 161.176 202.362 160.833 201.735 160.147V164.656H199.6V151.49H201.568L201.656 152.457C202.283 151.695 203.136 151.314 204.214 151.314C205.374 151.314 206.282 151.748 206.938 152.615C207.601 153.477 207.932 154.675 207.932 156.21V156.342ZM205.805 156.157C205.805 155.208 205.614 154.455 205.233 153.898C204.858 153.342 204.319 153.063 203.616 153.063C202.743 153.063 202.116 153.424 201.735 154.145V158.363C202.122 159.102 202.755 159.471 203.634 159.471C204.313 159.471 204.844 159.198 205.225 158.653C205.611 158.103 205.805 157.271 205.805 156.157ZM214.726 153.441C214.444 153.395 214.154 153.371 213.855 153.371C212.877 153.371 212.218 153.746 211.878 154.496V161H209.742V151.49H211.781L211.834 152.554C212.35 151.728 213.064 151.314 213.979 151.314C214.283 151.314 214.535 151.355 214.734 151.438L214.726 153.441ZM215.358 156.157C215.358 155.226 215.543 154.388 215.912 153.644C216.281 152.894 216.8 152.319 217.468 151.921C218.136 151.517 218.903 151.314 219.771 151.314C221.054 151.314 222.094 151.728 222.891 152.554C223.693 153.38 224.127 154.476 224.191 155.841L224.2 156.342C224.2 157.279 224.019 158.117 223.655 158.855C223.298 159.594 222.782 160.165 222.108 160.569C221.44 160.974 220.667 161.176 219.788 161.176C218.446 161.176 217.371 160.73 216.562 159.84C215.76 158.943 215.358 157.751 215.358 156.263V156.157ZM217.494 156.342C217.494 157.32 217.696 158.088 218.101 158.645C218.505 159.195 219.067 159.471 219.788 159.471C220.509 159.471 221.068 159.189 221.467 158.627C221.871 158.064 222.073 157.241 222.073 156.157C222.073 155.196 221.865 154.435 221.449 153.872C221.039 153.31 220.479 153.028 219.771 153.028C219.073 153.028 218.52 153.307 218.109 153.863C217.699 154.414 217.494 155.24 217.494 156.342ZM234.352 156.342C234.352 157.818 234.021 158.993 233.358 159.866C232.702 160.739 231.797 161.176 230.643 161.176C229.529 161.176 228.662 160.774 228.041 159.972L227.936 161H226.002V147.5H228.138V152.404C228.753 151.678 229.582 151.314 230.625 151.314C231.785 151.314 232.696 151.745 233.358 152.606C234.021 153.468 234.352 154.672 234.352 156.219V156.342ZM232.216 156.157C232.216 155.126 232.034 154.353 231.671 153.837C231.308 153.321 230.78 153.063 230.089 153.063C229.163 153.063 228.513 153.468 228.138 154.276V158.196C228.519 159.022 229.175 159.436 230.106 159.436C230.774 159.436 231.29 159.187 231.653 158.688C232.017 158.19 232.204 157.438 232.216 156.43V156.157ZM238.421 161H236.285V147.5H238.421V161ZM244.942 161.176C243.589 161.176 242.49 160.751 241.646 159.901C240.809 159.046 240.39 157.909 240.39 156.491V156.228C240.39 155.278 240.571 154.432 240.935 153.688C241.304 152.938 241.819 152.354 242.481 151.938C243.144 151.522 243.882 151.314 244.696 151.314C245.991 151.314 246.99 151.728 247.693 152.554C248.402 153.38 248.757 154.549 248.757 156.061V156.922H242.543C242.607 157.707 242.868 158.328 243.325 158.785C243.788 159.242 244.368 159.471 245.065 159.471C246.044 159.471 246.841 159.075 247.456 158.284L248.607 159.383C248.227 159.951 247.717 160.394 247.078 160.71C246.445 161.021 245.733 161.176 244.942 161.176ZM244.688 153.028C244.102 153.028 243.627 153.233 243.264 153.644C242.906 154.054 242.678 154.625 242.578 155.357H246.647V155.199C246.601 154.484 246.41 153.945 246.076 153.582C245.742 153.213 245.279 153.028 244.688 153.028ZM252.431 151.49L252.492 152.483C253.16 151.704 254.074 151.314 255.234 151.314C256.506 151.314 257.376 151.801 257.845 152.773C258.536 151.801 259.509 151.314 260.763 151.314C261.812 151.314 262.591 151.604 263.101 152.185C263.616 152.765 263.88 153.62 263.892 154.751V161H261.756V154.812C261.756 154.209 261.624 153.767 261.36 153.485C261.097 153.204 260.66 153.063 260.051 153.063C259.564 153.063 259.166 153.195 258.855 153.459C258.551 153.717 258.337 154.057 258.214 154.479L258.223 161H256.087V154.742C256.058 153.623 255.486 153.063 254.373 153.063C253.518 153.063 252.911 153.412 252.554 154.109V161H250.418V151.49H252.431ZM271.767 161C271.673 160.818 271.591 160.522 271.521 160.112C270.841 160.821 270.009 161.176 269.024 161.176C268.069 161.176 267.29 160.903 266.687 160.358C266.083 159.813 265.781 159.14 265.781 158.337C265.781 157.323 266.156 156.547 266.906 156.008C267.662 155.463 268.74 155.19 270.141 155.19H271.45V154.566C271.45 154.074 271.312 153.682 271.037 153.389C270.762 153.09 270.343 152.94 269.78 152.94C269.294 152.94 268.896 153.063 268.585 153.31C268.274 153.55 268.119 153.857 268.119 154.232H265.983C265.983 153.711 266.156 153.225 266.502 152.773C266.848 152.316 267.316 151.959 267.908 151.701C268.506 151.443 269.171 151.314 269.903 151.314C271.017 151.314 271.904 151.596 272.566 152.158C273.229 152.715 273.568 153.5 273.586 154.514V158.803C273.586 159.658 273.706 160.341 273.946 160.851V161H271.767ZM269.42 159.462C269.842 159.462 270.237 159.359 270.606 159.154C270.981 158.949 271.263 158.674 271.45 158.328V156.535H270.299C269.508 156.535 268.913 156.673 268.515 156.948C268.116 157.224 267.917 157.613 267.917 158.117C267.917 158.527 268.052 158.855 268.321 159.102C268.597 159.342 268.963 159.462 269.42 159.462ZM278.499 149.179V151.49H280.178V153.072H278.499V158.381C278.499 158.744 278.569 159.008 278.71 159.172C278.856 159.33 279.114 159.409 279.483 159.409C279.729 159.409 279.979 159.38 280.23 159.321V160.974C279.744 161.108 279.275 161.176 278.824 161.176C277.184 161.176 276.363 160.271 276.363 158.46V153.072H274.799V151.49H276.363V149.179H278.499ZM284.089 161H281.953V151.49H284.089V161ZM281.821 149.021C281.821 148.692 281.924 148.42 282.129 148.203C282.34 147.986 282.639 147.878 283.025 147.878C283.412 147.878 283.711 147.986 283.922 148.203C284.133 148.42 284.238 148.692 284.238 149.021C284.238 149.343 284.133 149.612 283.922 149.829C283.711 150.04 283.412 150.146 283.025 150.146C282.639 150.146 282.34 150.04 282.129 149.829C281.924 149.612 281.821 149.343 281.821 149.021ZM289.512 156.922L288.562 157.897V161H286.427V147.5H288.562V155.287L289.23 154.452L291.858 151.49H294.425L290.892 155.454L294.803 161H292.333L289.512 156.922ZM298.916 156.922L297.967 157.897V161H295.831V147.5H297.967V155.287L298.635 154.452L301.263 151.49H303.829L300.296 155.454L304.207 161H301.737L298.916 156.922ZM149.256 178.704C149.256 178.142 149.057 177.708 148.658 177.403C148.266 177.099 147.554 176.791 146.522 176.48C145.491 176.17 144.671 175.824 144.062 175.443C142.896 174.711 142.312 173.756 142.312 172.578C142.312 171.547 142.731 170.697 143.569 170.029C144.413 169.361 145.506 169.027 146.848 169.027C147.738 169.027 148.532 169.191 149.229 169.52C149.927 169.848 150.475 170.316 150.873 170.926C151.271 171.529 151.471 172.2 151.471 172.938H149.256C149.256 172.271 149.045 171.749 148.623 171.374C148.207 170.993 147.609 170.803 146.83 170.803C146.104 170.803 145.538 170.958 145.134 171.269C144.735 171.579 144.536 172.013 144.536 172.569C144.536 173.038 144.753 173.431 145.187 173.747C145.62 174.058 146.335 174.362 147.331 174.661C148.327 174.954 149.127 175.291 149.73 175.672C150.334 176.047 150.776 176.48 151.058 176.973C151.339 177.459 151.479 178.03 151.479 178.687C151.479 179.753 151.069 180.603 150.249 181.235C149.435 181.862 148.327 182.176 146.927 182.176C146.001 182.176 145.148 182.006 144.369 181.666C143.596 181.32 142.992 180.846 142.559 180.242C142.131 179.639 141.917 178.936 141.917 178.133H144.141C144.141 178.859 144.381 179.422 144.861 179.82C145.342 180.219 146.03 180.418 146.927 180.418C147.7 180.418 148.28 180.263 148.667 179.952C149.06 179.636 149.256 179.22 149.256 178.704ZM152.824 177.157C152.824 176.226 153.009 175.388 153.378 174.644C153.747 173.894 154.266 173.319 154.934 172.921C155.602 172.517 156.369 172.314 157.236 172.314C157.857 172.314 158.426 172.414 158.941 172.613L159.565 171.356H160.84L159.943 173.185C161.092 174.081 161.666 175.467 161.666 177.342C161.666 178.279 161.484 179.117 161.121 179.855C160.764 180.594 160.248 181.165 159.574 181.569C158.906 181.974 158.133 182.176 157.254 182.176C156.709 182.176 156.173 182.088 155.646 181.912L155.013 183.204H153.738L154.635 181.385C153.428 180.506 152.824 179.097 152.824 177.157ZM154.96 177.342C154.96 178.256 155.147 179 155.522 179.574L158.15 174.222C157.875 174.093 157.57 174.028 157.236 174.028C156.539 174.028 155.985 174.307 155.575 174.863C155.165 175.414 154.96 176.24 154.96 177.342ZM159.539 177.157C159.539 176.29 159.369 175.584 159.029 175.039L156.428 180.321C156.68 180.421 156.955 180.471 157.254 180.471C157.975 180.471 158.534 180.189 158.933 179.627C159.337 179.064 159.539 178.241 159.539 177.157ZM166.772 179.293L168.785 172.49H170.991L167.695 182H165.841L162.519 172.49H164.733L166.772 179.293ZM174.313 172.49L174.375 173.589C175.078 172.739 176.001 172.314 177.144 172.314C179.124 172.314 180.132 173.448 180.167 175.716V182H178.031V175.839C178.031 175.235 177.899 174.79 177.636 174.503C177.378 174.21 176.953 174.063 176.361 174.063C175.5 174.063 174.858 174.453 174.437 175.232V182H172.301V172.49H174.313ZM190.679 177.342C190.679 178.812 190.345 179.987 189.677 180.866C189.009 181.739 188.112 182.176 186.987 182.176C185.944 182.176 185.109 181.833 184.482 181.147V185.656H182.347V172.49H184.315L184.403 173.457C185.03 172.695 185.883 172.314 186.961 172.314C188.121 172.314 189.029 172.748 189.686 173.615C190.348 174.477 190.679 175.675 190.679 177.21V177.342ZM188.552 177.157C188.552 176.208 188.361 175.455 187.98 174.898C187.605 174.342 187.066 174.063 186.363 174.063C185.49 174.063 184.863 174.424 184.482 175.145V179.363C184.869 180.102 185.502 180.471 186.381 180.471C187.061 180.471 187.591 180.198 187.972 179.653C188.358 179.103 188.552 178.271 188.552 177.157ZM197.473 174.441C197.191 174.395 196.901 174.371 196.603 174.371C195.624 174.371 194.965 174.746 194.625 175.496V182H192.489V172.49H194.528L194.581 173.554C195.097 172.728 195.812 172.314 196.726 172.314C197.03 172.314 197.282 172.355 197.481 172.438L197.473 174.441ZM198.105 177.157C198.105 176.226 198.29 175.388 198.659 174.644C199.028 173.894 199.547 173.319 200.215 172.921C200.883 172.517 201.65 172.314 202.518 172.314C203.801 172.314 204.841 172.728 205.638 173.554C206.44 174.38 206.874 175.476 206.938 176.841L206.947 177.342C206.947 178.279 206.766 179.117 206.402 179.855C206.045 180.594 205.529 181.165 204.855 181.569C204.188 181.974 203.414 182.176 202.535 182.176C201.193 182.176 200.118 181.73 199.31 180.84C198.507 179.943 198.105 178.751 198.105 177.263V177.157ZM200.241 177.342C200.241 178.32 200.443 179.088 200.848 179.645C201.252 180.195 201.814 180.471 202.535 180.471C203.256 180.471 203.815 180.189 204.214 179.627C204.618 179.064 204.82 178.241 204.82 177.157C204.82 176.196 204.612 175.435 204.196 174.872C203.786 174.31 203.227 174.028 202.518 174.028C201.82 174.028 201.267 174.307 200.856 174.863C200.446 175.414 200.241 176.24 200.241 177.342ZM217.099 177.342C217.099 178.818 216.768 179.993 216.105 180.866C215.449 181.739 214.544 182.176 213.39 182.176C212.276 182.176 211.409 181.774 210.788 180.972L210.683 182H208.749V168.5H210.885V173.404C211.5 172.678 212.329 172.314 213.372 172.314C214.532 172.314 215.443 172.745 216.105 173.606C216.768 174.468 217.099 175.672 217.099 177.219V177.342ZM214.963 177.157C214.963 176.126 214.781 175.353 214.418 174.837C214.055 174.321 213.527 174.063 212.836 174.063C211.91 174.063 211.26 174.468 210.885 175.276V179.196C211.266 180.022 211.922 180.436 212.854 180.436C213.521 180.436 214.037 180.187 214.4 179.688C214.764 179.19 214.951 178.438 214.963 177.43V177.157ZM221.168 182H219.032V168.5H221.168V182ZM227.689 182.176C226.336 182.176 225.237 181.751 224.394 180.901C223.556 180.046 223.137 178.909 223.137 177.491V177.228C223.137 176.278 223.318 175.432 223.682 174.688C224.051 173.938 224.566 173.354 225.229 172.938C225.891 172.522 226.629 172.314 227.443 172.314C228.738 172.314 229.737 172.728 230.44 173.554C231.149 174.38 231.504 175.549 231.504 177.061V177.922H225.29C225.354 178.707 225.615 179.328 226.072 179.785C226.535 180.242 227.115 180.471 227.812 180.471C228.791 180.471 229.588 180.075 230.203 179.284L231.354 180.383C230.974 180.951 230.464 181.394 229.825 181.71C229.192 182.021 228.48 182.176 227.689 182.176ZM227.435 174.028C226.849 174.028 226.374 174.233 226.011 174.644C225.653 175.054 225.425 175.625 225.325 176.357H229.395V176.199C229.348 175.484 229.157 174.945 228.823 174.582C228.489 174.213 228.026 174.028 227.435 174.028ZM235.178 172.49L235.239 173.483C235.907 172.704 236.821 172.314 237.981 172.314C239.253 172.314 240.123 172.801 240.592 173.773C241.283 172.801 242.256 172.314 243.51 172.314C244.559 172.314 245.338 172.604 245.848 173.185C246.363 173.765 246.627 174.62 246.639 175.751V182H244.503V175.812C244.503 175.209 244.371 174.767 244.107 174.485C243.844 174.204 243.407 174.063 242.798 174.063C242.312 174.063 241.913 174.195 241.603 174.459C241.298 174.717 241.084 175.057 240.961 175.479L240.97 182H238.834V175.742C238.805 174.623 238.233 174.063 237.12 174.063C236.265 174.063 235.658 174.412 235.301 175.109V182H233.165V172.49H235.178ZM253.02 182.176C251.666 182.176 250.567 181.751 249.724 180.901C248.886 180.046 248.467 178.909 248.467 177.491V177.228C248.467 176.278 248.648 175.432 249.012 174.688C249.381 173.938 249.896 173.354 250.559 172.938C251.221 172.522 251.959 172.314 252.773 172.314C254.068 172.314 255.067 172.728 255.771 173.554C256.479 174.38 256.834 175.549 256.834 177.061V177.922H250.62C250.685 178.707 250.945 179.328 251.402 179.785C251.865 180.242 252.445 180.471 253.143 180.471C254.121 180.471 254.918 180.075 255.533 179.284L256.685 180.383C256.304 180.951 255.794 181.394 255.155 181.71C254.522 182.021 253.811 182.176 253.02 182.176ZM252.765 174.028C252.179 174.028 251.704 174.233 251.341 174.644C250.983 175.054 250.755 175.625 250.655 176.357H254.725V176.199C254.678 175.484 254.487 174.945 254.153 174.582C253.819 174.213 253.356 174.028 252.765 174.028ZM263.479 174.441C263.197 174.395 262.907 174.371 262.608 174.371C261.63 174.371 260.971 174.746 260.631 175.496V182H258.495V172.49H260.534L260.587 173.554C261.103 172.728 261.817 172.314 262.731 172.314C263.036 172.314 263.288 172.355 263.487 172.438L263.479 174.441ZM158.739 197.472L157.289 199.01V203H155.065V190.203H157.289V196.206L158.52 194.686L162.264 190.203H164.953L160.198 195.872L165.226 203H162.589L158.739 197.472ZM169.216 200.293L171.229 193.49H173.435L170.139 203H168.284L164.962 193.49H167.177L169.216 200.293ZM177.047 203H174.911V193.49H177.047V203ZM174.779 191.021C174.779 190.692 174.882 190.42 175.087 190.203C175.298 189.986 175.597 189.878 175.983 189.878C176.37 189.878 176.669 189.986 176.88 190.203C177.091 190.42 177.196 190.692 177.196 191.021C177.196 191.343 177.091 191.612 176.88 191.829C176.669 192.04 176.37 192.146 175.983 192.146C175.597 192.146 175.298 192.04 175.087 191.829C174.882 191.612 174.779 191.343 174.779 191.021ZM181.362 193.49L181.424 194.589C182.127 193.739 183.05 193.314 184.192 193.314C186.173 193.314 187.181 194.448 187.216 196.716V203H185.08V196.839C185.08 196.235 184.948 195.79 184.685 195.503C184.427 195.21 184.002 195.063 183.41 195.063C182.549 195.063 181.907 195.453 181.485 196.232V203H179.35V193.49H181.362ZM191.382 193.49L191.443 194.589C192.146 193.739 193.069 193.314 194.212 193.314C196.192 193.314 197.2 194.448 197.235 196.716V203H195.1V196.839C195.1 196.235 194.968 195.79 194.704 195.503C194.446 195.21 194.021 195.063 193.43 195.063C192.568 195.063 191.927 195.453 191.505 196.232V203H189.369V193.49H191.382ZM203.607 203.176C202.254 203.176 201.155 202.751 200.312 201.901C199.474 201.046 199.055 199.909 199.055 198.491V198.228C199.055 197.278 199.236 196.432 199.6 195.688C199.969 194.938 200.484 194.354 201.146 193.938C201.809 193.522 202.547 193.314 203.361 193.314C204.656 193.314 205.655 193.728 206.358 194.554C207.067 195.38 207.422 196.549 207.422 198.061V198.922H201.208C201.272 199.707 201.533 200.328 201.99 200.785C202.453 201.242 203.033 201.471 203.73 201.471C204.709 201.471 205.506 201.075 206.121 200.284L207.272 201.383C206.892 201.951 206.382 202.394 205.743 202.71C205.11 203.021 204.398 203.176 203.607 203.176ZM203.353 195.028C202.767 195.028 202.292 195.233 201.929 195.644C201.571 196.054 201.343 196.625 201.243 197.357H205.312V197.199C205.266 196.484 205.075 195.945 204.741 195.582C204.407 195.213 203.944 195.028 203.353 195.028ZM211.192 194.527C211.89 193.719 212.771 193.314 213.838 193.314C215.865 193.314 216.894 194.472 216.923 196.786V203H214.787V196.865C214.787 196.209 214.644 195.746 214.356 195.477C214.075 195.201 213.659 195.063 213.108 195.063C212.253 195.063 211.614 195.444 211.192 196.206V203H209.057V189.5H211.192V194.527ZM223.277 203.176C221.924 203.176 220.825 202.751 219.981 201.901C219.144 201.046 218.725 199.909 218.725 198.491V198.228C218.725 197.278 218.906 196.432 219.27 195.688C219.639 194.938 220.154 194.354 220.816 193.938C221.479 193.522 222.217 193.314 223.031 193.314C224.326 193.314 225.325 193.728 226.028 194.554C226.737 195.38 227.092 196.549 227.092 198.061V198.922H220.878C220.942 199.707 221.203 200.328 221.66 200.785C222.123 201.242 222.703 201.471 223.4 201.471C224.379 201.471 225.176 201.075 225.791 200.284L226.942 201.383C226.562 201.951 226.052 202.394 225.413 202.71C224.78 203.021 224.068 203.176 223.277 203.176ZM223.022 195.028C222.437 195.028 221.962 195.233 221.599 195.644C221.241 196.054 221.013 196.625 220.913 197.357H224.982V197.199C224.936 196.484 224.745 195.945 224.411 195.582C224.077 195.213 223.614 195.028 223.022 195.028ZM231.029 203H228.894V189.5H231.029V203ZM238.693 200.416C238.693 200.035 238.535 199.745 238.219 199.546C237.908 199.347 237.39 199.171 236.663 199.019C235.937 198.866 235.33 198.673 234.844 198.438C233.777 197.923 233.244 197.176 233.244 196.197C233.244 195.377 233.59 194.691 234.281 194.141C234.973 193.59 235.852 193.314 236.918 193.314C238.055 193.314 238.972 193.596 239.669 194.158C240.372 194.721 240.724 195.45 240.724 196.347H238.588C238.588 195.937 238.436 195.597 238.131 195.327C237.826 195.052 237.422 194.914 236.918 194.914C236.449 194.914 236.065 195.022 235.767 195.239C235.474 195.456 235.327 195.746 235.327 196.109C235.327 196.438 235.465 196.692 235.74 196.874C236.016 197.056 236.572 197.24 237.41 197.428C238.248 197.609 238.904 197.829 239.379 198.087C239.859 198.339 240.214 198.644 240.442 199.001C240.677 199.358 240.794 199.792 240.794 200.302C240.794 201.157 240.439 201.852 239.73 202.385C239.021 202.912 238.093 203.176 236.944 203.176C236.165 203.176 235.471 203.035 234.861 202.754C234.252 202.473 233.777 202.086 233.438 201.594C233.098 201.102 232.928 200.571 232.928 200.003H235.002C235.031 200.507 235.222 200.896 235.573 201.172C235.925 201.441 236.391 201.576 236.971 201.576C237.533 201.576 237.961 201.471 238.254 201.26C238.547 201.043 238.693 200.762 238.693 200.416ZM246.85 203.176C245.496 203.176 244.397 202.751 243.554 201.901C242.716 201.046 242.297 199.909 242.297 198.491V198.228C242.297 197.278 242.479 196.432 242.842 195.688C243.211 194.938 243.727 194.354 244.389 193.938C245.051 193.522 245.789 193.314 246.604 193.314C247.898 193.314 248.897 193.728 249.601 194.554C250.31 195.38 250.664 196.549 250.664 198.061V198.922H244.45C244.515 199.707 244.775 200.328 245.232 200.785C245.695 201.242 246.275 201.471 246.973 201.471C247.951 201.471 248.748 201.075 249.363 200.284L250.515 201.383C250.134 201.951 249.624 202.394 248.985 202.71C248.353 203.021 247.641 203.176 246.85 203.176ZM246.595 195.028C246.009 195.028 245.534 195.233 245.171 195.644C244.813 196.054 244.585 196.625 244.485 197.357H248.555V197.199C248.508 196.484 248.317 195.945 247.983 195.582C247.649 195.213 247.187 195.028 246.595 195.028ZM185.045 221.021H180.088L179.051 224H176.739L181.573 211.203H183.568L188.411 224H186.091L185.045 221.021ZM180.712 219.228H184.421L182.566 213.919L180.712 219.228ZM191.936 224H189.8V210.5H191.936V224ZM196.541 224H194.405V210.5H196.541V224ZM203.062 224.176C201.709 224.176 200.61 223.751 199.767 222.901C198.929 222.046 198.51 220.909 198.51 219.491V219.228C198.51 218.278 198.691 217.432 199.055 216.688C199.424 215.938 199.939 215.354 200.602 214.938C201.264 214.522 202.002 214.314 202.816 214.314C204.111 214.314 205.11 214.728 205.813 215.554C206.522 216.38 206.877 217.549 206.877 219.061V219.922H200.663C200.728 220.707 200.988 221.328 201.445 221.785C201.908 222.242 202.488 222.471 203.186 222.471C204.164 222.471 204.961 222.075 205.576 221.284L206.728 222.383C206.347 222.951 205.837 223.394 205.198 223.71C204.565 224.021 203.854 224.176 203.062 224.176ZM202.808 216.028C202.222 216.028 201.747 216.233 201.384 216.644C201.026 217.054 200.798 217.625 200.698 218.357H204.768V218.199C204.721 217.484 204.53 216.945 204.196 216.582C203.862 216.213 203.399 216.028 202.808 216.028ZM213.521 216.441C213.24 216.395 212.95 216.371 212.651 216.371C211.673 216.371 211.014 216.746 210.674 217.496V224H208.538V214.49H210.577L210.63 215.554C211.146 214.728 211.86 214.314 212.774 214.314C213.079 214.314 213.331 214.355 213.53 214.438L213.521 216.441ZM214.321 219.175C214.321 217.698 214.667 216.521 215.358 215.642C216.056 214.757 216.979 214.314 218.127 214.314C219.211 214.314 220.063 214.692 220.685 215.448L220.781 214.49H222.706V223.71C222.706 224.958 222.316 225.942 221.537 226.663C220.764 227.384 219.718 227.744 218.399 227.744C217.702 227.744 217.02 227.598 216.352 227.305C215.689 227.018 215.186 226.64 214.84 226.171L215.851 224.888C216.507 225.667 217.315 226.057 218.276 226.057C218.985 226.057 219.545 225.863 219.955 225.477C220.365 225.096 220.57 224.533 220.57 223.789V223.147C219.955 223.833 219.135 224.176 218.109 224.176C216.996 224.176 216.085 223.733 215.376 222.849C214.673 221.964 214.321 220.739 214.321 219.175ZM216.448 219.359C216.448 220.314 216.642 221.067 217.028 221.618C217.421 222.163 217.963 222.436 218.654 222.436C219.516 222.436 220.154 222.066 220.57 221.328V217.145C220.166 216.424 219.533 216.063 218.672 216.063C217.969 216.063 217.421 216.342 217.028 216.898C216.642 217.455 216.448 218.275 216.448 219.359ZM227.18 224H225.044V214.49H227.18V224ZM224.912 212.021C224.912 211.692 225.015 211.42 225.22 211.203C225.431 210.986 225.729 210.878 226.116 210.878C226.503 210.878 226.802 210.986 227.013 211.203C227.224 211.42 227.329 211.692 227.329 212.021C227.329 212.343 227.224 212.612 227.013 212.829C226.802 213.04 226.503 213.146 226.116 213.146C225.729 213.146 225.431 213.04 225.22 212.829C225.015 212.612 224.912 212.343 224.912 212.021Z" fill="#333333"/>
<g filter="url(#filter2_d)">
<path fill-rule="evenodd" clip-rule="evenodd" d="M45.2858 108.076C43.2913 106.698 41.6811 104.784 41.2018 102.28C39.8208 95.066 50.0625 93.9608 52.9215 97.0163C55.7804 100.072 57.9555 109.198 55.6538 110.506C54.7359 111.027 52.4712 110.972 49.9925 110.26L53.8548 119.41L45.9364 121.555L45.2858 108.076Z" fill="#915B3C"/>
<path fill-rule="evenodd" clip-rule="evenodd" d="M54.0791 98.4107C53.8779 97.9689 53.5501 97.5066 53.2795 97.1103C52.9306 96.5995 52.4942 96.1719 52.0354 95.7818C51.1715 95.0473 50.2063 94.4341 49.1999 93.9807C47.3617 93.1526 45.2502 92.9593 43.4215 93.7023C42.4981 94.0774 41.6687 94.6936 41.0416 95.5153C40.475 96.2577 40.0045 97.2522 39.0974 97.5599C38.1103 97.8947 36.9541 97.2541 36.0033 96.9225C34.9313 96.5487 33.8459 96.3586 32.7385 96.4702C30.8833 96.6572 29.3738 97.7117 28.5375 99.507C27.6476 101.417 27.3065 103.958 28.7102 105.791C28.9711 106.132 29.2616 106.4 29.6265 106.588C29.9612 106.761 30.442 106.911 30.6555 107.275C30.8824 107.661 30.6787 108.293 30.6443 108.706C30.5951 109.298 30.5874 109.908 30.7993 110.479C31.1473 111.418 31.9946 112.175 32.7995 112.636C33.6186 113.105 34.5143 113.259 35.4115 113.198C36.0105 113.158 36.6085 113.064 37.1753 112.865C37.4567 112.766 37.6888 112.617 37.9499 112.478C38.2039 112.343 38.3742 112.374 38.6431 112.461C39.8925 112.865 41.1096 112.822 42.3129 112.387C43.3285 112.019 44.4586 111.442 45.1163 110.498C45.8466 109.45 45.5375 108.361 45.0058 107.252C45.2714 107.305 45.9395 107.202 45.4282 106.842C45.2257 106.699 44.9155 106.702 44.6896 106.647C44.4266 106.583 44.1503 106.483 43.9174 106.326C42.9771 105.689 43.2551 103.801 44.0857 103.277C45.3197 102.5 46.127 104.327 47.2174 104.561C47.8443 104.695 48.3184 104.151 48.6266 103.643C49.0394 102.963 49.2301 102.158 49.366 101.354C49.478 100.693 49.5692 100.028 49.6871 99.3676C49.7421 99.0593 49.9789 98.1659 49.6747 97.9165C50.5862 97.4633 51.7649 97.5749 52.7337 97.8773C53.1341 98.0023 53.4591 98.1717 53.7438 98.5066C53.8048 98.5784 53.9551 98.8002 54.0648 98.7813C54.269 98.7461 54.1296 98.5217 54.0791 98.4107Z" fill="#474746"/>
<path fill-rule="evenodd" clip-rule="evenodd" d="M37.2939 182.683C45.4667 184.983 52.5179 186.134 58.4476 186.134C64.3773 186.134 69.8851 184.362 74.9709 180.819C66.9731 178.458 60.3865 177.277 55.2112 177.277C50.0359 177.277 44.0635 179.079 37.2939 182.683Z" fill="#ABC1C4"/>
<path fill-rule="evenodd" clip-rule="evenodd" d="M65.5227 189.45C65.4439 189.331 65.3773 189.201 65.3245 189.061C64.2321 186.153 46.734 154.784 44.9907 149.049H64.6912C66.0166 153.41 71.9821 180.773 72.8217 186.233C75.4706 194.844 80.9245 222.735 81.6207 224.667C82.3532 226.699 78.232 228.817 77.1339 226.318C75.3865 222.342 71.223 211.34 69.3691 204.623C67.6311 198.325 66.216 192.659 65.5227 189.45Z" fill="#784931"/>
<path fill-rule="evenodd" clip-rule="evenodd" d="M49.405 193.28C41.4051 195.315 12.1433 198.994 10.1352 199.571C8.06955 200.164 6.25834 195.879 8.81163 194.951C12.8744 193.474 24.069 190.061 30.8563 188.668C36.3157 187.548 41.2974 186.634 44.642 186.098C44.3586 176.643 43.0634 153.95 43.9123 149.049H61.3436C60.5295 153.749 53.6476 188.042 52.3684 191.474C51.9625 192.7 50.7513 193.242 49.405 193.28Z" fill="#915B3C"/>
<path fill-rule="evenodd" clip-rule="evenodd" d="M9.00645 193.812C7.93653 193.613 7.15235 193.558 6.6539 193.646C6.04767 193.754 5.18073 194.013 4.05307 194.423C4.17633 195.13 5.28405 201.476 7.37624 213.462C9.09156 213.667 9.92114 213.225 9.86496 212.136C9.80879 211.047 9.77151 210.14 9.75311 209.416L12.1374 199.868C12.1833 199.684 12.0723 199.498 11.8894 199.452C11.8863 199.451 11.8832 199.451 11.88 199.45L10.4066 199.126C9.7758 198.221 9.40657 197.46 9.29888 196.843C9.21139 196.341 9.29218 195.613 9.54125 194.658L9.54125 194.658C9.63683 194.292 9.41868 193.917 9.054 193.822C9.03829 193.818 9.02243 193.814 9.00645 193.812Z" fill="#D3C4C4"/>
<path fill-rule="evenodd" clip-rule="evenodd" d="M75.8833 225.994C75.5022 227.018 75.3116 227.785 75.3116 228.293C75.3116 228.911 75.4139 229.814 75.6186 231C76.3313 231 82.7364 231 94.8338 231C95.3332 229.339 95.0449 228.442 93.9691 228.309C92.8933 228.177 91.9996 228.057 91.288 227.95L82.3569 223.943C82.1851 223.866 81.9837 223.944 81.9071 224.116C81.9057 224.119 81.9045 224.122 81.9032 224.125L81.3292 225.527C80.3332 225.995 79.5239 226.229 78.9013 226.229C78.3954 226.229 77.6967 226.023 76.8053 225.612L76.8053 225.612C76.4632 225.454 76.0588 225.605 75.902 225.949C75.8952 225.964 75.889 225.979 75.8833 225.994Z" fill="#D3C4C4"/>
<path fill-rule="evenodd" clip-rule="evenodd" d="M43.9686 149.049C51.65 146.837 58.9179 146.837 65.7725 149.049C68.1572 160 73.9519 164.347 74.9709 181.136C63.3877 186.929 49.0789 177.005 37.155 182.654C33.7481 174.753 38.5177 155.723 43.9686 149.049Z" fill="#B0C8CC"/>
<path fill-rule="evenodd" clip-rule="evenodd" d="M62.1256 126.473L72.66 117.985C74.1945 115.328 75.7906 113.192 77.4482 111.578C77.9809 111.235 78.9604 110.91 78.3129 112.753C77.6654 114.596 77.0668 116.564 77.6357 116.995C78.2046 117.426 79.2727 116.492 79.9936 117.248C80.4742 117.752 78.592 119.019 74.3469 121.049L67.2383 130.346L62.1256 126.473ZM81.3201 128.63L85.9459 124.893C86.1852 122.02 86.8027 120.485 87.7986 120.29C88.5034 119.795 87.7723 123.502 89.1744 122.942C90.5766 122.382 93.6641 119.097 94.3698 119.526C95.4139 120.162 95.0337 122.752 94.2953 124.139C92.915 126.73 91.5794 127.77 88.1205 129.437C86.3119 130.308 84.4424 131.742 82.5118 133.738L81.3201 128.63Z" fill="#915B3C"/>
<path fill-rule="evenodd" clip-rule="evenodd" d="M56.2138 126.045C60.2867 125.275 65.5769 123.439 70.7369 118.7L73.9081 123.403C70.5999 128.111 65.5412 132.397 60.5933 133.136C56.6941 133.718 53.8884 129.355 56.2138 126.045Z" fill="#E9E9E9"/>
<path fill-rule="evenodd" clip-rule="evenodd" d="M63.1484 133.268C67.6718 133.582 74.7163 131.006 84.2818 125.541C87.7298 130.349 89.5537 133.89 89.7535 136.164C81.8031 142.316 74.6594 145.701 68.5033 146.937C69.3423 150.586 69.5075 154.171 68.5669 157.641C66.6332 164.775 47.5207 161.894 41.6615 164.175C35.6981 152.453 42.1671 146.105 40.7889 138.17C39.2797 129.48 43.8908 114.869 44.9125 114.687L54.2297 113.027C55.9013 119.571 59.7645 126.422 63.1484 133.268Z" fill="#F6F7F7"/>
</g>
<defs>
<filter id="filter0_d" x="122" y="69" width="226.764" height="202.967" filterUnits="userSpaceOnUse" color-interpolation-filters="sRGB">
<feFlood flood-opacity="0" result="BackgroundImageFix"/>
<feColorMatrix in="SourceAlpha" type="matrix" values="0 0 0 0 0 0 0 0 0 0 0 0 0 0 0 0 0 0 127 0"/>
<feOffset dy="4"/>
<feGaussianBlur stdDeviation="2"/>
<feColorMatrix type="matrix" values="0 0 0 0 0 0 0 0 0 0 0 0 0 0 0 0 0 0 0.25 0"/>
<feBlend mode="normal" in2="BackgroundImageFix" result="effect1_dropShadow"/>
<feBlend mode="normal" in="SourceGraphic" in2="effect1_dropShadow" result="shape"/>
</filter>
<filter id="filter1_d" x="83.0758" y="38.6808" width="239.688" height="235.248" filterUnits="userSpaceOnUse" color-interpolation-filters="sRGB">
<feFlood flood-opacity="0" result="BackgroundImageFix"/>
<feColorMatrix in="SourceAlpha" type="matrix" values="0 0 0 0 0 0 0 0 0 0 0 0 0 0 0 0 0 0 127 0"/>
<feOffset dy="4"/>
<feGaussianBlur stdDeviation="2"/>
<feColorMatrix type="matrix" values="0 0 0 0 0 0 0 0 0 0 0 0 0 0 0 0 0 0 0.25 0"/>
<feBlend mode="normal" in2="BackgroundImageFix" result="effect1_dropShadow"/>
<feBlend mode="normal" in="SourceGraphic" in2="effect1_dropShadow" result="shape"/>
</filter>
<filter id="filter2_d" x="0" y="91" width="105" height="148" filterUnits="userSpaceOnUse" color-interpolation-filters="sRGB">
<feFlood flood-opacity="0" result="BackgroundImageFix"/>
<feColorMatrix in="SourceAlpha" type="matrix" values="0 0 0 0 0 0 0 0 0 0 0 0 0 0 0 0 0 0 127 0"/>
<feOffset dy="4"/>
<feGaussianBlur stdDeviation="2"/>
<feColorMatrix type="matrix" values="0 0 0 0 0 0 0 0 0 0 0 0 0 0 0 0 0 0 0.25 0"/>
<feBlend mode="normal" in2="BackgroundImageFix" result="effect1_dropShadow"/>
<feBlend mode="normal" in="SourceGraphic" in2="effect1_dropShadow" result="shape"/>
</filter>
</defs>
</svg>
