<svg width="355" height="298" viewBox="0 0 355 298" fill="none" xmlns="http://www.w3.org/2000/svg">
<path fill-rule="evenodd" clip-rule="evenodd" d="M137.388 81.9694C137.407 90.6952 145.035 100.256 139.362 107.438C133.688 114.619 121.313 113.332 111.521 114.714C103.566 115.837 95.9617 115.461 87.9648 114.694C77.8999 113.727 66.7253 115.296 58.9037 109.663C50.3901 103.533 43.8056 93.5925 45.2876 83.962C46.7448 74.4927 59.8915 70.6274 66.1185 62.7802C72.3199 54.9651 71.9487 42.9205 81.4619 38.3753C91.1825 33.7311 103.263 36.9156 113.685 40.0543C123.774 43.0928 134.495 47.3754 139.246 55.7773C143.773 63.7837 137.368 73.0054 137.388 81.9694Z" fill="#A0C4CA"/>
<g filter="url(#filter0_d)">
<path fill-rule="evenodd" clip-rule="evenodd" d="M181.049 252.226C163.761 255.067 148.135 243.414 132.737 235.057C117.602 226.844 96.5609 221.132 92.7928 204.331C88.9256 187.087 114.134 175.446 115.415 157.821C116.954 136.641 85.6881 112.639 100.557 97.4757C115.276 82.4648 139.863 107.266 160.348 111.998C171.61 114.6 181.915 118.301 193.457 118.939C218.538 120.325 247.197 102.391 266.962 117.89C285.349 132.307 287.68 164.015 278.145 185.345C268.796 206.259 239.943 207.544 221.076 220.541C206.71 230.436 198.262 249.398 181.049 252.226Z" fill="#CAE1E4"/>
</g>
<g filter="url(#filter1_d)">
<path fill-rule="evenodd" clip-rule="evenodd" d="M235.326 109.048C245.592 128.638 273.19 140.972 269.411 163.925C265.632 186.879 237.522 198.842 218.095 213.704C202.314 225.777 185.527 234.061 167.439 241.936C144.673 251.847 122.492 268.787 99.0802 265.517C73.5972 261.957 47.7968 247.518 39.6978 224.091C31.7343 201.057 55.4629 176.587 59.6524 151.472C63.8247 126.461 48.9135 99.833 64.0356 78.1961C79.4875 56.0875 109.184 48.7436 135.264 43.287C160.511 38.0046 188.571 34.7615 208.629 47.9431C227.742 60.5043 224.779 88.9227 235.326 109.048Z" fill="#E8EFF7"/>
</g>
<path d="M99.6562 80.0693H97.1777V85H94.9541V72.2031H99.4541C100.931 72.2031 102.07 72.5342 102.873 73.1963C103.676 73.8584 104.077 74.8164 104.077 76.0703C104.077 76.9258 103.869 77.6436 103.453 78.2236C103.043 78.7979 102.469 79.2402 101.73 79.5508L104.604 84.8857V85H102.223L99.6562 80.0693ZM97.1777 78.2852H99.4629C100.213 78.2852 100.799 78.0977 101.221 77.7227C101.643 77.3418 101.854 76.8232 101.854 76.167C101.854 75.4814 101.657 74.9512 101.265 74.5762C100.878 74.2012 100.298 74.0078 99.5244 73.9961H97.1777V78.2852ZM109.307 81.9414L111.24 75.4902H113.517L109.737 86.4414C109.157 88.041 108.173 88.8408 106.784 88.8408C106.474 88.8408 106.131 88.7881 105.756 88.6826V87.0303L106.16 87.0566C106.699 87.0566 107.104 86.957 107.373 86.7578C107.648 86.5645 107.865 86.2363 108.023 85.7734L108.331 84.9561L104.991 75.4902H107.294L109.307 81.9414ZM114.255 80.1748C114.255 78.6982 114.601 77.5205 115.292 76.6416C115.989 75.7568 116.912 75.3145 118.061 75.3145C119.145 75.3145 119.997 75.6924 120.618 76.4482L120.715 75.4902H122.64V84.71C122.64 85.958 122.25 86.9424 121.471 87.6631C120.697 88.3838 119.651 88.7441 118.333 88.7441C117.636 88.7441 116.953 88.5977 116.285 88.3047C115.623 88.0176 115.119 87.6396 114.773 87.1709L115.784 85.8877C116.44 86.667 117.249 87.0566 118.21 87.0566C118.919 87.0566 119.479 86.8633 119.889 86.4766C120.299 86.0957 120.504 85.5332 120.504 84.7891V84.1475C119.889 84.833 119.068 85.1758 118.043 85.1758C116.93 85.1758 116.019 84.7334 115.31 83.8486C114.606 82.9639 114.255 81.7393 114.255 80.1748ZM116.382 80.3594C116.382 81.3145 116.575 82.0674 116.962 82.6182C117.354 83.1631 117.896 83.4355 118.588 83.4355C119.449 83.4355 120.088 83.0664 120.504 82.3281V78.1445C120.1 77.4238 119.467 77.0635 118.605 77.0635C117.902 77.0635 117.354 77.3418 116.962 77.8984C116.575 78.4551 116.382 79.2754 116.382 80.3594ZM124.468 80.1748C124.468 78.6982 124.813 77.5205 125.505 76.6416C126.202 75.7568 127.125 75.3145 128.273 75.3145C129.357 75.3145 130.21 75.6924 130.831 76.4482L130.928 75.4902H132.853V84.71C132.853 85.958 132.463 86.9424 131.684 87.6631C130.91 88.3838 129.864 88.7441 128.546 88.7441C127.849 88.7441 127.166 88.5977 126.498 88.3047C125.836 88.0176 125.332 87.6396 124.986 87.1709L125.997 85.8877C126.653 86.667 127.462 87.0566 128.423 87.0566C129.132 87.0566 129.691 86.8633 130.102 86.4766C130.512 86.0957 130.717 85.5332 130.717 84.7891V84.1475C130.102 84.833 129.281 85.1758 128.256 85.1758C127.143 85.1758 126.231 84.7334 125.522 83.8486C124.819 82.9639 124.468 81.7393 124.468 80.1748ZM126.595 80.3594C126.595 81.3145 126.788 82.0674 127.175 82.6182C127.567 83.1631 128.109 83.4355 128.801 83.4355C129.662 83.4355 130.301 83.0664 130.717 82.3281V78.1445C130.312 77.4238 129.68 77.0635 128.818 77.0635C128.115 77.0635 127.567 77.3418 127.175 77.8984C126.788 78.4551 126.595 79.2754 126.595 80.3594ZM140.385 82.416C140.385 82.0352 140.227 81.7451 139.91 81.5459C139.6 81.3467 139.081 81.1709 138.354 81.0186C137.628 80.8662 137.021 80.6729 136.535 80.4385C135.469 79.9229 134.936 79.1758 134.936 78.1973C134.936 77.377 135.281 76.6914 135.973 76.1406C136.664 75.5898 137.543 75.3145 138.609 75.3145C139.746 75.3145 140.663 75.5957 141.36 76.1582C142.063 76.7207 142.415 77.4502 142.415 78.3467H140.279C140.279 77.9365 140.127 77.5967 139.822 77.3271C139.518 77.0518 139.113 76.9141 138.609 76.9141C138.141 76.9141 137.757 77.0225 137.458 77.2393C137.165 77.4561 137.019 77.7461 137.019 78.1094C137.019 78.4375 137.156 78.6924 137.432 78.874C137.707 79.0557 138.264 79.2402 139.102 79.4277C139.939 79.6094 140.596 79.8291 141.07 80.0869C141.551 80.3389 141.905 80.6436 142.134 81.001C142.368 81.3584 142.485 81.792 142.485 82.3018C142.485 83.1572 142.131 83.8516 141.422 84.3848C140.713 84.9121 139.784 85.1758 138.636 85.1758C137.856 85.1758 137.162 85.0352 136.553 84.7539C135.943 84.4727 135.469 84.0859 135.129 83.5938C134.789 83.1016 134.619 82.5713 134.619 82.0029H136.693C136.723 82.5068 136.913 82.8965 137.265 83.1719C137.616 83.4414 138.082 83.5762 138.662 83.5762C139.225 83.5762 139.652 83.4707 139.945 83.2598C140.238 83.043 140.385 82.7617 140.385 82.416ZM146.361 75.4902L146.423 76.4834C147.091 75.7041 148.005 75.3145 149.165 75.3145C150.437 75.3145 151.307 75.8008 151.775 76.7734C152.467 75.8008 153.439 75.3145 154.693 75.3145C155.742 75.3145 156.521 75.6045 157.031 76.1846C157.547 76.7646 157.811 77.6201 157.822 78.751V85H155.687V78.8125C155.687 78.209 155.555 77.7666 155.291 77.4854C155.027 77.2041 154.591 77.0635 153.981 77.0635C153.495 77.0635 153.097 77.1953 152.786 77.459C152.481 77.7168 152.268 78.0566 152.145 78.4785L152.153 85H150.018V78.7422C149.988 77.623 149.417 77.0635 148.304 77.0635C147.448 77.0635 146.842 77.4121 146.484 78.1094V85H144.349V75.4902H146.361ZM164.203 85.1758C162.85 85.1758 161.751 84.751 160.907 83.9014C160.069 83.0459 159.65 81.9092 159.65 80.4912V80.2275C159.65 79.2783 159.832 78.4316 160.195 77.6875C160.564 76.9375 161.08 76.3545 161.742 75.9385C162.404 75.5225 163.143 75.3145 163.957 75.3145C165.252 75.3145 166.251 75.7275 166.954 76.5537C167.663 77.3799 168.018 78.5488 168.018 80.0605V80.9219H161.804C161.868 81.707 162.129 82.3281 162.586 82.7852C163.049 83.2422 163.629 83.4707 164.326 83.4707C165.305 83.4707 166.102 83.0752 166.717 82.2842L167.868 83.3828C167.487 83.9512 166.978 84.3936 166.339 84.71C165.706 85.0205 164.994 85.1758 164.203 85.1758ZM163.948 77.0283C163.362 77.0283 162.888 77.2334 162.524 77.6436C162.167 78.0537 161.938 78.625 161.839 79.3574H165.908V79.1992C165.861 78.4844 165.671 77.9453 165.337 77.582C165.003 77.2129 164.54 77.0283 163.948 77.0283ZM174.662 77.4414C174.381 77.3945 174.091 77.3711 173.792 77.3711C172.813 77.3711 172.154 77.7461 171.814 78.4961V85H169.679V75.4902H171.718L171.771 76.5537C172.286 75.7275 173.001 75.3145 173.915 75.3145C174.22 75.3145 174.472 75.3555 174.671 75.4375L174.662 77.4414ZM179.127 73.1787V75.4902H180.806V77.0723H179.127V82.3809C179.127 82.7441 179.197 83.0078 179.338 83.1719C179.484 83.3301 179.742 83.4092 180.111 83.4092C180.357 83.4092 180.606 83.3799 180.858 83.3213V84.9736C180.372 85.1084 179.903 85.1758 179.452 85.1758C177.812 85.1758 176.991 84.2705 176.991 82.46V77.0723H175.427V75.4902H176.991V73.1787H179.127ZM186.633 85.1758C185.279 85.1758 184.181 84.751 183.337 83.9014C182.499 83.0459 182.08 81.9092 182.08 80.4912V80.2275C182.08 79.2783 182.262 78.4316 182.625 77.6875C182.994 76.9375 183.51 76.3545 184.172 75.9385C184.834 75.5225 185.572 75.3145 186.387 75.3145C187.682 75.3145 188.681 75.7275 189.384 76.5537C190.093 77.3799 190.447 78.5488 190.447 80.0605V80.9219H184.233C184.298 81.707 184.559 82.3281 185.016 82.7852C185.479 83.2422 186.059 83.4707 186.756 83.4707C187.734 83.4707 188.531 83.0752 189.146 82.2842L190.298 83.3828C189.917 83.9512 189.407 84.3936 188.769 84.71C188.136 85.0205 187.424 85.1758 186.633 85.1758ZM186.378 77.0283C185.792 77.0283 185.317 77.2334 184.954 77.6436C184.597 78.0537 184.368 78.625 184.269 79.3574H188.338V79.1992C188.291 78.4844 188.101 77.9453 187.767 77.582C187.433 77.2129 186.97 77.0283 186.378 77.0283ZM197.092 77.4414C196.811 77.3945 196.521 77.3711 196.222 77.3711C195.243 77.3711 194.584 77.7461 194.244 78.4961V85H192.108V75.4902H194.147L194.2 76.5537C194.716 75.7275 195.431 75.3145 196.345 75.3145C196.649 75.3145 196.901 75.3555 197.101 75.4375L197.092 77.4414ZM99.8496 106H97.626L91.9219 96.9209V106H89.6982V93.2031H91.9219L97.6436 102.317V93.2031H99.8496V106ZM107.953 106C107.859 105.818 107.777 105.522 107.707 105.112C107.027 105.821 106.195 106.176 105.211 106.176C104.256 106.176 103.477 105.903 102.873 105.358C102.27 104.813 101.968 104.14 101.968 103.337C101.968 102.323 102.343 101.547 103.093 101.008C103.849 100.463 104.927 100.19 106.327 100.19H107.637V99.5664C107.637 99.0742 107.499 98.6816 107.224 98.3887C106.948 98.0898 106.529 97.9404 105.967 97.9404C105.48 97.9404 105.082 98.0635 104.771 98.3096C104.461 98.5498 104.306 98.8574 104.306 99.2324H102.17C102.17 98.7109 102.343 98.2246 102.688 97.7734C103.034 97.3164 103.503 96.959 104.095 96.7012C104.692 96.4434 105.357 96.3145 106.09 96.3145C107.203 96.3145 108.091 96.5957 108.753 97.1582C109.415 97.7148 109.755 98.5 109.772 99.5137V103.803C109.772 104.658 109.893 105.341 110.133 105.851V106H107.953ZM105.606 104.462C106.028 104.462 106.424 104.359 106.793 104.154C107.168 103.949 107.449 103.674 107.637 103.328V101.535H106.485C105.694 101.535 105.1 101.673 104.701 101.948C104.303 102.224 104.104 102.613 104.104 103.117C104.104 103.527 104.238 103.855 104.508 104.102C104.783 104.342 105.149 104.462 105.606 104.462ZM115.099 101.922L114.149 102.897V106H112.014V92.5H114.149V100.287L114.817 99.4521L117.445 96.4902H120.012L116.479 100.454L120.39 106H117.92L115.099 101.922ZM124.503 101.922L123.554 102.897V106H121.418V92.5H123.554V100.287L124.222 99.4521L126.85 96.4902H129.416L125.883 100.454L129.794 106H127.324L124.503 101.922ZM134.83 106.176C133.477 106.176 132.378 105.751 131.534 104.901C130.696 104.046 130.277 102.909 130.277 101.491V101.228C130.277 100.278 130.459 99.4316 130.822 98.6875C131.191 97.9375 131.707 97.3545 132.369 96.9385C133.031 96.5225 133.77 96.3145 134.584 96.3145C135.879 96.3145 136.878 96.7275 137.581 97.5537C138.29 98.3799 138.645 99.5488 138.645 101.061V101.922H132.431C132.495 102.707 132.756 103.328 133.213 103.785C133.676 104.242 134.256 104.471 134.953 104.471C135.932 104.471 136.729 104.075 137.344 103.284L138.495 104.383C138.114 104.951 137.604 105.394 136.966 105.71C136.333 106.021 135.621 106.176 134.83 106.176ZM134.575 98.0283C133.989 98.0283 133.515 98.2334 133.151 98.6436C132.794 99.0537 132.565 99.625 132.466 100.357H136.535V100.199C136.488 99.4844 136.298 98.9453 135.964 98.582C135.63 98.2129 135.167 98.0283 134.575 98.0283ZM145.641 103.416C145.641 103.035 145.482 102.745 145.166 102.546C144.855 102.347 144.337 102.171 143.61 102.019C142.884 101.866 142.277 101.673 141.791 101.438C140.725 100.923 140.191 100.176 140.191 99.1973C140.191 98.377 140.537 97.6914 141.229 97.1406C141.92 96.5898 142.799 96.3145 143.865 96.3145C145.002 96.3145 145.919 96.5957 146.616 97.1582C147.319 97.7207 147.671 98.4502 147.671 99.3467H145.535C145.535 98.9365 145.383 98.5967 145.078 98.3271C144.773 98.0518 144.369 97.9141 143.865 97.9141C143.396 97.9141 143.013 98.0225 142.714 98.2393C142.421 98.4561 142.274 98.7461 142.274 99.1094C142.274 99.4375 142.412 99.6924 142.688 99.874C142.963 100.056 143.52 100.24 144.357 100.428C145.195 100.609 145.852 100.829 146.326 101.087C146.807 101.339 147.161 101.644 147.39 102.001C147.624 102.358 147.741 102.792 147.741 103.302C147.741 104.157 147.387 104.852 146.678 105.385C145.969 105.912 145.04 106.176 143.892 106.176C143.112 106.176 142.418 106.035 141.809 105.754C141.199 105.473 140.725 105.086 140.385 104.594C140.045 104.102 139.875 103.571 139.875 103.003H141.949C141.979 103.507 142.169 103.896 142.521 104.172C142.872 104.441 143.338 104.576 143.918 104.576C144.48 104.576 144.908 104.471 145.201 104.26C145.494 104.043 145.641 103.762 145.641 103.416ZM151.617 96.4902L151.679 97.4834C152.347 96.7041 153.261 96.3145 154.421 96.3145C155.692 96.3145 156.562 96.8008 157.031 97.7734C157.723 96.8008 158.695 96.3145 159.949 96.3145C160.998 96.3145 161.777 96.6045 162.287 97.1846C162.803 97.7646 163.066 98.6201 163.078 99.751V106H160.942V99.8125C160.942 99.209 160.811 98.7666 160.547 98.4854C160.283 98.2041 159.847 98.0635 159.237 98.0635C158.751 98.0635 158.353 98.1953 158.042 98.459C157.737 98.7168 157.523 99.0566 157.4 99.4785L157.409 106H155.273V99.7422C155.244 98.623 154.673 98.0635 153.56 98.0635C152.704 98.0635 152.098 98.4121 151.74 99.1094V106H149.604V96.4902H151.617ZM169.459 106.176C168.105 106.176 167.007 105.751 166.163 104.901C165.325 104.046 164.906 102.909 164.906 101.491V101.228C164.906 100.278 165.088 99.4316 165.451 98.6875C165.82 97.9375 166.336 97.3545 166.998 96.9385C167.66 96.5225 168.398 96.3145 169.213 96.3145C170.508 96.3145 171.507 96.7275 172.21 97.5537C172.919 98.3799 173.273 99.5488 173.273 101.061V101.922H167.06C167.124 102.707 167.385 103.328 167.842 103.785C168.305 104.242 168.885 104.471 169.582 104.471C170.561 104.471 171.357 104.075 171.973 103.284L173.124 104.383C172.743 104.951 172.233 105.394 171.595 105.71C170.962 106.021 170.25 106.176 169.459 106.176ZM169.204 98.0283C168.618 98.0283 168.144 98.2334 167.78 98.6436C167.423 99.0537 167.194 99.625 167.095 100.357H171.164V100.199C171.117 99.4844 170.927 98.9453 170.593 98.582C170.259 98.2129 169.796 98.0283 169.204 98.0283ZM179.918 98.4414C179.637 98.3945 179.347 98.3711 179.048 98.3711C178.069 98.3711 177.41 98.7461 177.07 99.4961V106H174.935V96.4902H176.974L177.026 97.5537C177.542 96.7275 178.257 96.3145 179.171 96.3145C179.476 96.3145 179.728 96.3555 179.927 96.4375L179.918 98.4414ZM184.383 94.1787V96.4902H186.062V98.0723H184.383V103.381C184.383 103.744 184.453 104.008 184.594 104.172C184.74 104.33 184.998 104.409 185.367 104.409C185.613 104.409 185.862 104.38 186.114 104.321V105.974C185.628 106.108 185.159 106.176 184.708 106.176C183.067 106.176 182.247 105.271 182.247 103.46V98.0723H180.683V96.4902H182.247V94.1787H184.383ZM191.889 106.176C190.535 106.176 189.437 105.751 188.593 104.901C187.755 104.046 187.336 102.909 187.336 101.491V101.228C187.336 100.278 187.518 99.4316 187.881 98.6875C188.25 97.9375 188.766 97.3545 189.428 96.9385C190.09 96.5225 190.828 96.3145 191.643 96.3145C192.938 96.3145 193.937 96.7275 194.64 97.5537C195.349 98.3799 195.703 99.5488 195.703 101.061V101.922H189.489C189.554 102.707 189.814 103.328 190.271 103.785C190.734 104.242 191.314 104.471 192.012 104.471C192.99 104.471 193.787 104.075 194.402 103.284L195.554 104.383C195.173 104.951 194.663 105.394 194.024 105.71C193.392 106.021 192.68 106.176 191.889 106.176ZM191.634 98.0283C191.048 98.0283 190.573 98.2334 190.21 98.6436C189.853 99.0537 189.624 99.625 189.524 100.357H193.594V100.199C193.547 99.4844 193.356 98.9453 193.022 98.582C192.688 98.2129 192.226 98.0283 191.634 98.0283ZM202.348 98.4414C202.066 98.3945 201.776 98.3711 201.478 98.3711C200.499 98.3711 199.84 98.7461 199.5 99.4961V106H197.364V96.4902H199.403L199.456 97.5537C199.972 96.7275 200.687 96.3145 201.601 96.3145C201.905 96.3145 202.157 96.3555 202.356 96.4375L202.348 98.4414ZM118.307 127H116.092V121.313H110.37V127H108.146V114.203H110.37V119.529H116.092V114.203H118.307V127ZM120.337 122.157C120.337 121.226 120.521 120.388 120.891 119.644C121.26 118.894 121.778 118.319 122.446 117.921C123.114 117.517 123.882 117.314 124.749 117.314C126.032 117.314 127.072 117.728 127.869 118.554C128.672 119.38 129.105 120.476 129.17 121.841L129.179 122.342C129.179 123.279 128.997 124.117 128.634 124.855C128.276 125.594 127.761 126.165 127.087 126.569C126.419 126.974 125.646 127.176 124.767 127.176C123.425 127.176 122.35 126.73 121.541 125.84C120.738 124.943 120.337 123.751 120.337 122.263V122.157ZM122.473 122.342C122.473 123.32 122.675 124.088 123.079 124.645C123.483 125.195 124.046 125.471 124.767 125.471C125.487 125.471 126.047 125.189 126.445 124.627C126.85 124.064 127.052 123.241 127.052 122.157C127.052 121.196 126.844 120.435 126.428 119.872C126.018 119.31 125.458 119.028 124.749 119.028C124.052 119.028 123.498 119.307 123.088 119.863C122.678 120.414 122.473 121.24 122.473 122.342ZM130.585 122.175C130.585 120.71 130.925 119.535 131.604 118.65C132.284 117.76 133.195 117.314 134.338 117.314C135.346 117.314 136.16 117.666 136.781 118.369V113.5H138.917V127H136.983L136.878 126.016C136.239 126.789 135.387 127.176 134.32 127.176C133.207 127.176 132.305 126.728 131.613 125.831C130.928 124.935 130.585 123.716 130.585 122.175ZM132.721 122.359C132.721 123.326 132.905 124.082 133.274 124.627C133.649 125.166 134.18 125.436 134.865 125.436C135.738 125.436 136.377 125.046 136.781 124.267V120.206C136.389 119.444 135.756 119.063 134.883 119.063C134.191 119.063 133.658 119.339 133.283 119.89C132.908 120.435 132.721 121.258 132.721 122.359ZM145.333 127.176C143.979 127.176 142.881 126.751 142.037 125.901C141.199 125.046 140.78 123.909 140.78 122.491V122.228C140.78 121.278 140.962 120.432 141.325 119.688C141.694 118.938 142.21 118.354 142.872 117.938C143.534 117.522 144.272 117.314 145.087 117.314C146.382 117.314 147.381 117.728 148.084 118.554C148.793 119.38 149.147 120.549 149.147 122.061V122.922H142.934C142.998 123.707 143.259 124.328 143.716 124.785C144.179 125.242 144.759 125.471 145.456 125.471C146.435 125.471 147.231 125.075 147.847 124.284L148.998 125.383C148.617 125.951 148.107 126.394 147.469 126.71C146.836 127.021 146.124 127.176 145.333 127.176ZM145.078 119.028C144.492 119.028 144.018 119.233 143.654 119.644C143.297 120.054 143.068 120.625 142.969 121.357H147.038V121.199C146.991 120.484 146.801 119.945 146.467 119.582C146.133 119.213 145.67 119.028 145.078 119.028ZM159.141 122.342C159.141 123.812 158.807 124.987 158.139 125.866C157.471 126.739 156.574 127.176 155.449 127.176C154.406 127.176 153.571 126.833 152.944 126.147V130.656H150.809V117.49H152.777L152.865 118.457C153.492 117.695 154.345 117.314 155.423 117.314C156.583 117.314 157.491 117.748 158.147 118.615C158.81 119.477 159.141 120.675 159.141 122.21V122.342ZM157.014 122.157C157.014 121.208 156.823 120.455 156.442 119.898C156.067 119.342 155.528 119.063 154.825 119.063C153.952 119.063 153.325 119.424 152.944 120.145V124.363C153.331 125.102 153.964 125.471 154.843 125.471C155.522 125.471 156.053 125.198 156.434 124.653C156.82 124.103 157.014 123.271 157.014 122.157ZM163.228 127H161.092V117.49H163.228V127ZM160.96 115.021C160.96 114.692 161.062 114.42 161.268 114.203C161.479 113.986 161.777 113.878 162.164 113.878C162.551 113.878 162.85 113.986 163.061 114.203C163.271 114.42 163.377 114.692 163.377 115.021C163.377 115.343 163.271 115.612 163.061 115.829C162.85 116.04 162.551 116.146 162.164 116.146C161.777 116.146 161.479 116.04 161.268 115.829C161.062 115.612 160.96 115.343 160.96 115.021ZM167.543 117.49L167.604 118.589C168.308 117.739 169.23 117.314 170.373 117.314C172.354 117.314 173.361 118.448 173.396 120.716V127H171.261V120.839C171.261 120.235 171.129 119.79 170.865 119.503C170.607 119.21 170.183 119.063 169.591 119.063C168.729 119.063 168.088 119.453 167.666 120.232V127H165.53V117.49H167.543ZM179.769 127.176C178.415 127.176 177.316 126.751 176.473 125.901C175.635 125.046 175.216 123.909 175.216 122.491V122.228C175.216 121.278 175.397 120.432 175.761 119.688C176.13 118.938 176.646 118.354 177.308 117.938C177.97 117.522 178.708 117.314 179.522 117.314C180.817 117.314 181.816 117.728 182.52 118.554C183.229 119.38 183.583 120.549 183.583 122.061V122.922H177.369C177.434 123.707 177.694 124.328 178.151 124.785C178.614 125.242 179.194 125.471 179.892 125.471C180.87 125.471 181.667 125.075 182.282 124.284L183.434 125.383C183.053 125.951 182.543 126.394 181.904 126.71C181.271 127.021 180.56 127.176 179.769 127.176ZM179.514 119.028C178.928 119.028 178.453 119.233 178.09 119.644C177.732 120.054 177.504 120.625 177.404 121.357H181.474V121.199C181.427 120.484 181.236 119.945 180.902 119.582C180.568 119.213 180.105 119.028 179.514 119.028ZM85.4355 148V135.203H89.8213C91.2686 135.203 92.3701 135.493 93.126 136.073C93.8818 136.653 94.2598 137.518 94.2598 138.666C94.2598 139.252 94.1016 139.779 93.7852 140.248C93.4688 140.717 93.0059 141.08 92.3965 141.338C93.0879 141.525 93.6211 141.88 93.9961 142.401C94.377 142.917 94.5674 143.538 94.5674 144.265C94.5674 145.466 94.1807 146.389 93.4072 147.033C92.6396 147.678 91.5381 148 90.1025 148H85.4355ZM87.6592 142.226V146.225H90.1289C90.8262 146.225 91.3711 146.052 91.7637 145.706C92.1562 145.36 92.3525 144.88 92.3525 144.265C92.3525 142.935 91.6729 142.255 90.3135 142.226H87.6592ZM87.6592 140.591H89.8389C90.5303 140.591 91.0693 140.436 91.4561 140.125C91.8486 139.809 92.0449 139.363 92.0449 138.789C92.0449 138.156 91.8633 137.699 91.5 137.418C91.1426 137.137 90.583 136.996 89.8213 136.996H87.6592V140.591ZM100.772 148.176C99.4189 148.176 98.3203 147.751 97.4766 146.901C96.6387 146.046 96.2197 144.909 96.2197 143.491V143.228C96.2197 142.278 96.4014 141.432 96.7646 140.688C97.1338 139.938 97.6494 139.354 98.3115 138.938C98.9736 138.522 99.7119 138.314 100.526 138.314C101.821 138.314 102.82 138.728 103.523 139.554C104.232 140.38 104.587 141.549 104.587 143.061V143.922H98.373C98.4375 144.707 98.6982 145.328 99.1553 145.785C99.6182 146.242 100.198 146.471 100.896 146.471C101.874 146.471 102.671 146.075 103.286 145.284L104.438 146.383C104.057 146.951 103.547 147.394 102.908 147.71C102.275 148.021 101.563 148.176 100.772 148.176ZM100.518 140.028C99.9316 140.028 99.457 140.233 99.0938 140.644C98.7363 141.054 98.5078 141.625 98.4082 142.357H102.478V142.199C102.431 141.484 102.24 140.945 101.906 140.582C101.572 140.213 101.109 140.028 100.518 140.028ZM109.342 143.922L108.393 144.897V148H106.257V134.5H108.393V142.287L109.061 141.452L111.688 138.49H114.255L110.722 142.454L114.633 148H112.163L109.342 143.922ZM118.746 143.922L117.797 144.897V148H115.661V134.5H117.797V142.287L118.465 141.452L121.093 138.49H123.659L120.126 142.454L124.037 148H121.567L118.746 143.922ZM129.073 148.176C127.72 148.176 126.621 147.751 125.777 146.901C124.939 146.046 124.521 144.909 124.521 143.491V143.228C124.521 142.278 124.702 141.432 125.065 140.688C125.435 139.938 125.95 139.354 126.612 138.938C127.274 138.522 128.013 138.314 128.827 138.314C130.122 138.314 131.121 138.728 131.824 139.554C132.533 140.38 132.888 141.549 132.888 143.061V143.922H126.674C126.738 144.707 126.999 145.328 127.456 145.785C127.919 146.242 128.499 146.471 129.196 146.471C130.175 146.471 130.972 146.075 131.587 145.284L132.738 146.383C132.357 146.951 131.848 147.394 131.209 147.71C130.576 148.021 129.864 148.176 129.073 148.176ZM128.818 140.028C128.232 140.028 127.758 140.233 127.395 140.644C127.037 141.054 126.809 141.625 126.709 142.357H130.778V142.199C130.731 141.484 130.541 140.945 130.207 140.582C129.873 140.213 129.41 140.028 128.818 140.028ZM136.535 138.49L136.597 139.589C137.3 138.739 138.223 138.314 139.365 138.314C141.346 138.314 142.354 139.448 142.389 141.716V148H140.253V141.839C140.253 141.235 140.121 140.79 139.857 140.503C139.6 140.21 139.175 140.063 138.583 140.063C137.722 140.063 137.08 140.453 136.658 141.232V148H134.522V138.49H136.535ZM149.903 145.416C149.903 145.035 149.745 144.745 149.429 144.546C149.118 144.347 148.6 144.171 147.873 144.019C147.146 143.866 146.54 143.673 146.054 143.438C144.987 142.923 144.454 142.176 144.454 141.197C144.454 140.377 144.8 139.691 145.491 139.141C146.183 138.59 147.062 138.314 148.128 138.314C149.265 138.314 150.182 138.596 150.879 139.158C151.582 139.721 151.934 140.45 151.934 141.347H149.798C149.798 140.937 149.646 140.597 149.341 140.327C149.036 140.052 148.632 139.914 148.128 139.914C147.659 139.914 147.275 140.022 146.977 140.239C146.684 140.456 146.537 140.746 146.537 141.109C146.537 141.438 146.675 141.692 146.95 141.874C147.226 142.056 147.782 142.24 148.62 142.428C149.458 142.609 150.114 142.829 150.589 143.087C151.069 143.339 151.424 143.644 151.652 144.001C151.887 144.358 152.004 144.792 152.004 145.302C152.004 146.157 151.649 146.852 150.94 147.385C150.231 147.912 149.303 148.176 148.154 148.176C147.375 148.176 146.681 148.035 146.071 147.754C145.462 147.473 144.987 147.086 144.647 146.594C144.308 146.102 144.138 145.571 144.138 145.003H146.212C146.241 145.507 146.432 145.896 146.783 146.172C147.135 146.441 147.601 146.576 148.181 146.576C148.743 146.576 149.171 146.471 149.464 146.26C149.757 146.043 149.903 145.762 149.903 145.416ZM155.88 138.49L155.941 139.483C156.609 138.704 157.523 138.314 158.684 138.314C159.955 138.314 160.825 138.801 161.294 139.773C161.985 138.801 162.958 138.314 164.212 138.314C165.261 138.314 166.04 138.604 166.55 139.185C167.065 139.765 167.329 140.62 167.341 141.751V148H165.205V141.812C165.205 141.209 165.073 140.767 164.81 140.485C164.546 140.204 164.109 140.063 163.5 140.063C163.014 140.063 162.615 140.195 162.305 140.459C162 140.717 161.786 141.057 161.663 141.479L161.672 148H159.536V141.742C159.507 140.623 158.936 140.063 157.822 140.063C156.967 140.063 156.36 140.412 156.003 141.109V148H153.867V138.49H155.88ZM173.722 148.176C172.368 148.176 171.27 147.751 170.426 146.901C169.588 146.046 169.169 144.909 169.169 143.491V143.228C169.169 142.278 169.351 141.432 169.714 140.688C170.083 139.938 170.599 139.354 171.261 138.938C171.923 138.522 172.661 138.314 173.476 138.314C174.771 138.314 175.77 138.728 176.473 139.554C177.182 140.38 177.536 141.549 177.536 143.061V143.922H171.322C171.387 144.707 171.647 145.328 172.104 145.785C172.567 146.242 173.147 146.471 173.845 146.471C174.823 146.471 175.62 146.075 176.235 145.284L177.387 146.383C177.006 146.951 176.496 147.394 175.857 147.71C175.225 148.021 174.513 148.176 173.722 148.176ZM173.467 140.028C172.881 140.028 172.406 140.233 172.043 140.644C171.686 141.054 171.457 141.625 171.357 142.357H175.427V142.199C175.38 141.484 175.189 140.945 174.855 140.582C174.521 140.213 174.059 140.028 173.467 140.028ZM184.181 140.441C183.899 140.395 183.609 140.371 183.311 140.371C182.332 140.371 181.673 140.746 181.333 141.496V148H179.197V138.49H181.236L181.289 139.554C181.805 138.728 182.52 138.314 183.434 138.314C183.738 138.314 183.99 138.355 184.189 138.438L184.181 140.441ZM188.646 136.179V138.49H190.324V140.072H188.646V145.381C188.646 145.744 188.716 146.008 188.856 146.172C189.003 146.33 189.261 146.409 189.63 146.409C189.876 146.409 190.125 146.38 190.377 146.321V147.974C189.891 148.108 189.422 148.176 188.971 148.176C187.33 148.176 186.51 147.271 186.51 145.46V140.072H184.945V138.49H186.51V136.179H188.646ZM196.151 148.176C194.798 148.176 193.699 147.751 192.855 146.901C192.018 146.046 191.599 144.909 191.599 143.491V143.228C191.599 142.278 191.78 141.432 192.144 140.688C192.513 139.938 193.028 139.354 193.69 138.938C194.353 138.522 195.091 138.314 195.905 138.314C197.2 138.314 198.199 138.728 198.902 139.554C199.611 140.38 199.966 141.549 199.966 143.061V143.922H193.752C193.816 144.707 194.077 145.328 194.534 145.785C194.997 146.242 195.577 146.471 196.274 146.471C197.253 146.471 198.05 146.075 198.665 145.284L199.816 146.383C199.436 146.951 198.926 147.394 198.287 147.71C197.654 148.021 196.942 148.176 196.151 148.176ZM195.896 140.028C195.311 140.028 194.836 140.233 194.473 140.644C194.115 141.054 193.887 141.625 193.787 142.357H197.856V142.199C197.81 141.484 197.619 140.945 197.285 140.582C196.951 140.213 196.488 140.028 195.896 140.028ZM206.61 140.441C206.329 140.395 206.039 140.371 205.74 140.371C204.762 140.371 204.103 140.746 203.763 141.496V148H201.627V138.49H203.666L203.719 139.554C204.234 138.728 204.949 138.314 205.863 138.314C206.168 138.314 206.42 138.355 206.619 138.438L206.61 140.441ZM108.032 165.704C108.032 165.142 107.833 164.708 107.435 164.403C107.042 164.099 106.33 163.791 105.299 163.48C104.268 163.17 103.447 162.824 102.838 162.443C101.672 161.711 101.089 160.756 101.089 159.578C101.089 158.547 101.508 157.697 102.346 157.029C103.189 156.361 104.282 156.027 105.624 156.027C106.515 156.027 107.309 156.191 108.006 156.52C108.703 156.848 109.251 157.316 109.649 157.926C110.048 158.529 110.247 159.2 110.247 159.938H108.032C108.032 159.271 107.821 158.749 107.399 158.374C106.983 157.993 106.386 157.803 105.606 157.803C104.88 157.803 104.314 157.958 103.91 158.269C103.512 158.579 103.312 159.013 103.312 159.569C103.312 160.038 103.529 160.431 103.963 160.747C104.396 161.058 105.111 161.362 106.107 161.661C107.104 161.954 107.903 162.291 108.507 162.672C109.11 163.047 109.553 163.48 109.834 163.973C110.115 164.459 110.256 165.03 110.256 165.687C110.256 166.753 109.846 167.603 109.025 168.235C108.211 168.862 107.104 169.176 105.703 169.176C104.777 169.176 103.925 169.006 103.146 168.666C102.372 168.32 101.769 167.846 101.335 167.242C100.907 166.639 100.693 165.936 100.693 165.133H102.917C102.917 165.859 103.157 166.422 103.638 166.82C104.118 167.219 104.807 167.418 105.703 167.418C106.477 167.418 107.057 167.263 107.443 166.952C107.836 166.636 108.032 166.22 108.032 165.704ZM116.188 169.176C114.835 169.176 113.736 168.751 112.893 167.901C112.055 167.046 111.636 165.909 111.636 164.491V164.228C111.636 163.278 111.817 162.432 112.181 161.688C112.55 160.938 113.065 160.354 113.728 159.938C114.39 159.522 115.128 159.314 115.942 159.314C117.237 159.314 118.236 159.728 118.939 160.554C119.648 161.38 120.003 162.549 120.003 164.061V164.922H113.789C113.854 165.707 114.114 166.328 114.571 166.785C115.034 167.242 115.614 167.471 116.312 167.471C117.29 167.471 118.087 167.075 118.702 166.284L119.854 167.383C119.473 167.951 118.963 168.394 118.324 168.71C117.691 169.021 116.979 169.176 116.188 169.176ZM115.934 161.028C115.348 161.028 114.873 161.233 114.51 161.644C114.152 162.054 113.924 162.625 113.824 163.357H117.894V163.199C117.847 162.484 117.656 161.945 117.322 161.582C116.988 161.213 116.525 161.028 115.934 161.028ZM123.65 159.49L123.712 160.589C124.415 159.739 125.338 159.314 126.48 159.314C128.461 159.314 129.469 160.448 129.504 162.716V169H127.368V162.839C127.368 162.235 127.236 161.79 126.973 161.503C126.715 161.21 126.29 161.063 125.698 161.063C124.837 161.063 124.195 161.453 123.773 162.232V169H121.638V159.49H123.65ZM135.876 169.176C134.522 169.176 133.424 168.751 132.58 167.901C131.742 167.046 131.323 165.909 131.323 164.491V164.228C131.323 163.278 131.505 162.432 131.868 161.688C132.237 160.938 132.753 160.354 133.415 159.938C134.077 159.522 134.815 159.314 135.63 159.314C136.925 159.314 137.924 159.728 138.627 160.554C139.336 161.38 139.69 162.549 139.69 164.061V164.922H133.477C133.541 165.707 133.802 166.328 134.259 166.785C134.722 167.242 135.302 167.471 135.999 167.471C136.978 167.471 137.774 167.075 138.39 166.284L139.541 167.383C139.16 167.951 138.65 168.394 138.012 168.71C137.379 169.021 136.667 169.176 135.876 169.176ZM135.621 161.028C135.035 161.028 134.561 161.233 134.197 161.644C133.84 162.054 133.611 162.625 133.512 163.357H137.581V163.199C137.534 162.484 137.344 161.945 137.01 161.582C136.676 161.213 136.213 161.028 135.621 161.028ZM149.684 164.342C149.684 165.812 149.35 166.987 148.682 167.866C148.014 168.739 147.117 169.176 145.992 169.176C144.949 169.176 144.114 168.833 143.487 168.147V172.656H141.352V159.49H143.32L143.408 160.457C144.035 159.695 144.888 159.314 145.966 159.314C147.126 159.314 148.034 159.748 148.69 160.615C149.353 161.477 149.684 162.675 149.684 164.21V164.342ZM147.557 164.157C147.557 163.208 147.366 162.455 146.985 161.898C146.61 161.342 146.071 161.063 145.368 161.063C144.495 161.063 143.868 161.424 143.487 162.145V166.363C143.874 167.102 144.507 167.471 145.386 167.471C146.065 167.471 146.596 167.198 146.977 166.653C147.363 166.103 147.557 165.271 147.557 164.157ZM153.771 169H151.635V155.5H153.771V169ZM161.786 169C161.692 168.818 161.61 168.522 161.54 168.112C160.86 168.821 160.028 169.176 159.044 169.176C158.089 169.176 157.31 168.903 156.706 168.358C156.103 167.813 155.801 167.14 155.801 166.337C155.801 165.323 156.176 164.547 156.926 164.008C157.682 163.463 158.76 163.19 160.16 163.19H161.47V162.566C161.47 162.074 161.332 161.682 161.057 161.389C160.781 161.09 160.362 160.94 159.8 160.94C159.313 160.94 158.915 161.063 158.604 161.31C158.294 161.55 158.139 161.857 158.139 162.232H156.003C156.003 161.711 156.176 161.225 156.521 160.773C156.867 160.316 157.336 159.959 157.928 159.701C158.525 159.443 159.19 159.314 159.923 159.314C161.036 159.314 161.924 159.596 162.586 160.158C163.248 160.715 163.588 161.5 163.605 162.514V166.803C163.605 167.658 163.726 168.341 163.966 168.851V169H161.786ZM159.439 167.462C159.861 167.462 160.257 167.359 160.626 167.154C161.001 166.949 161.282 166.674 161.47 166.328V164.535H160.318C159.527 164.535 158.933 164.673 158.534 164.948C158.136 165.224 157.937 165.613 157.937 166.117C157.937 166.527 158.071 166.855 158.341 167.102C158.616 167.342 158.982 167.462 159.439 167.462ZM165.469 164.175C165.469 162.698 165.814 161.521 166.506 160.642C167.203 159.757 168.126 159.314 169.274 159.314C170.358 159.314 171.211 159.692 171.832 160.448L171.929 159.49H173.854V168.71C173.854 169.958 173.464 170.942 172.685 171.663C171.911 172.384 170.865 172.744 169.547 172.744C168.85 172.744 168.167 172.598 167.499 172.305C166.837 172.018 166.333 171.64 165.987 171.171L166.998 169.888C167.654 170.667 168.463 171.057 169.424 171.057C170.133 171.057 170.692 170.863 171.103 170.477C171.513 170.096 171.718 169.533 171.718 168.789V168.147C171.103 168.833 170.282 169.176 169.257 169.176C168.144 169.176 167.232 168.733 166.523 167.849C165.82 166.964 165.469 165.739 165.469 164.175ZM167.596 164.359C167.596 165.314 167.789 166.067 168.176 166.618C168.568 167.163 169.11 167.436 169.802 167.436C170.663 167.436 171.302 167.066 171.718 166.328V162.145C171.313 161.424 170.681 161.063 169.819 161.063C169.116 161.063 168.568 161.342 168.176 161.898C167.789 162.455 167.596 163.275 167.596 164.359ZM180.243 169.176C178.89 169.176 177.791 168.751 176.947 167.901C176.109 167.046 175.69 165.909 175.69 164.491V164.228C175.69 163.278 175.872 162.432 176.235 161.688C176.604 160.938 177.12 160.354 177.782 159.938C178.444 159.522 179.183 159.314 179.997 159.314C181.292 159.314 182.291 159.728 182.994 160.554C183.703 161.38 184.058 162.549 184.058 164.061V164.922H177.844C177.908 165.707 178.169 166.328 178.626 166.785C179.089 167.242 179.669 167.471 180.366 167.471C181.345 167.471 182.142 167.075 182.757 166.284L183.908 167.383C183.527 167.951 183.018 168.394 182.379 168.71C181.746 169.021 181.034 169.176 180.243 169.176ZM179.988 161.028C179.402 161.028 178.928 161.233 178.564 161.644C178.207 162.054 177.979 162.625 177.879 163.357H181.948V163.199C181.901 162.484 181.711 161.945 181.377 161.582C181.043 161.213 180.58 161.028 179.988 161.028ZM190.702 161.441C190.421 161.395 190.131 161.371 189.832 161.371C188.854 161.371 188.194 161.746 187.854 162.496V169H185.719V159.49H187.758L187.811 160.554C188.326 159.728 189.041 159.314 189.955 159.314C190.26 159.314 190.512 159.355 190.711 159.438L190.702 161.441ZM103.813 188.225H109.623V190H101.59V177.203H103.813V188.225ZM115.31 190.176C113.956 190.176 112.857 189.751 112.014 188.901C111.176 188.046 110.757 186.909 110.757 185.491V185.228C110.757 184.278 110.938 183.432 111.302 182.688C111.671 181.938 112.187 181.354 112.849 180.938C113.511 180.522 114.249 180.314 115.063 180.314C116.358 180.314 117.357 180.728 118.061 181.554C118.77 182.38 119.124 183.549 119.124 185.061V185.922H112.91C112.975 186.707 113.235 187.328 113.692 187.785C114.155 188.242 114.735 188.471 115.433 188.471C116.411 188.471 117.208 188.075 117.823 187.284L118.975 188.383C118.594 188.951 118.084 189.394 117.445 189.71C116.812 190.021 116.101 190.176 115.31 190.176ZM115.055 182.028C114.469 182.028 113.994 182.233 113.631 182.644C113.273 183.054 113.045 183.625 112.945 184.357H117.015V184.199C116.968 183.484 116.777 182.945 116.443 182.582C116.109 182.213 115.646 182.028 115.055 182.028ZM120.39 185.175C120.39 183.71 120.729 182.535 121.409 181.65C122.089 180.76 123 180.314 124.143 180.314C125.15 180.314 125.965 180.666 126.586 181.369V176.5H128.722V190H126.788L126.683 189.016C126.044 189.789 125.191 190.176 124.125 190.176C123.012 190.176 122.109 189.728 121.418 188.831C120.732 187.935 120.39 186.716 120.39 185.175ZM122.525 185.359C122.525 186.326 122.71 187.082 123.079 187.627C123.454 188.166 123.984 188.436 124.67 188.436C125.543 188.436 126.182 188.046 126.586 187.267V183.206C126.193 182.444 125.561 182.063 124.688 182.063C123.996 182.063 123.463 182.339 123.088 182.89C122.713 183.435 122.525 184.258 122.525 185.359ZM130.55 185.175C130.55 183.71 130.89 182.535 131.569 181.65C132.249 180.76 133.16 180.314 134.303 180.314C135.311 180.314 136.125 180.666 136.746 181.369V176.5H138.882V190H136.948L136.843 189.016C136.204 189.789 135.352 190.176 134.285 190.176C133.172 190.176 132.27 189.728 131.578 188.831C130.893 187.935 130.55 186.716 130.55 185.175ZM132.686 185.359C132.686 186.326 132.87 187.082 133.239 187.627C133.614 188.166 134.145 188.436 134.83 188.436C135.703 188.436 136.342 188.046 136.746 187.267V183.206C136.354 182.444 135.721 182.063 134.848 182.063C134.156 182.063 133.623 182.339 133.248 182.89C132.873 183.435 132.686 184.258 132.686 185.359ZM149.438 185.342C149.438 186.812 149.104 187.987 148.436 188.866C147.768 189.739 146.871 190.176 145.746 190.176C144.703 190.176 143.868 189.833 143.241 189.147V193.656H141.105V180.49H143.074L143.162 181.457C143.789 180.695 144.642 180.314 145.72 180.314C146.88 180.314 147.788 180.748 148.444 181.615C149.106 182.477 149.438 183.675 149.438 185.21V185.342ZM147.311 185.157C147.311 184.208 147.12 183.455 146.739 182.898C146.364 182.342 145.825 182.063 145.122 182.063C144.249 182.063 143.622 182.424 143.241 183.145V187.363C143.628 188.102 144.261 188.471 145.14 188.471C145.819 188.471 146.35 188.198 146.73 187.653C147.117 187.103 147.311 186.271 147.311 185.157ZM153.524 190H151.389V176.5H153.524V190ZM161.54 190C161.446 189.818 161.364 189.522 161.294 189.112C160.614 189.821 159.782 190.176 158.798 190.176C157.843 190.176 157.063 189.903 156.46 189.358C155.856 188.813 155.555 188.14 155.555 187.337C155.555 186.323 155.93 185.547 156.68 185.008C157.436 184.463 158.514 184.19 159.914 184.19H161.224V183.566C161.224 183.074 161.086 182.682 160.811 182.389C160.535 182.09 160.116 181.94 159.554 181.94C159.067 181.94 158.669 182.063 158.358 182.31C158.048 182.55 157.893 182.857 157.893 183.232H155.757C155.757 182.711 155.93 182.225 156.275 181.773C156.621 181.316 157.09 180.959 157.682 180.701C158.279 180.443 158.944 180.314 159.677 180.314C160.79 180.314 161.678 180.596 162.34 181.158C163.002 181.715 163.342 182.5 163.359 183.514V187.803C163.359 188.658 163.479 189.341 163.72 189.851V190H161.54ZM159.193 188.462C159.615 188.462 160.011 188.359 160.38 188.154C160.755 187.949 161.036 187.674 161.224 187.328V185.535H160.072C159.281 185.535 158.687 185.673 158.288 185.948C157.89 186.224 157.69 186.613 157.69 187.117C157.69 187.527 157.825 187.855 158.095 188.102C158.37 188.342 158.736 188.462 159.193 188.462ZM165.223 185.175C165.223 183.698 165.568 182.521 166.26 181.642C166.957 180.757 167.88 180.314 169.028 180.314C170.112 180.314 170.965 180.692 171.586 181.448L171.683 180.49H173.607V189.71C173.607 190.958 173.218 191.942 172.438 192.663C171.665 193.384 170.619 193.744 169.301 193.744C168.604 193.744 167.921 193.598 167.253 193.305C166.591 193.018 166.087 192.64 165.741 192.171L166.752 190.888C167.408 191.667 168.217 192.057 169.178 192.057C169.887 192.057 170.446 191.863 170.856 191.477C171.267 191.096 171.472 190.533 171.472 189.789V189.147C170.856 189.833 170.036 190.176 169.011 190.176C167.897 190.176 166.986 189.733 166.277 188.849C165.574 187.964 165.223 186.739 165.223 185.175ZM167.35 185.359C167.35 186.314 167.543 187.067 167.93 187.618C168.322 188.163 168.864 188.436 169.556 188.436C170.417 188.436 171.056 188.066 171.472 187.328V183.145C171.067 182.424 170.435 182.063 169.573 182.063C168.87 182.063 168.322 182.342 167.93 182.898C167.543 183.455 167.35 184.275 167.35 185.359ZM179.997 190.176C178.644 190.176 177.545 189.751 176.701 188.901C175.863 188.046 175.444 186.909 175.444 185.491V185.228C175.444 184.278 175.626 183.432 175.989 182.688C176.358 181.938 176.874 181.354 177.536 180.938C178.198 180.522 178.937 180.314 179.751 180.314C181.046 180.314 182.045 180.728 182.748 181.554C183.457 182.38 183.812 183.549 183.812 185.061V185.922H177.598C177.662 186.707 177.923 187.328 178.38 187.785C178.843 188.242 179.423 188.471 180.12 188.471C181.099 188.471 181.896 188.075 182.511 187.284L183.662 188.383C183.281 188.951 182.771 189.394 182.133 189.71C181.5 190.021 180.788 190.176 179.997 190.176ZM179.742 182.028C179.156 182.028 178.682 182.233 178.318 182.644C177.961 183.054 177.732 183.625 177.633 184.357H181.702V184.199C181.655 183.484 181.465 182.945 181.131 182.582C180.797 182.213 180.334 182.028 179.742 182.028ZM190.456 182.441C190.175 182.395 189.885 182.371 189.586 182.371C188.607 182.371 187.948 182.746 187.608 183.496V190H185.473V180.49H187.512L187.564 181.554C188.08 180.728 188.795 180.314 189.709 180.314C190.014 180.314 190.266 180.355 190.465 180.438L190.456 182.441ZM76.7432 211V198.203H81.1289C82.5762 198.203 83.6777 198.493 84.4336 199.073C85.1895 199.653 85.5674 200.518 85.5674 201.666C85.5674 202.252 85.4092 202.779 85.0928 203.248C84.7764 203.717 84.3135 204.08 83.7041 204.338C84.3955 204.525 84.9287 204.88 85.3037 205.401C85.6846 205.917 85.875 206.538 85.875 207.265C85.875 208.466 85.4883 209.389 84.7148 210.033C83.9473 210.678 82.8457 211 81.4102 211H76.7432ZM78.9668 205.226V209.225H81.4365C82.1338 209.225 82.6787 209.052 83.0713 208.706C83.4639 208.36 83.6602 207.88 83.6602 207.265C83.6602 205.935 82.9805 205.255 81.6211 205.226H78.9668ZM78.9668 203.591H81.1465C81.8379 203.591 82.377 203.436 82.7637 203.125C83.1562 202.809 83.3525 202.363 83.3525 201.789C83.3525 201.156 83.1709 200.699 82.8076 200.418C82.4502 200.137 81.8906 199.996 81.1289 199.996H78.9668V203.591ZM92.0801 211.176C90.7266 211.176 89.6279 210.751 88.7842 209.901C87.9463 209.046 87.5273 207.909 87.5273 206.491V206.228C87.5273 205.278 87.709 204.432 88.0723 203.688C88.4414 202.938 88.957 202.354 89.6191 201.938C90.2812 201.522 91.0195 201.314 91.834 201.314C93.1289 201.314 94.1279 201.728 94.8311 202.554C95.54 203.38 95.8945 204.549 95.8945 206.061V206.922H89.6807C89.7451 207.707 90.0059 208.328 90.4629 208.785C90.9258 209.242 91.5059 209.471 92.2031 209.471C93.1816 209.471 93.9785 209.075 94.5938 208.284L95.7451 209.383C95.3643 209.951 94.8545 210.394 94.2158 210.71C93.583 211.021 92.8711 211.176 92.0801 211.176ZM91.8252 203.028C91.2393 203.028 90.7646 203.233 90.4014 203.644C90.0439 204.054 89.8154 204.625 89.7158 205.357H93.7852V205.199C93.7383 204.484 93.5479 203.945 93.2139 203.582C92.8799 203.213 92.417 203.028 91.8252 203.028ZM99.832 211H97.6963V197.5H99.832V211ZM107.848 211C107.754 210.818 107.672 210.522 107.602 210.112C106.922 210.821 106.09 211.176 105.105 211.176C104.15 211.176 103.371 210.903 102.768 210.358C102.164 209.813 101.862 209.14 101.862 208.337C101.862 207.323 102.237 206.547 102.987 206.008C103.743 205.463 104.821 205.19 106.222 205.19H107.531V204.566C107.531 204.074 107.394 203.682 107.118 203.389C106.843 203.09 106.424 202.94 105.861 202.94C105.375 202.94 104.977 203.063 104.666 203.31C104.355 203.55 104.2 203.857 104.2 204.232H102.064C102.064 203.711 102.237 203.225 102.583 202.773C102.929 202.316 103.397 201.959 103.989 201.701C104.587 201.443 105.252 201.314 105.984 201.314C107.098 201.314 107.985 201.596 108.647 202.158C109.31 202.715 109.649 203.5 109.667 204.514V208.803C109.667 209.658 109.787 210.341 110.027 210.851V211H107.848ZM105.501 209.462C105.923 209.462 106.318 209.359 106.688 209.154C107.062 208.949 107.344 208.674 107.531 208.328V206.535H106.38C105.589 206.535 104.994 206.673 104.596 206.948C104.197 207.224 103.998 207.613 103.998 208.117C103.998 208.527 104.133 208.855 104.402 209.102C104.678 209.342 105.044 209.462 105.501 209.462ZM117.234 208.416C117.234 208.035 117.076 207.745 116.76 207.546C116.449 207.347 115.931 207.171 115.204 207.019C114.478 206.866 113.871 206.673 113.385 206.438C112.318 205.923 111.785 205.176 111.785 204.197C111.785 203.377 112.131 202.691 112.822 202.141C113.514 201.59 114.393 201.314 115.459 201.314C116.596 201.314 117.513 201.596 118.21 202.158C118.913 202.721 119.265 203.45 119.265 204.347H117.129C117.129 203.937 116.977 203.597 116.672 203.327C116.367 203.052 115.963 202.914 115.459 202.914C114.99 202.914 114.606 203.022 114.308 203.239C114.015 203.456 113.868 203.746 113.868 204.109C113.868 204.438 114.006 204.692 114.281 204.874C114.557 205.056 115.113 205.24 115.951 205.428C116.789 205.609 117.445 205.829 117.92 206.087C118.4 206.339 118.755 206.644 118.983 207.001C119.218 207.358 119.335 207.792 119.335 208.302C119.335 209.157 118.98 209.852 118.271 210.385C117.562 210.912 116.634 211.176 115.485 211.176C114.706 211.176 114.012 211.035 113.402 210.754C112.793 210.473 112.318 210.086 111.979 209.594C111.639 209.102 111.469 208.571 111.469 208.003H113.543C113.572 208.507 113.763 208.896 114.114 209.172C114.466 209.441 114.932 209.576 115.512 209.576C116.074 209.576 116.502 209.471 116.795 209.26C117.088 209.043 117.234 208.762 117.234 208.416ZM123.879 199.179V201.49H125.558V203.072H123.879V208.381C123.879 208.744 123.949 209.008 124.09 209.172C124.236 209.33 124.494 209.409 124.863 209.409C125.109 209.409 125.358 209.38 125.61 209.321V210.974C125.124 211.108 124.655 211.176 124.204 211.176C122.563 211.176 121.743 210.271 121.743 208.46V203.072H120.179V201.49H121.743V199.179H123.879ZM129.179 201.49L129.24 202.589C129.943 201.739 130.866 201.314 132.009 201.314C133.989 201.314 134.997 202.448 135.032 204.716V211H132.896V204.839C132.896 204.235 132.765 203.79 132.501 203.503C132.243 203.21 131.818 203.063 131.227 203.063C130.365 203.063 129.724 203.453 129.302 204.232V211H127.166V201.49H129.179ZM139.488 211H137.353V201.49H139.488V211ZM137.221 199.021C137.221 198.692 137.323 198.42 137.528 198.203C137.739 197.986 138.038 197.878 138.425 197.878C138.812 197.878 139.11 197.986 139.321 198.203C139.532 198.42 139.638 198.692 139.638 199.021C139.638 199.343 139.532 199.612 139.321 199.829C139.11 200.04 138.812 200.146 138.425 200.146C138.038 200.146 137.739 200.04 137.528 199.829C137.323 199.612 137.221 199.343 137.221 199.021ZM143.804 201.49L143.865 202.589C144.568 201.739 145.491 201.314 146.634 201.314C148.614 201.314 149.622 202.448 149.657 204.716V211H147.521V204.839C147.521 204.235 147.39 203.79 147.126 203.503C146.868 203.21 146.443 203.063 145.852 203.063C144.99 203.063 144.349 203.453 143.927 204.232V211H141.791V201.49H143.804ZM151.468 206.175C151.468 204.698 151.813 203.521 152.505 202.642C153.202 201.757 154.125 201.314 155.273 201.314C156.357 201.314 157.21 201.692 157.831 202.448L157.928 201.49H159.853V210.71C159.853 211.958 159.463 212.942 158.684 213.663C157.91 214.384 156.864 214.744 155.546 214.744C154.849 214.744 154.166 214.598 153.498 214.305C152.836 214.018 152.332 213.64 151.986 213.171L152.997 211.888C153.653 212.667 154.462 213.057 155.423 213.057C156.132 213.057 156.691 212.863 157.102 212.477C157.512 212.096 157.717 211.533 157.717 210.789V210.147C157.102 210.833 156.281 211.176 155.256 211.176C154.143 211.176 153.231 210.733 152.522 209.849C151.819 208.964 151.468 207.739 151.468 206.175ZM153.595 206.359C153.595 207.314 153.788 208.067 154.175 208.618C154.567 209.163 155.109 209.436 155.801 209.436C156.662 209.436 157.301 209.066 157.717 208.328V204.145C157.312 203.424 156.68 203.063 155.818 203.063C155.115 203.063 154.567 203.342 154.175 203.898C153.788 204.455 153.595 205.275 153.595 206.359ZM167.385 208.416C167.385 208.035 167.227 207.745 166.91 207.546C166.6 207.347 166.081 207.171 165.354 207.019C164.628 206.866 164.021 206.673 163.535 206.438C162.469 205.923 161.936 205.176 161.936 204.197C161.936 203.377 162.281 202.691 162.973 202.141C163.664 201.59 164.543 201.314 165.609 201.314C166.746 201.314 167.663 201.596 168.36 202.158C169.063 202.721 169.415 203.45 169.415 204.347H167.279C167.279 203.937 167.127 203.597 166.822 203.327C166.518 203.052 166.113 202.914 165.609 202.914C165.141 202.914 164.757 203.022 164.458 203.239C164.165 203.456 164.019 203.746 164.019 204.109C164.019 204.438 164.156 204.692 164.432 204.874C164.707 205.056 165.264 205.24 166.102 205.428C166.939 205.609 167.596 205.829 168.07 206.087C168.551 206.339 168.905 206.644 169.134 207.001C169.368 207.358 169.485 207.792 169.485 208.302C169.485 209.157 169.131 209.852 168.422 210.385C167.713 210.912 166.784 211.176 165.636 211.176C164.856 211.176 164.162 211.035 163.553 210.754C162.943 210.473 162.469 210.086 162.129 209.594C161.789 209.102 161.619 208.571 161.619 208.003H163.693C163.723 208.507 163.913 208.896 164.265 209.172C164.616 209.441 165.082 209.576 165.662 209.576C166.225 209.576 166.652 209.471 166.945 209.26C167.238 209.043 167.385 208.762 167.385 208.416ZM174.442 206.922L173.493 207.897V211H171.357V197.5H173.493V205.287L174.161 204.452L176.789 201.49H179.355L175.822 205.454L179.733 211H177.264L174.442 206.922ZM186.439 211C186.346 210.818 186.264 210.522 186.193 210.112C185.514 210.821 184.682 211.176 183.697 211.176C182.742 211.176 181.963 210.903 181.359 210.358C180.756 209.813 180.454 209.14 180.454 208.337C180.454 207.323 180.829 206.547 181.579 206.008C182.335 205.463 183.413 205.19 184.813 205.19H186.123V204.566C186.123 204.074 185.985 203.682 185.71 203.389C185.435 203.09 185.016 202.94 184.453 202.94C183.967 202.94 183.568 203.063 183.258 203.31C182.947 203.55 182.792 203.857 182.792 204.232H180.656C180.656 203.711 180.829 203.225 181.175 202.773C181.521 202.316 181.989 201.959 182.581 201.701C183.179 201.443 183.844 201.314 184.576 201.314C185.689 201.314 186.577 201.596 187.239 202.158C187.901 202.715 188.241 203.5 188.259 204.514V208.803C188.259 209.658 188.379 210.341 188.619 210.851V211H186.439ZM184.093 209.462C184.515 209.462 184.91 209.359 185.279 209.154C185.654 208.949 185.936 208.674 186.123 208.328V206.535H184.972C184.181 206.535 183.586 206.673 183.188 206.948C182.789 207.224 182.59 207.613 182.59 208.117C182.59 208.527 182.725 208.855 182.994 209.102C183.27 209.342 183.636 209.462 184.093 209.462ZM190.096 206.175C190.096 204.71 190.436 203.535 191.115 202.65C191.795 201.76 192.706 201.314 193.849 201.314C194.856 201.314 195.671 201.666 196.292 202.369V197.5H198.428V211H196.494L196.389 210.016C195.75 210.789 194.897 211.176 193.831 211.176C192.718 211.176 191.815 210.728 191.124 209.831C190.438 208.935 190.096 207.716 190.096 206.175ZM192.231 206.359C192.231 207.326 192.416 208.082 192.785 208.627C193.16 209.166 193.69 209.436 194.376 209.436C195.249 209.436 195.888 209.046 196.292 208.267V204.206C195.899 203.444 195.267 203.063 194.394 203.063C193.702 203.063 193.169 203.339 192.794 203.89C192.419 204.435 192.231 205.258 192.231 206.359ZM204.844 211.176C203.49 211.176 202.392 210.751 201.548 209.901C200.71 209.046 200.291 207.909 200.291 206.491V206.228C200.291 205.278 200.473 204.432 200.836 203.688C201.205 202.938 201.721 202.354 202.383 201.938C203.045 201.522 203.783 201.314 204.598 201.314C205.893 201.314 206.892 201.728 207.595 202.554C208.304 203.38 208.658 204.549 208.658 206.061V206.922H202.444C202.509 207.707 202.77 208.328 203.227 208.785C203.689 209.242 204.27 209.471 204.967 209.471C205.945 209.471 206.742 209.075 207.357 208.284L208.509 209.383C208.128 209.951 207.618 210.394 206.979 210.71C206.347 211.021 205.635 211.176 204.844 211.176ZM204.589 203.028C204.003 203.028 203.528 203.233 203.165 203.644C202.808 204.054 202.579 204.625 202.479 205.357H206.549V205.199C206.502 204.484 206.312 203.945 205.978 203.582C205.644 203.213 205.181 203.028 204.589 203.028ZM215.303 203.441C215.021 203.395 214.731 203.371 214.433 203.371C213.454 203.371 212.795 203.746 212.455 204.496V211H210.319V201.49H212.358L212.411 202.554C212.927 201.728 213.642 201.314 214.556 201.314C214.86 201.314 215.112 201.355 215.312 201.438L215.303 203.441Z" fill="#333333"/>
<g filter="url(#filter2_d)">
<path fill-rule="evenodd" clip-rule="evenodd" d="M293.167 100.78C294.678 98.7351 295.626 96.2915 295.254 93.6533C294.182 86.0522 283.656 88.4744 281.857 92.474C280.057 96.4736 280.989 106.236 283.713 106.738C284.799 106.939 287.025 106.107 289.241 104.553L288.509 114.918L297.083 114.32L293.167 100.78Z" fill="#915B3C"/>
<path fill-rule="evenodd" clip-rule="evenodd" d="M304.123 145.492L277.504 189.937L257.548 227.512H253.249L286.687 145.492L304.123 145.492Z" fill="#784931"/>
<path fill-rule="evenodd" clip-rule="evenodd" d="M260.176 225.777C260.577 226.846 260.777 227.645 260.777 228.176C260.777 228.821 260.67 229.762 260.454 231C259.705 231 252.97 231 240.25 231C239.725 229.266 240.028 228.33 241.159 228.192C242.29 228.054 243.23 227.929 243.978 227.818L253.369 223.637C253.55 223.556 253.762 223.637 253.842 223.818C253.844 223.821 253.845 223.824 253.846 223.827L254.45 225.289C255.497 225.777 256.348 226.021 257.003 226.021C257.535 226.021 258.269 225.807 259.207 225.378L259.207 225.378C259.566 225.213 259.992 225.371 260.157 225.73C260.164 225.745 260.17 225.761 260.176 225.777Z" fill="#DEDEDE"/>
<path fill-rule="evenodd" clip-rule="evenodd" d="M263.09 221.495L254.801 218.991C258.433 208.147 262.884 196.214 268.155 183.192C273.426 170.17 279.086 157.603 285.137 145.492H308.549C301.822 160.812 294.691 174.733 287.155 187.253C279.619 199.774 271.598 211.188 263.09 221.495Z" fill="#C6C8DE"/>
<path fill-rule="evenodd" clip-rule="evenodd" d="M305.872 145.492C308.385 161.11 313.23 181.064 313.688 181.68C313.992 182.091 324.968 185.764 346.613 192.699L345.684 196.485C319.872 192.765 306.272 189.88 304.882 187.828C302.798 184.75 292.392 160.434 288.361 145.492H305.872Z" fill="#915B3C"/>
<path fill-rule="evenodd" clip-rule="evenodd" d="M339.004 189.427L337.368 195.524C318.063 197.215 306.234 195.993 301.881 191.858C297.529 187.723 292.568 172.268 287 145.492H309.325C312.853 167.418 314.826 178.841 315.242 179.761C315.659 180.682 323.58 183.903 339.004 189.427Z" fill="#D5D7ED"/>
<path fill-rule="evenodd" clip-rule="evenodd" d="M345.555 191.122C346.677 190.913 347.5 190.854 348.023 190.946C348.659 191.058 349.568 191.327 350.751 191.754C350.621 192.491 349.45 199.116 347.24 211.628C345.44 211.843 344.57 211.383 344.63 210.246C344.691 209.11 344.731 208.164 344.751 207.408L342.262 197.446C342.214 197.254 342.331 197.06 342.522 197.012C342.526 197.011 342.529 197.01 342.532 197.01L344.079 196.67C344.742 195.724 345.13 194.929 345.244 194.285C345.336 193.762 345.253 193.002 344.992 192.006L344.992 192.006C344.893 191.624 345.122 191.233 345.505 191.133C345.521 191.128 345.538 191.125 345.555 191.122Z" fill="#E4E4E4"/>
<path fill-rule="evenodd" clip-rule="evenodd" d="M272.152 141.958L262.358 152.195C259.451 153.555 257.083 155.028 255.251 156.613C254.845 157.139 254.418 158.134 256.397 157.626C258.376 157.119 260.48 156.675 260.878 157.31C261.275 157.945 260.206 158.976 260.928 159.8C261.41 160.349 262.9 158.497 265.397 154.243L275.725 147.665L272.152 141.958ZM322.465 129.557L316.451 131.775C326.187 144.804 331.385 151.684 332.043 152.415C333.525 154.061 332.947 157.598 332.818 159.433C335.488 159.625 333.858 155.912 337.244 156.206C340.335 156.474 343.157 157.97 345.524 154.977C345.815 154.609 345.909 153.588 344.667 153.268C341.572 152.471 336.921 150.798 336.082 149.996C334.939 148.902 330.4 142.089 322.465 129.557Z" fill="#915B3C"/>
<path fill-rule="evenodd" clip-rule="evenodd" d="M269.692 143.325C268.226 143.475 266.694 143.992 265.106 144.857C264.325 145.283 264.037 146.261 264.464 147.042C264.712 147.495 265.146 147.783 265.619 147.86C265.338 148.152 265.053 148.444 264.766 148.735L268.627 154.024C279.52 145.973 289.953 139.512 293.333 128.789C294.467 125.19 291.907 114.094 291.351 109.991L287.306 109.109C283.967 120.894 278.691 132.565 269.692 143.325Z" fill="#77999E"/>
<path fill-rule="evenodd" clip-rule="evenodd" d="M311.298 145.532C300.425 148.7 291.697 150.236 285.115 150.139C284.299 150.127 283.734 146.724 283.936 145.731C287.079 130.279 288.958 119.042 287.184 109.006C288.326 109.367 290.17 109.127 292.716 108.285C301.567 117.392 306.892 128.691 311.298 145.532Z" fill="#DDDDDD"/>
<path fill-rule="evenodd" clip-rule="evenodd" d="M313.66 146.873C313.974 146.453 314.077 145.888 313.884 145.358L313.516 144.349C313.267 143.666 312.603 143.253 311.911 143.291C311.699 142.784 311.505 142.276 311.328 141.77C309.838 137.492 310.292 132.96 309.485 128.73C316.011 132.567 322.574 140.019 329.173 151.088L335.488 147.957C335.068 147.059 334.64 146.173 334.205 145.301C334.896 144.729 335.441 142.571 334.736 142.35C334.007 142.122 333.256 142.003 332.486 141.991C323.131 124.686 310.768 113.002 295.397 106.938L294.17 107.154L291.386 107.644C295.324 123.039 285.031 159.976 295.836 188.073C306.718 188.566 320.379 178.669 335.953 181.915C333.342 170.294 320.066 158.438 313.66 146.873L313.66 146.873Z" fill="#A7C4C9"/>
<path fill-rule="evenodd" clip-rule="evenodd" d="M294.004 107.552L296.811 112.823L293.887 117.658L297.78 120.369L292.191 135.484L299.571 120.082L295.732 117.334L298.33 113.058L294.004 107.552Z" fill="black" fill-opacity="0.1"/>
<path fill-rule="evenodd" clip-rule="evenodd" d="M295.469 140.355C296.248 140.217 296.768 139.475 296.631 138.697C296.493 137.919 295.75 137.399 294.971 137.536C294.193 137.673 293.673 138.415 293.81 139.193C293.948 139.972 294.691 140.492 295.469 140.355ZM295.138 148.769C295.917 148.632 296.437 147.89 296.3 147.111C296.162 146.333 295.419 145.813 294.64 145.95C293.861 146.087 293.341 146.829 293.479 147.608C293.616 148.386 294.359 148.906 295.138 148.769ZM296.217 156.935C296.996 156.798 297.516 156.056 297.379 155.278C297.241 154.499 296.498 153.979 295.719 154.116C294.94 154.254 294.42 154.996 294.558 155.774C294.695 156.553 295.438 157.072 296.217 156.935Z" fill="black" fill-opacity="0.4"/>
<path fill-rule="evenodd" clip-rule="evenodd" d="M287.099 87.9669C288.244 87.788 291.328 87.6649 291.896 87.665C292.26 87.665 292.654 87.7441 292.869 87.4261C293.045 87.1657 292.981 86.7254 293.033 86.4232C293.094 86.0722 293.181 85.7257 293.269 85.3801C293.519 84.3966 293.896 83.4609 294.425 82.5825C295.416 80.9344 296.869 79.6434 298.702 78.8922C300.727 78.0627 303.019 77.8728 305.197 78.041C307.528 78.221 309.638 78.9542 311.838 79.6442C313.936 80.3017 316.132 80.5605 318.326 80.2394C320.536 79.9159 322.205 78.7746 324.069 77.6914C325.978 76.5824 328.158 75.8571 330.414 76.0238C332.52 76.1795 334.461 77.008 336.202 78.1148C337.832 79.1503 339.176 80.3961 339.935 82.1495C340.751 84.0357 340.75 86.1061 339.408 87.773C337.462 90.1893 333.849 90.8141 330.843 90.752C329.105 90.7161 327.397 90.4137 325.756 89.8637C323.567 89.13 321.675 87.8865 319.627 86.8776C318.666 86.4042 317.673 86.0154 316.631 85.7353C315.621 85.4634 314.626 85.3387 313.711 85.9203C312.743 86.5356 311.876 87.14 310.769 87.5252C309.707 87.8947 308.582 88.1014 307.45 88.0931C305.248 88.0769 303.078 87.4232 300.939 86.9853C299.196 86.6284 297.33 86.2726 295.552 86.6157C294.81 86.759 293.727 87.0546 293.459 87.7892C297.968 88.568 299.739 93.8822 298.468 97.7833C297.782 99.8888 293.657 102.35 292.054 101.243C291.038 100.542 291.655 99.6214 292.054 99.0136C292.818 97.8497 293.08 96.3547 291.665 95.5444C290.445 94.8455 289.162 96.5052 289.138 96.5033C288.803 96.4781 285.905 94.9166 283.908 92.638C281.939 92.7493 281.64 91.5119 282.11 90.4999C282.581 89.4879 285.516 88.2144 287.099 87.9669Z" fill="#191847"/>
</g>
<defs>
<filter id="filter0_d" x="73.0001" y="69" width="226.764" height="202.967" filterUnits="userSpaceOnUse" color-interpolation-filters="sRGB">
<feFlood flood-opacity="0" result="BackgroundImageFix"/>
<feColorMatrix in="SourceAlpha" type="matrix" values="0 0 0 0 0 0 0 0 0 0 0 0 0 0 0 0 0 0 127 0"/>
<feOffset dy="4"/>
<feGaussianBlur stdDeviation="2"/>
<feColorMatrix type="matrix" values="0 0 0 0 0 0 0 0 0 0 0 0 0 0 0 0 0 0 0.25 0"/>
<feBlend mode="normal" in2="BackgroundImageFix" result="effect1_dropShadow"/>
<feBlend mode="normal" in="SourceGraphic" in2="effect1_dropShadow" result="shape"/>
</filter>
<filter id="filter1_d" x="34.0758" y="38.6808" width="239.688" height="235.248" filterUnits="userSpaceOnUse" color-interpolation-filters="sRGB">
<feFlood flood-opacity="0" result="BackgroundImageFix"/>
<feColorMatrix in="SourceAlpha" type="matrix" values="0 0 0 0 0 0 0 0 0 0 0 0 0 0 0 0 0 0 127 0"/>
<feOffset dy="4"/>
<feGaussianBlur stdDeviation="2"/>
<feColorMatrix type="matrix" values="0 0 0 0 0 0 0 0 0 0 0 0 0 0 0 0 0 0 0.25 0"/>
<feBlend mode="normal" in2="BackgroundImageFix" result="effect1_dropShadow"/>
<feBlend mode="normal" in="SourceGraphic" in2="effect1_dropShadow" result="shape"/>
</filter>
<filter id="filter2_d" x="236" y="76" width="120" height="163" filterUnits="userSpaceOnUse" color-interpolation-filters="sRGB">
<feFlood flood-opacity="0" result="BackgroundImageFix"/>
<feColorMatrix in="SourceAlpha" type="matrix" values="0 0 0 0 0 0 0 0 0 0 0 0 0 0 0 0 0 0 127 0"/>
<feOffset dy="4"/>
<feGaussianBlur stdDeviation="2"/>
<feColorMatrix type="matrix" values="0 0 0 0 0 0 0 0 0 0 0 0 0 0 0 0 0 0 0.25 0"/>
<feBlend mode="normal" in2="BackgroundImageFix" result="effect1_dropShadow"/>
<feBlend mode="normal" in="SourceGraphic" in2="effect1_dropShadow" result="shape"/>
</filter>
</defs>
</svg>
