<svg width="289" height="116" viewBox="0 0 289 116" fill="none" xmlns="http://www.w3.org/2000/svg">
<path d="M33.9385 24V14.0469H37.001C37.876 14.0469 38.6576 14.2451 39.3457 14.6416C40.0384 15.0335 40.5785 15.5941 40.9658 16.3232C41.3532 17.0479 41.5469 17.8727 41.5469 18.7979V19.2559C41.5469 20.181 41.3555 21.0036 40.9727 21.7236C40.5944 22.4437 40.0589 23.002 39.3662 23.3984C38.6735 23.7949 37.8919 23.9954 37.0215 24H33.9385ZM35.9893 15.708V22.3525H36.9805C37.7826 22.3525 38.3955 22.0905 38.8193 21.5664C39.2432 21.0423 39.4596 20.2926 39.4688 19.3174V18.791C39.4688 17.7793 39.2591 17.0137 38.8398 16.4941C38.4206 15.9701 37.8076 15.708 37.001 15.708H35.9893ZM47.3438 23.248C46.8561 23.8405 46.1816 24.1367 45.3203 24.1367C44.5273 24.1367 43.9212 23.9089 43.502 23.4531C43.0872 22.9974 42.8753 22.3298 42.8662 21.4502V16.6035H44.8418V21.3818C44.8418 22.152 45.1927 22.5371 45.8945 22.5371C46.5645 22.5371 47.0247 22.3047 47.2754 21.8398V16.6035H49.2578V24H47.3984L47.3438 23.248ZM56.9209 21.0332L56.21 21.7441V24H54.2344V13.5H56.21V19.3174L56.5928 18.8252L58.4863 16.6035H60.8584L58.1855 19.6865L61.0908 24H58.8213L56.9209 21.0332ZM65.999 24C65.9079 23.8223 65.8418 23.6012 65.8008 23.3369C65.3223 23.8701 64.7002 24.1367 63.9346 24.1367C63.21 24.1367 62.6084 23.9271 62.1299 23.5078C61.6559 23.0885 61.4189 22.5599 61.4189 21.9219C61.4189 21.138 61.7083 20.5365 62.2871 20.1172C62.8704 19.6979 63.7113 19.486 64.8096 19.4814H65.7188V19.0576C65.7188 18.7158 65.6299 18.4424 65.4521 18.2373C65.279 18.0322 65.0033 17.9297 64.625 17.9297C64.2923 17.9297 64.0303 18.0094 63.8389 18.1689C63.652 18.3285 63.5586 18.5472 63.5586 18.8252H61.583C61.583 18.3968 61.7152 18.0003 61.9795 17.6357C62.2438 17.2712 62.6175 16.9863 63.1006 16.7812C63.5837 16.5716 64.126 16.4668 64.7275 16.4668C65.639 16.4668 66.3613 16.6969 66.8945 17.1572C67.4323 17.613 67.7012 18.2555 67.7012 19.085V22.291C67.7057 22.9928 67.8037 23.5238 67.9951 23.8838V24H65.999ZM64.3652 22.626C64.6569 22.626 64.9258 22.5622 65.1719 22.4346C65.418 22.3024 65.6003 22.127 65.7188 21.9082V20.6367H64.9805C63.9915 20.6367 63.4652 20.9785 63.4014 21.6621L63.3945 21.7783C63.3945 22.0244 63.4811 22.2272 63.6543 22.3867C63.8275 22.5462 64.0645 22.626 64.3652 22.626ZM71.0371 16.6035L71.0986 17.458C71.6273 16.7972 72.3359 16.4668 73.2246 16.4668C74.0085 16.4668 74.5918 16.6969 74.9746 17.1572C75.3574 17.6175 75.5534 18.3057 75.5625 19.2217V24H73.5869V19.2695C73.5869 18.8503 73.4958 18.5472 73.3135 18.3604C73.1312 18.1689 72.8281 18.0732 72.4043 18.0732C71.8483 18.0732 71.4313 18.3102 71.1533 18.7842V24H69.1777V16.6035H71.0371ZM81.0928 24V18.0527H79.9922V16.6035H81.0928V15.9746C81.0928 15.1452 81.3298 14.5026 81.8037 14.0469C82.2822 13.5866 82.9499 13.3564 83.8066 13.3564C84.0801 13.3564 84.415 13.402 84.8115 13.4932L84.791 15.0244C84.627 14.9834 84.4264 14.9629 84.1895 14.9629C83.4466 14.9629 83.0752 15.3115 83.0752 16.0088V16.6035H84.5449V18.0527H83.0752V24H81.0928ZM85.2627 20.2334C85.2627 19.4997 85.404 18.8457 85.6865 18.2715C85.9691 17.6973 86.3747 17.2529 86.9033 16.9385C87.4365 16.624 88.054 16.4668 88.7559 16.4668C89.7539 16.4668 90.5674 16.7721 91.1963 17.3828C91.8298 17.9935 92.1829 18.8229 92.2559 19.8711L92.2695 20.377C92.2695 21.5117 91.9528 22.4232 91.3193 23.1113C90.6859 23.7949 89.8359 24.1367 88.7695 24.1367C87.7031 24.1367 86.8509 23.7949 86.2129 23.1113C85.5794 22.4277 85.2627 21.498 85.2627 20.3223V20.2334ZM87.2383 20.377C87.2383 21.0788 87.3704 21.6165 87.6348 21.9902C87.8991 22.3594 88.2773 22.5439 88.7695 22.5439C89.248 22.5439 89.6217 22.3617 89.8906 21.9971C90.1595 21.6279 90.2939 21.04 90.2939 20.2334C90.2939 19.5452 90.1595 19.012 89.8906 18.6338C89.6217 18.2555 89.2435 18.0664 88.7559 18.0664C88.2728 18.0664 87.8991 18.2555 87.6348 18.6338C87.3704 19.0075 87.2383 19.5885 87.2383 20.377ZM97.6426 18.4561C97.3737 18.4196 97.1367 18.4014 96.9316 18.4014C96.1842 18.4014 95.6943 18.6543 95.4619 19.1602V24H93.4863V16.6035H95.3525L95.4072 17.4854C95.8037 16.8063 96.3529 16.4668 97.0547 16.4668C97.2734 16.4668 97.4785 16.4964 97.6699 16.5557L97.6426 18.4561ZM101.491 21.5869L102.865 16.6035H104.93L102.435 24H100.548L98.0527 16.6035H100.117L101.491 21.5869ZM109.113 24.1367C108.029 24.1367 107.145 23.804 106.461 23.1387C105.782 22.4733 105.442 21.5869 105.442 20.4795V20.2881C105.442 19.5452 105.586 18.8822 105.873 18.2988C106.16 17.7109 106.566 17.2598 107.09 16.9453C107.618 16.6263 108.22 16.4668 108.895 16.4668C109.906 16.4668 110.701 16.7858 111.28 17.4238C111.864 18.0618 112.155 18.9665 112.155 20.1377V20.9443H107.445C107.509 21.4274 107.701 21.8148 108.02 22.1064C108.343 22.3981 108.751 22.5439 109.243 22.5439C110.004 22.5439 110.599 22.2682 111.027 21.7168L111.998 22.8037C111.702 23.223 111.301 23.5511 110.795 23.7881C110.289 24.0205 109.729 24.1367 109.113 24.1367ZM108.888 18.0664C108.496 18.0664 108.177 18.1986 107.931 18.4629C107.689 18.7272 107.534 19.1055 107.466 19.5977H110.214V19.4404C110.205 19.0029 110.086 18.6657 109.858 18.4287C109.631 18.1872 109.307 18.0664 108.888 18.0664ZM115.102 16.6035L115.163 17.458C115.692 16.7972 116.4 16.4668 117.289 16.4668C118.073 16.4668 118.656 16.6969 119.039 17.1572C119.422 17.6175 119.618 18.3057 119.627 19.2217V24H117.651V19.2695C117.651 18.8503 117.56 18.5472 117.378 18.3604C117.196 18.1689 116.893 18.0732 116.469 18.0732C115.913 18.0732 115.496 18.3102 115.218 18.7842V24H113.242V16.6035H115.102ZM123.496 14.7852V16.6035H124.761V18.0527H123.496V21.7441C123.496 22.0176 123.549 22.2135 123.653 22.332C123.758 22.4505 123.959 22.5098 124.255 22.5098C124.474 22.5098 124.667 22.4938 124.836 22.4619V23.959C124.449 24.0775 124.05 24.1367 123.64 24.1367C122.254 24.1367 121.548 23.4372 121.521 22.0381V18.0527H120.44V16.6035H121.521V14.7852H123.496ZM129.266 24.1367C128.181 24.1367 127.297 23.804 126.613 23.1387C125.934 22.4733 125.595 21.5869 125.595 20.4795V20.2881C125.595 19.5452 125.738 18.8822 126.025 18.2988C126.312 17.7109 126.718 17.2598 127.242 16.9453C127.771 16.6263 128.372 16.4668 129.047 16.4668C130.059 16.4668 130.854 16.7858 131.433 17.4238C132.016 18.0618 132.308 18.9665 132.308 20.1377V20.9443H127.598C127.661 21.4274 127.853 21.8148 128.172 22.1064C128.495 22.3981 128.903 22.5439 129.396 22.5439C130.157 22.5439 130.751 22.2682 131.18 21.7168L132.15 22.8037C131.854 23.223 131.453 23.5511 130.947 23.7881C130.441 24.0205 129.881 24.1367 129.266 24.1367ZM129.04 18.0664C128.648 18.0664 128.329 18.1986 128.083 18.4629C127.841 18.7272 127.687 19.1055 127.618 19.5977H130.366V19.4404C130.357 19.0029 130.239 18.6657 130.011 18.4287C129.783 18.1872 129.459 18.0664 129.04 18.0664ZM143.587 20.3701C143.587 21.555 143.334 22.4801 142.828 23.1455C142.322 23.8063 141.616 24.1367 140.709 24.1367C139.907 24.1367 139.267 23.8291 138.788 23.2139L138.699 24H136.922V13.5H138.897V17.2666C139.353 16.7334 139.952 16.4668 140.695 16.4668C141.598 16.4668 142.304 16.7995 142.814 17.4648C143.329 18.1257 143.587 19.0576 143.587 20.2607V20.3701ZM141.611 20.2266C141.611 19.4792 141.493 18.9346 141.256 18.5928C141.019 18.2464 140.666 18.0732 140.196 18.0732C139.567 18.0732 139.134 18.3307 138.897 18.8457V21.7646C139.139 22.2842 139.576 22.5439 140.21 22.5439C140.848 22.5439 141.267 22.2295 141.468 21.6006C141.563 21.2998 141.611 20.8418 141.611 20.2266ZM148.215 24.1367C147.13 24.1367 146.246 23.804 145.562 23.1387C144.883 22.4733 144.544 21.5869 144.544 20.4795V20.2881C144.544 19.5452 144.688 18.8822 144.975 18.2988C145.262 17.7109 145.667 17.2598 146.191 16.9453C146.72 16.6263 147.322 16.4668 147.996 16.4668C149.008 16.4668 149.803 16.7858 150.382 17.4238C150.965 18.0618 151.257 18.9665 151.257 20.1377V20.9443H146.547C146.611 21.4274 146.802 21.8148 147.121 22.1064C147.445 22.3981 147.853 22.5439 148.345 22.5439C149.106 22.5439 149.701 22.2682 150.129 21.7168L151.1 22.8037C150.803 23.223 150.402 23.5511 149.896 23.7881C149.391 24.0205 148.83 24.1367 148.215 24.1367ZM147.989 18.0664C147.597 18.0664 147.278 18.1986 147.032 18.4629C146.791 18.7272 146.636 19.1055 146.567 19.5977H149.315V19.4404C149.306 19.0029 149.188 18.6657 148.96 18.4287C148.732 18.1872 148.409 18.0664 147.989 18.0664ZM154.312 17.4102C154.837 16.7812 155.495 16.4668 156.288 16.4668C157.892 16.4668 158.706 17.3988 158.729 19.2627V24H156.753V19.3174C156.753 18.8936 156.662 18.5814 156.479 18.3809C156.297 18.1758 155.994 18.0732 155.57 18.0732C154.992 18.0732 154.572 18.2965 154.312 18.7432V24H152.337V13.5H154.312V17.4102ZM164.505 24C164.414 23.8223 164.348 23.6012 164.307 23.3369C163.828 23.8701 163.206 24.1367 162.44 24.1367C161.716 24.1367 161.114 23.9271 160.636 23.5078C160.162 23.0885 159.925 22.5599 159.925 21.9219C159.925 21.138 160.214 20.5365 160.793 20.1172C161.376 19.6979 162.217 19.486 163.315 19.4814H164.225V19.0576C164.225 18.7158 164.136 18.4424 163.958 18.2373C163.785 18.0322 163.509 17.9297 163.131 17.9297C162.798 17.9297 162.536 18.0094 162.345 18.1689C162.158 18.3285 162.064 18.5472 162.064 18.8252H160.089C160.089 18.3968 160.221 18.0003 160.485 17.6357C160.75 17.2712 161.123 16.9863 161.606 16.7812C162.09 16.5716 162.632 16.4668 163.233 16.4668C164.145 16.4668 164.867 16.6969 165.4 17.1572C165.938 17.613 166.207 18.2555 166.207 19.085V22.291C166.212 22.9928 166.31 23.5238 166.501 23.8838V24H164.505ZM162.871 22.626C163.163 22.626 163.432 22.5622 163.678 22.4346C163.924 22.3024 164.106 22.127 164.225 21.9082V20.6367H163.486C162.497 20.6367 161.971 20.9785 161.907 21.6621L161.9 21.7783C161.9 22.0244 161.987 22.2272 162.16 22.3867C162.333 22.5462 162.57 22.626 162.871 22.626ZM169.543 16.6035L169.604 17.458C170.133 16.7972 170.842 16.4668 171.73 16.4668C172.514 16.4668 173.098 16.6969 173.48 17.1572C173.863 17.6175 174.059 18.3057 174.068 19.2217V24H172.093V19.2695C172.093 18.8503 172.002 18.5472 171.819 18.3604C171.637 18.1689 171.334 18.0732 170.91 18.0732C170.354 18.0732 169.937 18.3102 169.659 18.7842V24H167.684V16.6035H169.543ZM175.265 20.2471C175.265 19.0941 175.522 18.1758 176.037 17.4922C176.557 16.8086 177.265 16.4668 178.163 16.4668C178.883 16.4668 179.478 16.7357 179.947 17.2734V13.5H181.93V24H180.146L180.05 23.2139C179.558 23.8291 178.924 24.1367 178.149 24.1367C177.279 24.1367 176.579 23.7949 176.051 23.1113C175.527 22.4232 175.265 21.4684 175.265 20.2471ZM177.24 20.3906C177.24 21.0833 177.361 21.6143 177.603 21.9834C177.844 22.3525 178.195 22.5371 178.655 22.5371C179.266 22.5371 179.697 22.2796 179.947 21.7646V18.8457C179.701 18.3307 179.275 18.0732 178.669 18.0732C177.716 18.0732 177.24 18.8457 177.24 20.3906ZM185.546 24H183.563V13.5H185.546V24ZM189.265 24H187.282V16.6035H189.265V24ZM187.166 14.6895C187.166 14.3932 187.264 14.1494 187.46 13.958C187.66 13.7666 187.932 13.6709 188.273 13.6709C188.611 13.6709 188.88 13.7666 189.08 13.958C189.281 14.1494 189.381 14.3932 189.381 14.6895C189.381 14.9902 189.278 15.2363 189.073 15.4277C188.873 15.6191 188.606 15.7148 188.273 15.7148C187.941 15.7148 187.672 15.6191 187.467 15.4277C187.266 15.2363 187.166 14.9902 187.166 14.6895ZM192.717 16.6035L192.778 17.458C193.307 16.7972 194.016 16.4668 194.904 16.4668C195.688 16.4668 196.271 16.6969 196.654 17.1572C197.037 17.6175 197.233 18.3057 197.242 19.2217V24H195.267V19.2695C195.267 18.8503 195.175 18.5472 194.993 18.3604C194.811 18.1689 194.508 18.0732 194.084 18.0732C193.528 18.0732 193.111 18.3102 192.833 18.7842V24H190.857V16.6035H192.717ZM198.459 20.2471C198.459 19.1123 198.728 18.1986 199.266 17.5059C199.808 16.8132 200.537 16.4668 201.453 16.4668C202.264 16.4668 202.896 16.7448 203.347 17.3008L203.429 16.6035H205.22V23.7539C205.22 24.401 205.072 24.9639 204.775 25.4424C204.484 25.9209 204.071 26.2855 203.538 26.5361C203.005 26.7868 202.381 26.9121 201.665 26.9121C201.123 26.9121 200.594 26.8027 200.079 26.584C199.564 26.3698 199.174 26.0918 198.91 25.75L199.785 24.5469C200.277 25.0983 200.874 25.374 201.576 25.374C202.1 25.374 202.508 25.2327 202.8 24.9502C203.091 24.6722 203.237 24.2757 203.237 23.7607V23.3643C202.782 23.8792 202.182 24.1367 201.439 24.1367C200.551 24.1367 199.831 23.7904 199.279 23.0977C198.732 22.4004 198.459 21.4775 198.459 20.3291V20.2471ZM200.435 20.3906C200.435 21.0605 200.569 21.5869 200.838 21.9697C201.107 22.348 201.476 22.5371 201.945 22.5371C202.547 22.5371 202.978 22.3115 203.237 21.8604V18.75C202.973 18.2988 202.547 18.0732 201.959 18.0732C201.485 18.0732 201.111 18.2669 200.838 18.6543C200.569 19.0417 200.435 19.6204 200.435 20.3906ZM214.517 24C214.425 23.8223 214.359 23.6012 214.318 23.3369C213.84 23.8701 213.218 24.1367 212.452 24.1367C211.728 24.1367 211.126 23.9271 210.647 23.5078C210.174 23.0885 209.937 22.5599 209.937 21.9219C209.937 21.138 210.226 20.5365 210.805 20.1172C211.388 19.6979 212.229 19.486 213.327 19.4814H214.236V19.0576C214.236 18.7158 214.147 18.4424 213.97 18.2373C213.797 18.0322 213.521 17.9297 213.143 17.9297C212.81 17.9297 212.548 18.0094 212.356 18.1689C212.17 18.3285 212.076 18.5472 212.076 18.8252H210.101C210.101 18.3968 210.233 18.0003 210.497 17.6357C210.761 17.2712 211.135 16.9863 211.618 16.7812C212.101 16.5716 212.644 16.4668 213.245 16.4668C214.157 16.4668 214.879 16.6969 215.412 17.1572C215.95 17.613 216.219 18.2555 216.219 19.085V22.291C216.223 22.9928 216.321 23.5238 216.513 23.8838V24H214.517ZM212.883 22.626C213.174 22.626 213.443 22.5622 213.689 22.4346C213.936 22.3024 214.118 22.127 214.236 21.9082V20.6367H213.498C212.509 20.6367 211.983 20.9785 211.919 21.6621L211.912 21.7783C211.912 22.0244 211.999 22.2272 212.172 22.3867C212.345 22.5462 212.582 22.626 212.883 22.626ZM220.396 21.5869L221.77 16.6035H223.834L221.339 24H219.452L216.957 16.6035H219.021L220.396 21.5869ZM44.3633 33.4102C44.8874 32.7812 45.5459 32.4668 46.3389 32.4668C47.943 32.4668 48.7565 33.3988 48.7793 35.2627V40H46.8037V35.3174C46.8037 34.8936 46.7126 34.5814 46.5303 34.3809C46.348 34.1758 46.0449 34.0732 45.6211 34.0732C45.0423 34.0732 44.623 34.2965 44.3633 34.7432V40H42.3877V29.5H44.3633V33.4102ZM49.9619 36.2334C49.9619 35.4997 50.1032 34.8457 50.3857 34.2715C50.6683 33.6973 51.0739 33.2529 51.6025 32.9385C52.1357 32.624 52.7533 32.4668 53.4551 32.4668C53.9154 32.4668 54.3392 32.5329 54.7266 32.665L55.2051 31.6875H56.3057L55.6016 33.1299C56.513 33.8089 56.9688 34.8913 56.9688 36.377C56.9688 37.5117 56.652 38.4232 56.0186 39.1113C55.3851 39.7949 54.5352 40.1367 53.4688 40.1367C53.0358 40.1367 52.6348 40.0775 52.2656 39.959L51.7734 40.9707H50.6729L51.377 39.5215C50.4336 38.8561 49.9619 37.7601 49.9619 36.2334ZM51.9375 36.377C51.9375 36.9694 52.0309 37.4434 52.2178 37.7988L53.9951 34.1621C53.8311 34.0983 53.651 34.0664 53.4551 34.0664C52.972 34.0664 52.5983 34.2555 52.334 34.6338C52.0697 35.0075 51.9375 35.5885 51.9375 36.377ZM54.9932 36.2334C54.9932 35.7139 54.9089 35.2673 54.7402 34.8936L52.9902 38.4756C53.127 38.5212 53.2865 38.5439 53.4688 38.5439C53.9473 38.5439 54.321 38.3617 54.5898 37.9971C54.8587 37.6279 54.9932 37.04 54.9932 36.2334ZM60.9336 37.2041L62.3008 32.6035H64.4199L61.4463 41.1484L61.2822 41.5381C60.8402 42.5042 60.111 42.9873 59.0947 42.9873C58.8076 42.9873 58.516 42.944 58.2197 42.8574V41.3604L58.5205 41.3672C58.8942 41.3672 59.1722 41.3102 59.3545 41.1963C59.5413 41.0824 59.6872 40.8932 59.792 40.6289L60.0244 40.0205L57.4336 32.6035H59.5596L60.9336 37.2041ZM71.3721 37.0332L70.6611 37.7441V40H68.6855V29.5H70.6611V35.3174L71.0439 34.8252L72.9375 32.6035H75.3096L72.6367 35.6865L75.542 40H73.2725L71.3721 37.0332ZM78.9326 37.5869L80.3066 32.6035H82.3711L79.876 40H77.9893L75.4941 32.6035H77.5586L78.9326 37.5869ZM87.4229 40C87.3317 39.8223 87.2656 39.6012 87.2246 39.3369C86.7461 39.8701 86.124 40.1367 85.3584 40.1367C84.6338 40.1367 84.0322 39.9271 83.5537 39.5078C83.0798 39.0885 82.8428 38.5599 82.8428 37.9219C82.8428 37.138 83.1322 36.5365 83.7109 36.1172C84.2943 35.6979 85.1351 35.486 86.2334 35.4814H87.1426V35.0576C87.1426 34.7158 87.0537 34.4424 86.876 34.2373C86.7028 34.0322 86.4271 33.9297 86.0488 33.9297C85.7161 33.9297 85.4541 34.0094 85.2627 34.1689C85.0758 34.3285 84.9824 34.5472 84.9824 34.8252H83.0068C83.0068 34.3968 83.139 34.0003 83.4033 33.6357C83.6676 33.2712 84.0413 32.9863 84.5244 32.7812C85.0075 32.5716 85.5498 32.4668 86.1514 32.4668C87.0628 32.4668 87.7852 32.6969 88.3184 33.1572C88.8561 33.613 89.125 34.2555 89.125 35.085V38.291C89.1296 38.9928 89.2275 39.5238 89.4189 39.8838V40H87.4229ZM85.7891 38.626C86.0807 38.626 86.3496 38.5622 86.5957 38.4346C86.8418 38.3024 87.0241 38.127 87.1426 37.9082V36.6367H86.4043C85.4154 36.6367 84.889 36.9785 84.8252 37.6621L84.8184 37.7783C84.8184 38.0244 84.9049 38.2272 85.0781 38.3867C85.2513 38.5462 85.4883 38.626 85.7891 38.626ZM92.7275 40H90.7451V29.5H92.7275V40ZM96.4463 40H94.4639V32.6035H96.4463V40ZM94.3477 30.6895C94.3477 30.3932 94.4456 30.1494 94.6416 29.958C94.8421 29.7666 95.1133 29.6709 95.4551 29.6709C95.7923 29.6709 96.0612 29.7666 96.2617 29.958C96.4622 30.1494 96.5625 30.3932 96.5625 30.6895C96.5625 30.9902 96.46 31.2363 96.2549 31.4277C96.0544 31.6191 95.7878 31.7148 95.4551 31.7148C95.1224 31.7148 94.8535 31.6191 94.6484 31.4277C94.4479 31.2363 94.3477 30.9902 94.3477 30.6895ZM100.445 30.7852V32.6035H101.71V34.0527H100.445V37.7441C100.445 38.0176 100.498 38.2135 100.603 38.332C100.707 38.4505 100.908 38.5098 101.204 38.5098C101.423 38.5098 101.617 38.4938 101.785 38.4619V39.959C101.398 40.0775 100.999 40.1367 100.589 40.1367C99.2035 40.1367 98.4971 39.4372 98.4697 38.0381V34.0527H97.3896V32.6035H98.4697V30.7852H100.445ZM106.215 40.1367C105.13 40.1367 104.246 39.804 103.562 39.1387C102.883 38.4733 102.544 37.5869 102.544 36.4795V36.2881C102.544 35.5452 102.688 34.8822 102.975 34.2988C103.262 33.7109 103.667 33.2598 104.191 32.9453C104.72 32.6263 105.322 32.4668 105.996 32.4668C107.008 32.4668 107.803 32.7858 108.382 33.4238C108.965 34.0618 109.257 34.9665 109.257 36.1377V36.9443H104.547C104.611 37.4274 104.802 37.8148 105.121 38.1064C105.445 38.3981 105.853 38.5439 106.345 38.5439C107.106 38.5439 107.701 38.2682 108.129 37.7168L109.1 38.8037C108.803 39.223 108.402 39.5511 107.896 39.7881C107.391 40.0205 106.83 40.1367 106.215 40.1367ZM105.989 34.0664C105.597 34.0664 105.278 34.1986 105.032 34.4629C104.791 34.7272 104.636 35.1055 104.567 35.5977H107.315V35.4404C107.306 35.0029 107.188 34.6657 106.96 34.4287C106.732 34.1872 106.409 34.0664 105.989 34.0664ZM112.75 30.7852V32.6035H114.015V34.0527H112.75V37.7441C112.75 38.0176 112.802 38.2135 112.907 38.332C113.012 38.4505 113.213 38.5098 113.509 38.5098C113.728 38.5098 113.921 38.4938 114.09 38.4619V39.959C113.702 40.0775 113.304 40.1367 112.894 40.1367C111.508 40.1367 110.802 39.4372 110.774 38.0381V34.0527H109.694V32.6035H110.774V30.7852H112.75ZM115.628 42.4951L114.596 41.9551L114.842 41.5107C115.147 40.9548 115.304 40.401 115.313 39.8496V38.3184H116.981L116.975 39.6855C116.97 40.1914 116.842 40.7018 116.592 41.2168C116.341 41.7318 116.02 42.1579 115.628 42.4951ZM123.947 33.4102C124.471 32.7812 125.13 32.4668 125.923 32.4668C127.527 32.4668 128.34 33.3988 128.363 35.2627V40H126.388V35.3174C126.388 34.8936 126.297 34.5814 126.114 34.3809C125.932 34.1758 125.629 34.0732 125.205 34.0732C124.626 34.0732 124.207 34.2965 123.947 34.7432V40H121.972V29.5H123.947V33.4102ZM132.622 37.5869L133.996 32.6035H136.061L133.565 40H131.679L129.184 32.6035H131.248L132.622 37.5869ZM136.519 36.2334C136.519 35.4997 136.66 34.8457 136.942 34.2715C137.225 33.6973 137.631 33.2529 138.159 32.9385C138.692 32.624 139.31 32.4668 140.012 32.4668C141.01 32.4668 141.823 32.7721 142.452 33.3828C143.086 33.9935 143.439 34.8229 143.512 35.8711L143.525 36.377C143.525 37.5117 143.209 38.4232 142.575 39.1113C141.942 39.7949 141.092 40.1367 140.025 40.1367C138.959 40.1367 138.107 39.7949 137.469 39.1113C136.835 38.4277 136.519 37.498 136.519 36.3223V36.2334ZM138.494 36.377C138.494 37.0788 138.626 37.6165 138.891 37.9902C139.155 38.3594 139.533 38.5439 140.025 38.5439C140.504 38.5439 140.878 38.3617 141.146 37.9971C141.415 37.6279 141.55 37.04 141.55 36.2334C141.55 35.5452 141.415 35.012 141.146 34.6338C140.878 34.2555 140.499 34.0664 140.012 34.0664C139.529 34.0664 139.155 34.2555 138.891 34.6338C138.626 35.0075 138.494 35.5885 138.494 36.377ZM148.898 34.4561C148.63 34.4196 148.393 34.4014 148.188 34.4014C147.44 34.4014 146.95 34.6543 146.718 35.1602V40H144.742V32.6035H146.608L146.663 33.4854C147.06 32.8063 147.609 32.4668 148.311 32.4668C148.529 32.4668 148.734 32.4964 148.926 32.5557L148.898 34.4561ZM153.034 36.2471C153.034 35.0941 153.292 34.1758 153.807 33.4922C154.326 32.8086 155.035 32.4668 155.933 32.4668C156.653 32.4668 157.247 32.7357 157.717 33.2734V29.5H159.699V40H157.915L157.819 39.2139C157.327 39.8291 156.694 40.1367 155.919 40.1367C155.049 40.1367 154.349 39.7949 153.82 39.1113C153.296 38.4232 153.034 37.4684 153.034 36.2471ZM155.01 36.3906C155.01 37.0833 155.131 37.6143 155.372 37.9834C155.614 38.3525 155.965 38.5371 156.425 38.5371C157.035 38.5371 157.466 38.2796 157.717 37.7646V34.8457C157.471 34.3307 157.045 34.0732 156.438 34.0732C155.486 34.0732 155.01 34.8457 155.01 36.3906ZM163.315 40H161.333V32.6035H163.315V40ZM161.217 30.6895C161.217 30.3932 161.315 30.1494 161.511 29.958C161.711 29.7666 161.982 29.6709 162.324 29.6709C162.661 29.6709 162.93 29.7666 163.131 29.958C163.331 30.1494 163.432 30.3932 163.432 30.6895C163.432 30.9902 163.329 31.2363 163.124 31.4277C162.924 31.6191 162.657 31.7148 162.324 31.7148C161.992 31.7148 161.723 31.6191 161.518 31.4277C161.317 31.2363 161.217 30.9902 161.217 30.6895ZM167.314 30.7852V32.6035H168.579V34.0527H167.314V37.7441C167.314 38.0176 167.367 38.2135 167.472 38.332C167.576 38.4505 167.777 38.5098 168.073 38.5098C168.292 38.5098 168.486 38.4938 168.654 38.4619V39.959C168.267 40.0775 167.868 40.1367 167.458 40.1367C166.073 40.1367 165.366 39.4372 165.339 38.0381V34.0527H164.259V32.6035H165.339V30.7852H167.314ZM172.045 30.7852V32.6035H173.31V34.0527H172.045V37.7441C172.045 38.0176 172.097 38.2135 172.202 38.332C172.307 38.4505 172.507 38.5098 172.804 38.5098C173.022 38.5098 173.216 38.4938 173.385 38.4619V39.959C172.997 40.0775 172.599 40.1367 172.188 40.1367C170.803 40.1367 170.097 39.4372 170.069 38.0381V34.0527H168.989V32.6035H170.069V30.7852H172.045ZM184.562 36.3701C184.562 37.555 184.309 38.4801 183.803 39.1455C183.297 39.8063 182.59 40.1367 181.684 40.1367C180.882 40.1367 180.241 39.8291 179.763 39.2139L179.674 40H177.896V29.5H179.872V33.2666C180.328 32.7334 180.927 32.4668 181.67 32.4668C182.572 32.4668 183.279 32.7995 183.789 33.4648C184.304 34.1257 184.562 35.0576 184.562 36.2607V36.3701ZM182.586 36.2266C182.586 35.4792 182.467 34.9346 182.23 34.5928C181.993 34.2464 181.64 34.0732 181.171 34.0732C180.542 34.0732 180.109 34.3307 179.872 34.8457V37.7646C180.114 38.2842 180.551 38.5439 181.185 38.5439C181.823 38.5439 182.242 38.2295 182.442 37.6006C182.538 37.2998 182.586 36.8418 182.586 36.2266ZM189.189 40.1367C188.105 40.1367 187.221 39.804 186.537 39.1387C185.858 38.4733 185.519 37.5869 185.519 36.4795V36.2881C185.519 35.5452 185.662 34.8822 185.949 34.2988C186.236 33.7109 186.642 33.2598 187.166 32.9453C187.695 32.6263 188.296 32.4668 188.971 32.4668C189.982 32.4668 190.778 32.7858 191.356 33.4238C191.94 34.0618 192.231 34.9665 192.231 36.1377V36.9443H187.521C187.585 37.4274 187.777 37.8148 188.096 38.1064C188.419 38.3981 188.827 38.5439 189.319 38.5439C190.08 38.5439 190.675 38.2682 191.104 37.7168L192.074 38.8037C191.778 39.223 191.377 39.5511 190.871 39.7881C190.365 40.0205 189.805 40.1367 189.189 40.1367ZM188.964 34.0664C188.572 34.0664 188.253 34.1986 188.007 34.4629C187.765 34.7272 187.61 35.1055 187.542 35.5977H190.29V35.4404C190.281 35.0029 190.162 34.6657 189.935 34.4287C189.707 34.1872 189.383 34.0664 188.964 34.0664ZM195.287 33.4102C195.811 32.7812 196.47 32.4668 197.263 32.4668C198.867 32.4668 199.68 33.3988 199.703 35.2627V40H197.728V35.3174C197.728 34.8936 197.636 34.5814 197.454 34.3809C197.272 34.1758 196.969 34.0732 196.545 34.0732C195.966 34.0732 195.547 34.2965 195.287 34.7432V40H193.312V29.5H195.287V33.4102ZM200.886 36.2334C200.886 35.4997 201.027 34.8457 201.31 34.2715C201.592 33.6973 201.998 33.2529 202.526 32.9385C203.06 32.624 203.677 32.4668 204.379 32.4668C205.377 32.4668 206.19 32.7721 206.819 33.3828C207.453 33.9935 207.806 34.8229 207.879 35.8711L207.893 36.377C207.893 37.5117 207.576 38.4232 206.942 39.1113C206.309 39.7949 205.459 40.1367 204.393 40.1367C203.326 40.1367 202.474 39.7949 201.836 39.1113C201.202 38.4277 200.886 37.498 200.886 36.3223V36.2334ZM202.861 36.377C202.861 37.0788 202.993 37.6165 203.258 37.9902C203.522 38.3594 203.9 38.5439 204.393 38.5439C204.871 38.5439 205.245 38.3617 205.514 37.9971C205.783 37.6279 205.917 37.04 205.917 36.2334C205.917 35.5452 205.783 35.012 205.514 34.6338C205.245 34.2555 204.867 34.0664 204.379 34.0664C203.896 34.0664 203.522 34.2555 203.258 34.6338C202.993 35.0075 202.861 35.5885 202.861 36.377ZM211.769 37.5869L213.143 32.6035H215.207L212.712 40H210.825L208.33 32.6035H210.395L211.769 37.5869ZM93.0967 53.9561C93.0967 53.7145 92.9759 53.5254 92.7344 53.3887C92.4974 53.2474 92.1146 53.1221 91.5859 53.0127C89.8268 52.6436 88.9473 51.8962 88.9473 50.7705C88.9473 50.1143 89.2184 49.5674 89.7607 49.1299C90.3076 48.6878 91.0208 48.4668 91.9004 48.4668C92.8392 48.4668 93.5889 48.6878 94.1494 49.1299C94.7145 49.5719 94.9971 50.1462 94.9971 50.8525H93.0215C93.0215 50.57 92.9303 50.3376 92.748 50.1553C92.5658 49.9684 92.2809 49.875 91.8936 49.875C91.5609 49.875 91.3034 49.9502 91.1211 50.1006C90.9388 50.251 90.8477 50.4424 90.8477 50.6748C90.8477 50.8936 90.9502 51.0713 91.1553 51.208C91.3649 51.3402 91.7158 51.4564 92.208 51.5566C92.7002 51.6523 93.1149 51.7617 93.4521 51.8848C94.4958 52.2676 95.0176 52.9307 95.0176 53.874C95.0176 54.5485 94.7282 55.0954 94.1494 55.5146C93.5706 55.9294 92.8232 56.1367 91.9072 56.1367C91.2874 56.1367 90.736 56.0273 90.2529 55.8086C89.7744 55.5853 89.3984 55.2822 89.125 54.8994C88.8516 54.512 88.7148 54.0951 88.7148 53.6484H90.5879C90.6061 53.9993 90.736 54.2682 90.9775 54.4551C91.2191 54.6419 91.5426 54.7354 91.9482 54.7354C92.3265 54.7354 92.6113 54.6647 92.8027 54.5234C92.9987 54.3776 93.0967 54.1885 93.0967 53.9561ZM98.6611 46.7852V48.6035H99.9258V50.0527H98.6611V53.7441C98.6611 54.0176 98.7135 54.2135 98.8184 54.332C98.9232 54.4505 99.1237 54.5098 99.4199 54.5098C99.6387 54.5098 99.8324 54.4938 100.001 54.4619V55.959C99.6136 56.0775 99.2148 56.1367 98.8047 56.1367C97.4193 56.1367 96.7129 55.4372 96.6855 54.0381V50.0527H95.6055V48.6035H96.6855V46.7852H98.6611ZM105.312 56C105.221 55.8223 105.155 55.6012 105.114 55.3369C104.636 55.8701 104.014 56.1367 103.248 56.1367C102.523 56.1367 101.922 55.9271 101.443 55.5078C100.969 55.0885 100.732 54.5599 100.732 53.9219C100.732 53.138 101.022 52.5365 101.601 52.1172C102.184 51.6979 103.025 51.486 104.123 51.4814H105.032V51.0576C105.032 50.7158 104.943 50.4424 104.766 50.2373C104.592 50.0322 104.317 49.9297 103.938 49.9297C103.606 49.9297 103.344 50.0094 103.152 50.1689C102.965 50.3285 102.872 50.5472 102.872 50.8252H100.896C100.896 50.3968 101.029 50.0003 101.293 49.6357C101.557 49.2712 101.931 48.9863 102.414 48.7812C102.897 48.5716 103.439 48.4668 104.041 48.4668C104.952 48.4668 105.675 48.6969 106.208 49.1572C106.746 49.613 107.015 50.2555 107.015 51.085V54.291C107.019 54.9928 107.117 55.5238 107.309 55.8838V56H105.312ZM103.679 54.626C103.97 54.626 104.239 54.5622 104.485 54.4346C104.731 54.3024 104.914 54.127 105.032 53.9082V52.6367H104.294C103.305 52.6367 102.779 52.9785 102.715 53.6621L102.708 53.7783C102.708 54.0244 102.795 54.2272 102.968 54.3867C103.141 54.5462 103.378 54.626 103.679 54.626ZM102.517 46.293C102.517 45.901 102.665 45.5706 102.961 45.3018C103.257 45.0283 103.617 44.8916 104.041 44.8916C104.46 44.8916 104.818 45.026 105.114 45.2949C105.415 45.5592 105.565 45.8919 105.565 46.293C105.565 46.6803 105.42 47.0062 105.128 47.2705C104.836 47.5348 104.474 47.667 104.041 47.667C103.599 47.667 103.234 47.5326 102.947 47.2637C102.66 46.9948 102.517 46.6712 102.517 46.293ZM103.303 46.293C103.303 46.4935 103.369 46.6667 103.501 46.8125C103.633 46.9538 103.813 47.0244 104.041 47.0244C104.269 47.0244 104.449 46.9538 104.581 46.8125C104.713 46.6667 104.779 46.4935 104.779 46.293C104.779 46.0833 104.711 45.9079 104.574 45.7666C104.442 45.6208 104.264 45.5479 104.041 45.5479C103.818 45.5479 103.638 45.6208 103.501 45.7666C103.369 45.9079 103.303 46.0833 103.303 46.293ZM112.688 50.4561C112.42 50.4196 112.183 50.4014 111.978 50.4014C111.23 50.4014 110.74 50.6543 110.508 51.1602V56H108.532V48.6035H110.398L110.453 49.4854C110.85 48.8063 111.399 48.4668 112.101 48.4668C112.319 48.4668 112.524 48.4964 112.716 48.5557L112.688 50.4561ZM121.138 53.9561C121.138 53.7145 121.017 53.5254 120.775 53.3887C120.538 53.2474 120.156 53.1221 119.627 53.0127C117.868 52.6436 116.988 51.8962 116.988 50.7705C116.988 50.1143 117.259 49.5674 117.802 49.1299C118.349 48.6878 119.062 48.4668 119.941 48.4668C120.88 48.4668 121.63 48.6878 122.19 49.1299C122.756 49.5719 123.038 50.1462 123.038 50.8525H121.062C121.062 50.57 120.971 50.3376 120.789 50.1553C120.607 49.9684 120.322 49.875 119.935 49.875C119.602 49.875 119.344 49.9502 119.162 50.1006C118.98 50.251 118.889 50.4424 118.889 50.6748C118.889 50.8936 118.991 51.0713 119.196 51.208C119.406 51.3402 119.757 51.4564 120.249 51.5566C120.741 51.6523 121.156 51.7617 121.493 51.8848C122.537 52.2676 123.059 52.9307 123.059 53.874C123.059 54.5485 122.769 55.0954 122.19 55.5146C121.612 55.9294 120.864 56.1367 119.948 56.1367C119.328 56.1367 118.777 56.0273 118.294 55.8086C117.815 55.5853 117.439 55.2822 117.166 54.8994C116.893 54.512 116.756 54.0951 116.756 53.6484H118.629C118.647 53.9993 118.777 54.2682 119.019 54.4551C119.26 54.6419 119.584 54.7354 119.989 54.7354C120.368 54.7354 120.652 54.6647 120.844 54.5234C121.04 54.3776 121.138 54.1885 121.138 53.9561ZM127.741 56.1367C126.657 56.1367 125.772 55.804 125.089 55.1387C124.41 54.4733 124.07 53.5869 124.07 52.4795V52.2881C124.07 51.5452 124.214 50.8822 124.501 50.2988C124.788 49.7109 125.194 49.2598 125.718 48.9453C126.246 48.6263 126.848 48.4668 127.522 48.4668C128.534 48.4668 129.329 48.7858 129.908 49.4238C130.492 50.0618 130.783 50.9665 130.783 52.1377V52.9443H126.073C126.137 53.4274 126.328 53.8148 126.647 54.1064C126.971 54.3981 127.379 54.5439 127.871 54.5439C128.632 54.5439 129.227 54.2682 129.655 53.7168L130.626 54.8037C130.33 55.223 129.929 55.5511 129.423 55.7881C128.917 56.0205 128.356 56.1367 127.741 56.1367ZM127.516 50.0664C127.124 50.0664 126.805 50.1986 126.559 50.4629C126.317 50.7272 126.162 51.1055 126.094 51.5977H128.842V51.4404C128.833 51.0029 128.714 50.6657 128.486 50.4287C128.258 50.1872 127.935 50.0664 127.516 50.0664ZM133.729 48.6035L133.791 49.458C134.32 48.7972 135.028 48.4668 135.917 48.4668C136.701 48.4668 137.284 48.6969 137.667 49.1572C138.05 49.6175 138.246 50.3057 138.255 51.2217V56H136.279V51.2695C136.279 50.8503 136.188 50.5472 136.006 50.3604C135.824 50.1689 135.521 50.0732 135.097 50.0732C134.541 50.0732 134.124 50.3102 133.846 50.7842V56H131.87V48.6035H133.729ZM142.124 46.7852V48.6035H143.389V50.0527H142.124V53.7441C142.124 54.0176 142.176 54.2135 142.281 54.332C142.386 54.4505 142.587 54.5098 142.883 54.5098C143.102 54.5098 143.295 54.4938 143.464 54.4619V55.959C143.076 56.0775 142.678 56.1367 142.268 56.1367C140.882 56.1367 140.176 55.4372 140.148 54.0381V50.0527H139.068V48.6035H140.148V46.7852H142.124ZM148.646 50.4561C148.377 50.4196 148.14 50.4014 147.935 50.4014C147.187 50.4014 146.697 50.6543 146.465 51.1602V56H144.489V48.6035H146.355L146.41 49.4854C146.807 48.8063 147.356 48.4668 148.058 48.4668C148.276 48.4668 148.481 48.4964 148.673 48.5557L148.646 50.4561ZM153.684 56C153.592 55.8223 153.526 55.6012 153.485 55.3369C153.007 55.8701 152.385 56.1367 151.619 56.1367C150.895 56.1367 150.293 55.9271 149.814 55.5078C149.34 55.0885 149.104 54.5599 149.104 53.9219C149.104 53.138 149.393 52.5365 149.972 52.1172C150.555 51.6979 151.396 51.486 152.494 51.4814H153.403V51.0576C153.403 50.7158 153.314 50.4424 153.137 50.2373C152.964 50.0322 152.688 49.9297 152.31 49.9297C151.977 49.9297 151.715 50.0094 151.523 50.1689C151.337 50.3285 151.243 50.5472 151.243 50.8252H149.268C149.268 50.3968 149.4 50.0003 149.664 49.6357C149.928 49.2712 150.302 48.9863 150.785 48.7812C151.268 48.5716 151.811 48.4668 152.412 48.4668C153.324 48.4668 154.046 48.6969 154.579 49.1572C155.117 49.613 155.386 50.2555 155.386 51.085V54.291C155.39 54.9928 155.488 55.5238 155.68 55.8838V56H153.684ZM152.05 54.626C152.341 54.626 152.61 54.5622 152.856 54.4346C153.103 54.3024 153.285 54.127 153.403 53.9082V52.6367H152.665C151.676 52.6367 151.15 52.9785 151.086 53.6621L151.079 53.7783C151.079 54.0244 151.166 54.2272 151.339 54.3867C151.512 54.5462 151.749 54.626 152.05 54.626ZM158.988 56H157.006V45.5H158.988V56ZM162.987 46.7852V48.6035H164.252V50.0527H162.987V53.7441C162.987 54.0176 163.04 54.2135 163.145 54.332C163.249 54.4505 163.45 54.5098 163.746 54.5098C163.965 54.5098 164.159 54.4938 164.327 54.4619V55.959C163.94 56.0775 163.541 56.1367 163.131 56.1367C161.745 56.1367 161.039 55.4372 161.012 54.0381V50.0527H159.932V48.6035H161.012V46.7852H162.987ZM165.455 55.0293C165.455 54.7148 165.56 54.4596 165.77 54.2637C165.984 54.0677 166.25 53.9697 166.569 53.9697C166.893 53.9697 167.16 54.0677 167.369 54.2637C167.583 54.4596 167.69 54.7148 167.69 55.0293C167.69 55.3392 167.586 55.5921 167.376 55.7881C167.166 55.9795 166.897 56.0752 166.569 56.0752C166.246 56.0752 165.979 55.9795 165.77 55.7881C165.56 55.5921 165.455 55.3392 165.455 55.0293Z" fill="#333333"/>
<path fill-rule="evenodd" clip-rule="evenodd" d="M255.731 28.9669C256.917 27.5753 257.719 25.8698 257.585 23.9587C257.199 18.4525 249.534 19.6638 248.043 22.4429C246.552 25.222 246.729 32.2713 248.656 32.768C249.424 32.9661 251.061 32.4809 252.727 31.4766L251.682 38.8753H257.857L255.731 28.9669Z" fill="#B28B67"/>
<path d="M260.43 105C249.488 105 240.618 96.5332 240.618 86.0888C240.618 75.6445 249.488 67.1777 260.43 67.1777C271.371 67.1777 280.241 75.6445 280.241 86.0888C280.241 96.5332 271.371 105 260.43 105Z" fill="#C5CFD6"/>
<path fill-rule="evenodd" clip-rule="evenodd" d="M222.991 102.082C226.288 94.7858 228.672 88.4324 229.629 85.0803C231.267 79.3407 232.514 74.2902 232.829 72.4041C233.58 67.9064 227.05 67.6445 226.186 69.8797C224.88 73.2629 222.599 84.3785 219.858 101.168L222.991 102.082ZM261.23 79.184C258.206 77.9884 247.613 74.2468 242.505 73.1884C241.037 72.8843 239.614 72.6017 238.276 72.3463C234.3 71.5872 232.24 78.7604 236.069 79.3116C245.607 80.6842 259.127 82.1016 260.284 82.2607C261.906 82.4836 263.131 79.9353 261.23 79.184Z" fill="#B28B67"/>
<path fill-rule="evenodd" clip-rule="evenodd" d="M235.836 70.3723L252.196 62.0438V60.2307H250.251C234.422 64.264 226.334 66.8488 225.986 67.985C225.982 67.9972 225.979 68.0095 225.976 68.0217C225.968 68.0322 225.96 68.0427 225.952 68.0533C222.815 72.3673 220.937 93.4287 220.32 95.0057L226.331 95.9024C228.63 87.3761 235.987 81.4365 235.791 71.2247C235.844 70.9251 235.857 70.641 235.836 70.3723Z" fill="#AEC2C4"/>
<path fill-rule="evenodd" clip-rule="evenodd" d="M250.837 75.3186C252.334 75.0189 253.713 74.7515 254.892 74.5446C262.511 73.2082 264.733 69.1296 263.42 60.2307H249.381C247.088 60.8895 235.17 65.8873 228.987 68.5455C224.894 70.3049 226.184 76.6473 228.502 78.2978C228.514 78.3991 228.556 78.4679 228.63 78.4986C241.097 83.6658 250.96 80.9546 254.255 81.8209L255.779 77.0136L250.837 75.3186Z" fill="#CAE1E4"/>
<path fill-rule="evenodd" clip-rule="evenodd" d="M260.196 78.4198C261.013 78.498 261.593 78.6207 261.936 78.7879C262.353 78.9913 262.927 79.3576 263.66 79.8867C263.424 80.3705 261.303 84.7182 257.298 92.9299C256.012 92.7223 255.503 92.2316 255.77 91.4578C256.036 90.6839 256.252 90.0379 256.415 89.5198L256.669 82.1393C256.674 81.9973 256.793 81.8861 256.935 81.891C256.938 81.8911 256.94 81.8912 256.943 81.8914L258.078 81.9627C258.723 81.4405 259.149 80.9681 259.355 80.5454C259.522 80.202 259.615 79.6601 259.633 78.9198L259.633 78.9198C259.64 78.6357 259.875 78.4108 260.16 78.4177C260.172 78.4179 260.184 78.4187 260.196 78.4198Z" fill="#E4E4E4"/>
<path fill-rule="evenodd" clip-rule="evenodd" d="M224.491 100.729C224.779 101.498 224.923 102.073 224.923 102.454C224.923 102.918 224.846 103.595 224.691 104.485C224.153 104.485 219.316 104.485 210.179 104.485C209.802 103.239 210.02 102.566 210.832 102.466C211.645 102.367 212.32 102.277 212.857 102.197L219.602 99.19C219.732 99.1321 219.884 99.1904 219.942 99.3202C219.943 99.3224 219.944 99.3247 219.945 99.3269L220.378 100.379C221.131 100.73 221.742 100.905 222.212 100.905C222.594 100.905 223.122 100.751 223.795 100.442L223.795 100.442C224.053 100.324 224.359 100.437 224.477 100.695C224.482 100.707 224.487 100.718 224.491 100.729Z" fill="#E4E4E4"/>
<path fill-rule="evenodd" clip-rule="evenodd" d="M236.787 55.1187L228.58 61.1455C226.354 61.7461 224.494 62.4934 223.001 63.3874C222.648 63.7088 222.221 64.3599 223.685 64.2474C225.148 64.1348 226.692 64.0823 226.894 64.5813C227.095 65.0804 226.21 65.6772 226.618 66.3505C226.89 66.7994 228.175 65.6738 230.474 62.9738L238.601 59.6036L236.787 55.1187ZM273.928 52.6084L269.396 53.4289C274.655 63.865 277.472 69.3829 277.847 69.9828C278.689 71.3325 277.839 73.7642 277.518 75.047C279.382 75.5156 278.693 72.6843 281.052 73.3141C283.205 73.8889 285.014 75.2994 287.063 73.4755C287.315 73.2513 287.509 72.5401 286.67 72.1589C284.58 71.2093 281.499 69.4456 281.006 68.7732C280.334 67.8562 277.975 62.468 273.928 52.6084Z" fill="#B28B67"/>
<path fill-rule="evenodd" clip-rule="evenodd" d="M234.875 55.7739C233.819 55.698 232.671 55.873 231.439 56.2879C230.833 56.4921 230.507 57.1488 230.712 57.7548C230.83 58.1068 231.101 58.3642 231.427 58.4782C231.191 58.6501 230.953 58.821 230.713 58.991L232.784 63.2178C241.497 58.8736 249.686 55.5984 253.418 48.4265C254.67 46.0194 254.246 37.8431 254.366 34.8686L251.614 33.7401C247.778 41.6691 242.587 49.276 234.875 55.7739Z" fill="#D8DFE7"/>
<path fill-rule="evenodd" clip-rule="evenodd" d="M264.032 62.5231C255.943 63.4117 249.576 63.4117 244.931 62.5231C244.356 62.413 244.381 59.9323 244.648 59.2548C248.804 48.7044 251.538 40.9809 251.538 33.6528C252.3 34.0511 253.635 34.1108 255.541 33.8319C260.665 41.3838 263.02 50.0487 264.032 62.5231Z" fill="#191847"/>
<path fill-rule="evenodd" clip-rule="evenodd" d="M265.535 63.7705C265.81 63.5121 265.953 63.1246 265.882 62.7254L265.748 61.9652C265.658 61.4501 265.239 61.075 264.745 61.0163C264.659 60.6303 264.584 60.2469 264.523 59.8663C264.003 56.6511 264.891 53.4985 264.849 50.4026C268.987 53.9326 272.698 60.0278 275.984 68.6883L280.843 67.2583C280.658 66.5695 280.466 65.8891 280.267 65.2172C280.828 64.8986 281.483 63.4382 281.012 63.1938C280.525 62.9414 280.008 62.7637 279.465 62.6592C275.009 49.2389 267.723 39.4241 257.606 33.2148H256.711L254.68 33.2148C255.541 44.608 243.641 69.4817 247.773 90.7248C255.411 92.4303 266.314 87.1239 276.927 91.3634C276.532 82.8086 268.621 72.7586 265.535 63.7705V63.7705Z" fill="#E8EFF7"/>
<path fill-rule="evenodd" clip-rule="evenodd" d="M256.543 33.4721L257.871 37.5542L255.197 40.6144L257.613 43.0192L251.769 53.0265L258.916 43.0392L256.543 40.6144L258.916 37.91L256.543 33.4721Z" fill="black" fill-opacity="0.1"/>
<path fill-rule="evenodd" clip-rule="evenodd" d="M253.483 56.8859C254.051 56.8859 254.512 56.4251 254.512 55.8567C254.512 55.2883 254.051 54.8275 253.483 54.8275C252.914 54.8275 252.454 55.2883 252.454 55.8567C252.454 56.4251 252.914 56.8859 253.483 56.8859ZM252.196 62.8036C252.765 62.8036 253.225 62.3429 253.225 61.7745C253.225 61.2061 252.765 60.7453 252.196 60.7453C251.628 60.7453 251.167 61.2061 251.167 61.7745C251.167 62.3429 251.628 62.8036 252.196 62.8036ZM251.939 68.7214C252.507 68.7214 252.968 68.2606 252.968 67.6922C252.968 67.1238 252.507 66.6631 251.939 66.6631C251.371 66.6631 250.91 67.1238 250.91 67.6922C250.91 68.2606 251.371 68.7214 251.939 68.7214Z" fill="black" fill-opacity="0.4"/>
<path fill-rule="evenodd" clip-rule="evenodd" d="M247.601 23.5999C247.651 23.307 247.775 22.9817 247.876 22.7045C248.005 22.3472 248.2 22.0251 248.415 21.7214C248.82 21.1498 249.305 20.6337 249.841 20.2053C250.821 19.4227 252.067 18.9714 253.293 19.1179C253.912 19.1919 254.513 19.4232 255.024 19.8082C255.486 20.156 255.931 20.668 256.529 20.7048C257.18 20.7448 257.777 20.1819 258.299 19.8343C258.887 19.4424 259.514 19.1568 260.202 19.0458C261.354 18.8599 262.437 19.2413 263.231 20.1677C264.076 21.1534 264.691 22.5991 264.136 23.9052C264.033 24.148 263.9 24.3527 263.709 24.5223C263.535 24.6779 263.268 24.8434 263.197 25.0919C263.122 25.3562 263.347 25.697 263.434 25.9354C263.559 26.277 263.661 26.6356 263.625 27.0068C263.565 27.6165 263.174 28.1986 262.761 28.5993C262.34 29.0071 261.823 29.241 261.271 29.3488C260.902 29.4208 260.525 29.4605 260.15 29.4334C259.964 29.42 259.799 29.3694 259.619 29.3291C259.444 29.2899 259.346 29.3356 259.197 29.4298C258.506 29.8675 257.762 30.0369 256.964 29.9718C256.291 29.9168 255.514 29.7569 254.965 29.3048C254.355 28.8027 254.367 28.1103 254.51 27.3705C254.358 27.4443 253.937 27.4901 254.189 27.1956C254.288 27.079 254.477 27.0316 254.605 26.963C254.753 26.8832 254.905 26.78 255.02 26.6497C255.487 26.1238 255.015 25.0534 254.429 24.877C253.557 24.615 253.362 25.8225 252.74 26.1348C252.382 26.3144 252.008 26.0689 251.74 25.8183C251.381 25.4825 251.136 25.0377 250.925 24.5851C250.751 24.2123 250.589 23.8343 250.412 23.4634C250.329 23.2902 250.042 22.8005 250.186 22.6047C249.562 22.4827 248.867 22.7369 248.329 23.0701C248.107 23.2079 247.937 23.3598 247.819 23.603C247.793 23.6551 247.738 23.8101 247.669 23.8164C247.54 23.8282 247.588 23.6735 247.601 23.5999Z" fill="#191847"/>
<path d="M5.274 6C6.31235 6 7.32739 6.30791 8.19074 6.88478C9.0541 7.46166 9.72701 8.2816 10.1244 9.24091C10.5217 10.2002 10.6257 11.2558 10.4231 12.2742C10.2206 13.2926 9.72054 14.2281 8.98631 14.9623C8.25209 15.6965 7.31662 16.1966 6.29822 16.3991C5.27982 16.6017 4.22422 16.4977 3.26491 16.1004C2.3056 15.703 1.48566 15.0301 0.908785 14.1667C0.331907 13.3034 0.024 12.2884 0.024 11.25L0 10.5C0 7.71523 1.10625 5.04451 3.07538 3.07538C5.04451 1.10625 7.71523 0 10.5 0V3C9.51465 2.99735 8.53856 3.19007 7.62815 3.567C6.71774 3.94393 5.89109 4.4976 5.196 5.196C4.92584 5.46565 4.67662 5.75549 4.4505 6.063C4.719 6.021 4.9935 5.9985 5.2725 5.9985L5.274 6ZM18.774 6C19.8124 6 20.8274 6.30791 21.6907 6.88478C22.5541 7.46166 23.227 8.2816 23.6244 9.24091C24.0217 10.2002 24.1257 11.2558 23.9231 12.2742C23.7206 13.2926 23.2205 14.2281 22.4863 14.9623C21.7521 15.6965 20.8166 16.1966 19.7982 16.3991C18.7798 16.6017 17.7242 16.4977 16.7649 16.1004C15.8056 15.703 14.9857 15.0301 14.4088 14.1667C13.8319 13.3034 13.524 12.2884 13.524 11.25L13.5 10.5C13.5 7.71523 14.6062 5.04451 16.5754 3.07538C18.5445 1.10625 21.2152 0 24 0V3C23.0147 2.99735 22.0386 3.19007 21.1282 3.567C20.2177 3.94393 19.3911 4.4976 18.696 5.196C18.4258 5.46565 18.1766 5.75549 17.9505 6.063C18.219 6.021 18.4935 5.9985 18.774 5.9985V6Z" fill="#77999E"/>
</svg>
